<svg width="596" height="791" viewBox="0 0 596 791" fill="none" xmlns="http://www.w3.org/2000/svg">
<path d="M427.21 113.55H168.07C135.69 113.55 109.44 139.799 109.44 172.18V618.69C109.44 651.07 135.69 677.32 168.07 677.32H427.21C459.59 677.32 485.84 651.07 485.84 618.69V172.18C485.84 139.799 459.59 113.55 427.21 113.55Z" fill="#91A4EA"/>
<mask id="mask0_31_234" style="mask-type:luminance" maskUnits="userSpaceOnUse" x="109" y="113" width="377" height="565">
<path d="M427.21 113.55H168.07C135.69 113.55 109.44 139.799 109.44 172.18V618.69C109.44 651.07 135.69 677.32 168.07 677.32H427.21C459.59 677.32 485.84 651.07 485.84 618.69V172.18C485.84 139.799 459.59 113.55 427.21 113.55Z" fill="white"/>
</mask>
<g mask="url(#mask0_31_234)">
<path d="M534.7 421.32C517.31 484.39 476.02 542.81 418.08 586.32C360.14 629.83 285.81 658.23 208.16 666.54C186.77 668.83 164.66 669.73 144.97 677.01C125.28 684.29 108.18 700.01 109.5 717.79C110.55 731.89 123.03 744.07 138.05 750.8C153.08 757.53 170.42 759.7 187.41 761.23C242.7 766.18 298.75 765.37 353.79 758.82C416.39 751.37 483.03 733.37 517.4 689.52C538.2 662.98 544.22 630.54 548.12 599.09C555.53 539.32 557.04 479.05 552.65 419.07" fill="#8396CC"/>
</g>
<path d="M427.21 113.55H168.07C135.69 113.55 109.44 139.799 109.44 172.18V618.69C109.44 651.07 135.69 677.32 168.07 677.32H427.21C459.59 677.32 485.84 651.07 485.84 618.69V172.18C485.84 139.799 459.59 113.55 427.21 113.55Z" stroke="#00454A" stroke-width="13.96" stroke-miterlimit="10"/>
<path d="M336.53 300.02C336.53 300.02 340.03 276.91 336.26 258.84C336.26 258.84 344.81 255.75 349.68 261.36C349.68 261.36 348.04 286.59 336.54 300.02H336.53Z" fill="#B76E51"/>
<path d="M336.53 303.3C336.07 303.3 335.6 303.2 335.17 303C333.84 302.39 333.07 300.97 333.29 299.52C333.32 299.29 336.65 276.76 333.05 259.51C332.72 257.91 333.61 256.31 335.15 255.75C335.59 255.59 345.89 251.97 352.16 259.2C352.73 259.85 353.01 260.7 352.96 261.57C352.89 262.64 351.11 288.05 339.04 302.15C338.4 302.9 337.48 303.3 336.54 303.3H336.53ZM340.06 261.36C341.37 269.43 341.46 278.06 341.16 285.15C344.63 275.95 345.89 266.28 346.26 262.64C344.38 261.23 341.91 261.15 340.06 261.36Z" fill="#000072"/>
<path d="M341.56 296.57C340.93 296.31 340.28 296.03 339.63 295.75C338.94 295.44 348.98 268.51 382.68 281.12C383.27 281.32 383.88 281.56 384.49 281.82C384.49 281.82 378.39 311.62 341.56 296.57Z" fill="#2FD384"/>
<g opacity="0.15">
<path d="M341.56 296.57C343.58 292.58 345.72 289.15 345.72 289.15C345.72 289.15 366.09 302.51 382.68 281.12C383.27 281.32 383.88 281.56 384.49 281.82C384.49 281.82 378.39 311.62 341.56 296.57Z" fill="#000072"/>
</g>
<g opacity="0.6">
<path d="M362.63 283.57C367.99 285.01 372.47 284.84 375.11 284.51C376.08 284.39 375.89 283.42 374.86 283.14C368.64 281.46 364.27 282.29 362.4 282.85C361.98 282.98 362.13 283.44 362.63 283.58V283.57Z" fill="white"/>
</g>
<path d="M337.71 293.09C346.58 287.8 356.83 284.94 367.08 285.14C358.02 288.36 349.09 292.68 341.48 298.48C337.84 301.15 333.95 295.6 337.71 293.1V293.09Z" fill="#000072"/>
<path d="M360.31 304.1C353.8 304.1 346.45 302.32 338.32 298.76C336.21 297.83 335.8 295.78 337.12 292.67C341.63 282.01 356.93 267.09 385.73 278.78C387.2 279.37 388.03 280.93 387.71 282.48C387.61 282.99 385 295.16 373.63 301.05C369.69 303.09 365.24 304.11 360.32 304.11L360.31 304.1ZM343.78 293.92C354.85 298.27 363.86 298.7 370.6 295.21C376.38 292.21 379.2 286.95 380.43 283.78C369.99 280.09 361.09 280.1 353.94 283.82C348.41 286.69 345.22 291.2 343.78 293.91V293.92Z" fill="#000072"/>
<path d="M381.85 480.53C370.52 524.16 331.02 542.3 278.18 528.14C225.35 513.98 200.21 478.53 212.2 435.08C213.29 431.13 214.52 427.39 215.86 423.85C222.23 406.9 230.98 394.48 238.38 386.13C247.75 375.57 255.33 363.57 260.87 350.57C269.5 330.3 279.76 316.72 290.03 307.64C311.9 288.33 343.55 290.51 363.23 308.35C369.81 314.31 375.05 322.02 378.15 331.25C382.51 344.25 384.61 361.14 381.96 383.01C380.26 397.04 380.82 411.23 383.66 425.05C386.36 438.27 387.81 457.61 381.85 480.52V480.53Z" fill="#27AA46"/>
<path d="M371.97 477.96C367.66 494.54 358.93 506.77 346.04 514.28C331.77 522.59 313.02 524.75 291.33 520.67C291.3 520.67 291.27 520.67 291.24 520.67C287.85 520.03 284.36 519.23 280.82 518.29C254.67 511.28 235.84 498.82 226.35 482.23C219.02 469.43 217.52 454.69 221.87 438.44L222.04 437.81C227.97 416.37 238.35 401.57 246.01 392.94C256.12 381.55 264.27 368.65 270.26 354.6C277.44 337.74 286.37 324.52 296.8 315.32C307.92 305.49 323.23 301.95 337.74 305.84C349.03 308.87 358.49 316.02 364.36 325.68C365.39 327.38 366.3 329.15 367.11 330.99C367.62 332.14 368.07 333.32 368.47 334.53C369.05 336.26 369.57 338.04 370.03 339.87C373.14 351.94 373.72 366.01 371.81 381.82C369.97 396.98 370.58 412.23 373.64 427.15C373.76 427.76 373.88 428.38 374 429.01C374 429.02 374 429.04 374 429.06C376.11 440.43 377.24 457.63 371.95 477.99L371.97 477.96Z" fill="#FFFDA4"/>
<g opacity="0.15">
<path d="M370.88 472.27C361.54 508.2 331.91 525.76 291.34 520.66C291.31 520.66 291.28 520.66 291.25 520.66C285.48 519.93 279.49 518.75 273.31 517.09C236.69 507.28 214.22 486.62 209.4 460.07C208.9 452.13 209.81 443.76 212.21 435.08C213.3 431.13 214.53 427.39 215.87 423.85C217.34 428.44 219.33 433.42 221.89 438.43C228.08 450.56 237.64 462.94 251.48 470.82C257.42 484.98 269.61 496.36 285.56 500.63C312.95 507.97 341.19 491.67 348.52 464.29C351.05 454.85 350.77 445.3 348.19 436.54C364.77 401.22 365.52 352.52 364.38 325.66C364.38 325.28 364.36 324.9 364.34 324.52C365.39 326.57 366.33 328.72 367.13 330.98C367.22 331.25 367.32 331.51 367.41 331.78C368.27 334.34 369.18 337.03 370.05 339.86C373.16 351.93 373.74 366 371.83 381.81C369.99 396.97 370.6 412.22 373.66 427.14C373.78 427.75 373.9 428.37 374.02 429C374.02 429.01 374.02 429.03 374.02 429.05C375.38 440.65 375.25 455.46 370.88 472.29V472.27Z" fill="#000072"/>
</g>
<g opacity="0.8">
<path d="M281.22 355.37C284.59 342.75 294.38 319.33 321.45 311.91C325.63 310.77 328.34 316.22 324.89 318.82C313.42 327.48 296.65 341.4 284.43 356.95C283.2 358.51 280.71 357.28 281.22 355.36V355.37Z" fill="white"/>
</g>
<path d="M311.63 536.16C300.92 536.16 289.43 534.55 277.34 531.31C247.64 523.35 225.96 508.69 214.65 488.91C205.51 472.94 203.58 454.02 209.05 434.2C215.66 410.26 227.32 393.66 235.93 383.96C245.06 373.67 252.44 362 257.86 349.29C265.84 330.57 275.94 315.73 287.88 305.18C302.41 292.35 322.36 287.71 341.26 292.78C360.16 297.84 375.12 311.84 381.29 330.21C386.36 345.31 387.69 363.22 385.23 383.42C383.56 397.14 384.12 410.93 386.88 424.41C389.49 437.12 391.28 457.32 385.04 481.36C379.87 501.27 368.73 516.69 352.84 525.95C341.17 532.75 327.24 536.17 311.64 536.17L311.63 536.16ZM279.04 524.96C307.01 532.45 331.38 530.83 349.53 520.26C363.88 511.9 373.96 497.87 378.68 479.7C384.61 456.88 382.91 437.75 380.45 425.72C377.54 411.54 376.96 397.04 378.71 382.62C381.04 363.4 379.82 346.46 375.06 332.29C369.6 316.01 356.32 303.61 339.56 299.12C322.8 294.63 305.1 298.73 292.23 310.1C281.03 319.99 271.5 334.04 263.91 351.86C258.22 365.23 250.46 377.49 240.85 388.31C232.7 397.5 221.67 413.22 215.39 435.94C210.39 454.04 212.11 471.23 220.36 485.64C230.79 503.87 251.09 517.46 279.05 524.96H279.04Z" fill="#000072"/>
<path d="M298.86 493.62C322.415 493.62 341.51 474.525 341.51 450.97C341.51 427.415 322.415 408.32 298.86 408.32C275.305 408.32 256.21 427.415 256.21 450.97C256.21 474.525 275.305 493.62 298.86 493.62Z" fill="#A5613F"/>
<g opacity="0.15">
<path d="M332.55 461.41C326.96 482.27 305.51 494.65 284.67 489.07C275.75 486.68 268.36 481.38 263.3 474.46C258.56 467.3 256 458.73 256.24 449.85C261.2 456.04 268.1 460.78 276.35 462.99C296.93 468.5 318.08 456.28 323.59 435.72C324.42 432.61 324.84 429.47 324.9 426.37C332.7 435.79 335.97 448.72 332.57 461.42L332.55 461.41Z" fill="#000072"/>
</g>
<g opacity="0.5">
<path d="M269.79 437.22C273.83 422.01 292.71 412.61 307.22 418.76C308.28 419.19 308.79 420.4 308.36 421.46C308.07 422.19 307.42 422.63 306.7 422.75C301.58 423.79 297.25 424.58 292.57 426.22C288.09 427.91 284.01 429.93 279.79 432.46C276.97 434.16 274.11 436.04 271.02 438.01C270.47 438.46 269.6 437.91 269.79 437.23V437.22Z" fill="white"/>
</g>
<path d="M298.85 496.55C294.96 496.55 291 496.05 287.07 494.99C262.8 488.49 248.34 463.45 254.85 439.18C261.35 414.91 286.39 400.46 310.66 406.96C334.93 413.46 349.39 438.5 342.88 462.77C337.43 483.1 318.97 496.55 298.85 496.55ZM298.87 411.24C281.33 411.24 265.23 422.96 260.48 440.69C254.81 461.85 267.41 483.68 288.57 489.35C309.74 495.02 331.56 482.42 337.23 461.26C342.9 440.1 330.3 418.27 309.14 412.6C305.71 411.68 302.26 411.24 298.86 411.24H298.87Z" fill="#000072"/>
</svg>
