<svg width="596" height="791" viewBox="0 0 596 791" fill="none" xmlns="http://www.w3.org/2000/svg">
<path d="M427.21 113.55H168.07C135.69 113.55 109.44 139.8 109.44 172.18V618.69C109.44 651.07 135.69 677.32 168.07 677.32H427.21C459.59 677.32 485.84 651.07 485.84 618.69V172.18C485.84 139.8 459.59 113.55 427.21 113.55Z" fill="#91A4EA"/>
<mask id="mask0_31_270" style="mask-type:luminance" maskUnits="userSpaceOnUse" x="109" y="113" width="377" height="565">
<path d="M427.21 113.55H168.07C135.69 113.55 109.44 139.8 109.44 172.18V618.69C109.44 651.07 135.69 677.32 168.07 677.32H427.21C459.59 677.32 485.84 651.07 485.84 618.69V172.18C485.84 139.8 459.59 113.55 427.21 113.55Z" fill="white"/>
</mask>
<g mask="url(#mask0_31_270)">
<path d="M534.7 421.32C517.31 484.39 476.02 542.81 418.08 586.32C360.14 629.83 285.81 658.23 208.16 666.54C186.77 668.83 164.66 669.73 144.97 677.01C125.28 684.29 108.18 700.01 109.5 717.79C110.55 731.89 123.03 744.07 138.05 750.8C153.08 757.53 170.42 759.7 187.41 761.23C242.7 766.18 298.75 765.37 353.79 758.82C416.39 751.37 483.03 733.37 517.4 689.52C538.2 662.98 544.22 630.54 548.12 599.09C555.53 539.32 557.04 479.05 552.65 419.07" fill="#8396CC"/>
</g>
<path d="M427.21 113.55H168.07C135.69 113.55 109.44 139.8 109.44 172.18V618.69C109.44 651.07 135.69 677.32 168.07 677.32H427.21C459.59 677.32 485.84 651.07 485.84 618.69V172.18C485.84 139.8 459.59 113.55 427.21 113.55Z" stroke="#00454A" stroke-width="13.96" stroke-miterlimit="10"/>
<path d="M289.12 506.41C210.34 511.98 183.09 464.78 178.52 455.49C178 454.43 177.73 453.27 177.78 452.07C177.89 448.11 179.07 438.99 187.47 436.83C188.98 436.44 190.59 436.59 192.04 437.19C199.11 440.08 226.43 449.57 262.45 439.81C270.61 437.6 279.2 434.41 288.1 429.93C334.5 406.61 347.67 360.74 350.62 347.19C352.06 340.61 357.07 335.23 363.67 333.83C364.08 333.74 364.51 333.66 364.95 333.59C364.95 333.59 371.73 311.31 367.82 290.43C367.2 287.15 369.67 284.12 372.99 284.04C374.13 284.01 375.36 284.01 376.67 284.02C382.93 284.13 390.58 285 395.13 288.14C403.85 294.13 398.32 302.1 398.32 302.1L392.7 331.81C392.7 331.81 393.55 332.06 394.94 332.77C400.64 335.63 415.4 345.88 417.44 375.95C419.98 413.35 373.27 500.45 289.14 506.42L289.12 506.41Z" fill="#FFDB43"/>
<path d="M374.61 322.24C374.61 322.24 374.55 322.21 374.51 322.19C374.54 322.21 374.57 322.22 374.61 322.24Z" fill="#FFB339"/>
<path d="M374.51 322.19C374.35 322.11 374.23 322.05 374.19 322.03C374.24 322.06 374.38 322.13 374.51 322.19Z" fill="#FFB339"/>
<path d="M374.73 322.31C374.68 322.28 374.65 322.27 374.61 322.25C374.68 322.29 374.73 322.31 374.73 322.31Z" fill="#FFB339"/>
<path d="M284.81 497.23C217.61 501.98 187.9 468.33 177.79 452.57C177.77 452.41 177.77 452.24 177.77 452.07C177.82 450.29 178.1 447.46 179.14 444.7C189.27 459.83 217.11 489.46 278.15 485.15C356.62 479.58 400 398.38 397.81 363.47C396.47 342.22 381.15 338.43 381.15 338.43V338.4C387.03 338.12 391.77 335.32 394.92 332.77C398.09 334.36 404.1 338.26 409.13 346.62C411.1 352.06 412.55 358.7 413.11 366.77C415.65 404.17 368.94 491.27 284.81 497.24V497.23Z" fill="#FFB339"/>
<path d="M398.3 302.1L392.68 331.81C392.68 331.81 393.53 332.06 394.92 332.77C391.76 335.33 387.03 338.12 381.15 338.4C380.5 338.45 379.84 338.45 379.18 338.42C367.1 337.87 364.93 333.59 364.93 333.59C364.93 333.59 371.71 311.31 367.8 290.43C367.18 287.15 369.65 284.12 372.97 284.04C374.99 283.99 377.32 284.01 379.75 284.15C381.14 284.23 382.54 284.36 383.95 284.54C384.64 284.63 385.34 284.75 386.03 284.86C386.69 284.99 387.34 285.11 387.97 285.27C388.95 285.49 389.91 285.76 390.81 286.06C391.17 286.19 391.52 286.31 391.87 286.45C391.95 286.48 392.04 286.51 392.14 286.56C392.47 286.69 392.79 286.83 393.1 286.99C393.43 287.15 393.75 287.32 394.06 287.49C394.42 287.7 394.77 287.92 395.1 288.14C395.73 288.58 396.3 289.02 396.79 289.5C396.98 289.66 397.14 289.82 397.29 289.99C397.45 290.15 397.61 290.32 397.75 290.48C398.19 290.98 398.55 291.49 398.84 291.99C398.93 292.15 399.03 292.32 399.11 292.49C399.22 292.69 399.3 292.9 399.39 293.09C399.44 293.22 399.48 293.36 399.53 293.48C401.12 298.01 398.28 302.09 398.28 302.09L398.3 302.1Z" fill="#2DD370"/>
<path d="M398.3 302.1L392.68 331.81C392.68 331.81 393.53 332.06 394.92 332.77C391.76 335.33 387.03 338.12 381.15 338.4L388.47 296.67C388.47 296.67 383.71 289.21 379.76 284.14C381.13 284.22 382.55 284.35 383.96 284.53C384.65 284.62 385.35 284.74 386.04 284.85C386.7 284.98 387.35 285.1 387.98 285.26C388.96 285.48 389.92 285.75 390.82 286.05C391.18 286.18 391.53 286.3 391.88 286.44C391.96 286.47 392.05 286.5 392.15 286.55C392.48 286.68 392.8 286.82 393.11 286.98C393.44 287.14 393.76 287.31 394.07 287.48C394.43 287.69 394.78 287.91 395.11 288.13C395.74 288.57 396.31 289.01 396.8 289.49C396.99 289.65 397.15 289.81 397.3 289.98C397.46 290.14 397.62 290.31 397.76 290.47C398.2 290.97 398.56 291.48 398.85 291.98C398.94 292.14 399.04 292.31 399.12 292.48C399.23 292.68 399.31 292.89 399.4 293.08C399.45 293.21 399.49 293.35 399.54 293.47C401.13 298 398.29 302.08 398.29 302.08L398.3 302.1Z" fill="#1D995B"/>
<g opacity="0.6">
<path d="M373.06 337.7C362.58 338.66 359.51 348.11 359.51 348.11C321.83 475.47 215.91 443.18 215.91 443.18C254.64 447.26 279.2 434.41 288.09 429.93C334.49 406.61 347.66 360.74 350.61 347.19C352.05 340.61 357.06 335.23 363.66 333.83C364.07 333.74 364.5 333.66 364.94 333.59C364.94 333.59 371.72 311.31 367.81 290.43C367.19 287.15 369.66 284.12 372.98 284.04C374.12 284.01 375.35 284.01 376.66 284.02C381.09 307.42 373.06 337.71 373.06 337.71V337.7Z" fill="white"/>
</g>
<g opacity="0.35">
<path d="M328.75 416.94C342.9 400.86 356.09 383.74 362.2 363.01C362.63 361.6 363.07 360.17 363.61 358.72C363.8 358.14 364.73 358.24 364.78 358.85C367.45 377.31 358.13 395.84 344.66 408.04C340.11 412.09 335.11 415.63 329.41 417.94C328.83 418.19 328.28 417.4 328.75 416.95V416.94Z" fill="white"/>
</g>
<path d="M186.72 444.25C212.3 465.42 249.19 467.76 281.06 464.7C319.86 460.34 349.5 430.11 369.66 398.63L373.55 392.55C374.55 391.05 376.26 387.87 377.59 386.59C376.21 388.04 375.02 391.04 373.95 392.79L370.45 399.11C353.64 428.26 329.04 455.12 295.86 465.12C277.07 470.35 257.14 470.54 237.81 468.66C223.26 467.01 208.74 463.12 195.77 456.1C191.41 453.67 187.32 451.12 183.41 447.48C182.48 446.61 182.43 445.15 183.29 444.22C184.22 443.22 185.79 443.26 186.71 444.25H186.72Z" fill="#FFB339"/>
<path d="M370.31 284.82C370.31 284.82 366.4 293.72 375.39 297.23C384.39 300.74 384.11 297.79 390.01 300.32C393.42 301.78 395.07 307.31 398.3 302.1C403.36 293.94 398.16 286.1 381.43 284C364.7 281.9 370.3 284.81 370.3 284.81L370.31 284.82Z" fill="#000072"/>
<path d="M392.45 294.26L383.05 327.6L387.11 293.29C387.57 289.4 393.39 290.46 392.45 294.27V294.26Z" fill="#000072"/>
<path d="M177.93 456.5C177.93 456.5 186.1 459.18 191.25 454.72C197.01 449.73 202.12 441.24 191.14 437.69C180.15 434.14 176.3 452.43 177.93 456.5Z" fill="#000072"/>
<path d="M276.45 510.41C205.39 510.41 179.9 466.35 175.33 457.06C174.54 455.46 174.17 453.74 174.22 451.97C174.51 442.11 179.01 435.34 186.58 433.39C188.83 432.81 191.18 432.99 193.39 433.9C200.64 436.88 239.18 450.54 286.5 426.76C331.46 404.17 344.29 359.57 347.15 346.43C348.85 338.61 354.67 332.46 362.09 330.54C363.57 324.72 367.36 307.3 364.31 291.08C363.82 288.49 364.5 285.83 366.15 283.79C367.81 281.75 370.26 280.54 372.9 280.48C380.57 280.3 390.97 280.97 397.13 285.21C400.64 287.62 402.74 290.63 403.38 294.15C404.15 298.36 402.52 301.9 401.67 303.4L396.7 329.68C403.35 333.06 418.84 344.24 420.97 375.71C423.54 413.68 376.49 503.78 289.38 509.95C284.91 510.27 280.61 510.42 276.46 510.42L276.45 510.41ZM189.19 440.16C188.9 440.16 188.61 440.19 188.34 440.26C182.48 441.76 181.42 448.37 181.31 452.17C181.29 452.78 181.42 453.37 181.7 453.92C186.19 463.04 212.45 508.28 288.87 502.86C324.57 500.33 358 481.82 383 450.74C405.77 422.44 414.96 392.26 413.88 376.19C411.56 341.98 392.44 335.46 391.62 335.2C389.91 334.65 388.86 332.91 389.19 331.15L394.81 301.44C394.9 300.95 395.1 300.49 395.38 300.08C396.16 298.9 398.36 294.69 393.1 291.06C389.51 288.59 382.41 287.34 373.06 287.58C372.31 287.6 371.86 288.02 371.66 288.26C371.46 288.51 371.14 289.04 371.28 289.77C375.31 311.25 368.61 333.67 368.33 334.62C367.93 335.93 366.82 336.89 365.46 337.1C365.09 337.16 364.73 337.22 364.38 337.29C359.29 338.37 355.25 342.55 354.07 347.94C351.04 361.85 337.44 409.09 289.67 433.1C239.59 458.27 198.42 443.65 190.67 440.46C190.18 440.26 189.67 440.16 189.17 440.16H189.19Z" fill="#000072"/>
</svg>
