<svg width="596" height="791" viewBox="0 0 596 791" fill="none" xmlns="http://www.w3.org/2000/svg">
<path d="M427.21 113.55H168.07C135.69 113.55 109.44 139.799 109.44 172.18V618.69C109.44 651.07 135.69 677.32 168.07 677.32H427.21C459.59 677.32 485.84 651.07 485.84 618.69V172.18C485.84 139.799 459.59 113.55 427.21 113.55Z" fill="#91A4EA"/>
<mask id="mask0_31_2" style="mask-type:luminance" maskUnits="userSpaceOnUse" x="109" y="113" width="377" height="565">
<path d="M427.21 113.55H168.07C135.69 113.55 109.44 139.799 109.44 172.18V618.69C109.44 651.07 135.69 677.32 168.07 677.32H427.21C459.59 677.32 485.84 651.07 485.84 618.69V172.18C485.84 139.799 459.59 113.55 427.21 113.55Z" fill="white"/>
</mask>
<g mask="url(#mask0_31_2)">
<path d="M534.7 421.32C517.31 484.39 476.02 542.81 418.08 586.32C360.14 629.83 285.81 658.23 208.16 666.54C186.77 668.83 164.66 669.73 144.97 677.01C125.28 684.29 108.18 700.01 109.5 717.79C110.55 731.89 123.03 744.07 138.05 750.8C153.08 757.53 170.42 759.7 187.41 761.23C242.7 766.18 298.75 765.37 353.79 758.82C416.39 751.37 483.03 733.37 517.4 689.52C538.2 662.98 544.22 630.54 548.12 599.09C555.53 539.32 557.04 479.05 552.65 419.07" fill="#8396CC"/>
</g>
<path d="M427.21 113.55H168.07C135.69 113.55 109.44 139.799 109.44 172.18V618.69C109.44 651.07 135.69 677.32 168.07 677.32H427.21C459.59 677.32 485.84 651.07 485.84 618.69V172.18C485.84 139.799 459.59 113.55 427.21 113.55Z" stroke="#00454A" stroke-width="13.96" stroke-miterlimit="10"/>
<path d="M347.46 544.51C381.078 544.51 408.33 517.258 408.33 483.64C408.33 450.022 381.078 422.77 347.46 422.77C313.842 422.77 286.59 450.022 286.59 483.64C286.59 517.258 313.842 544.51 347.46 544.51Z" fill="#FF395A"/>
<g opacity="0.15">
<path d="M401.73 486.68C395.3 519.67 363.32 541.21 330.33 534.77C315.12 531.8 302.35 523.41 293.62 511.98C289.94 505.01 287.6 497.3 286.86 489.26C294.92 498.53 306.02 505.29 319.02 507.83C350.05 513.88 380.09 493.62 386.14 462.62C387.95 453.34 387.4 444.16 384.92 435.66C389.09 438.92 392.78 442.7 395.95 446.88C402.13 458.68 404.47 472.58 401.73 486.67V486.68Z" fill="#000072"/>
</g>
<g opacity="0.6">
<path d="M324.02 459.92C316.32 466.49 311.23 475.37 306.61 475.57C301.9 476.2 300.06 460.74 313.47 448.37C327 436.13 342.23 439.37 341.18 444C340.57 448.59 331.26 452.84 324.02 459.92Z" fill="white"/>
</g>
<path d="M347.6 548.23C343.45 548.23 339.27 547.83 335.11 547.02C318.18 543.72 303.55 534.02 293.92 519.72C284.28 505.42 280.8 488.22 284.1 471.29C290.91 436.35 324.88 413.47 359.83 420.28C394.77 427.09 417.66 461.07 410.84 496.01C407.54 512.94 397.84 527.57 383.54 537.2C372.76 544.46 360.32 548.24 347.6 548.24V548.23ZM347.34 426.45C336.08 426.45 325.07 429.79 315.52 436.22C302.85 444.75 294.27 457.71 291.34 472.7C288.42 487.69 291.51 502.92 300.04 515.59C308.57 528.26 321.53 536.84 336.52 539.76C367.47 545.79 397.55 525.53 403.58 494.59C409.61 463.65 389.35 433.56 358.4 427.53C354.71 426.81 351.01 426.46 347.34 426.46V426.45Z" fill="#000072"/>
<path d="M290.876 514.811C314.647 491.04 314.647 452.499 290.876 428.728C267.104 404.957 228.564 404.957 204.792 428.728C181.021 452.499 181.021 491.04 204.792 514.811C228.564 538.582 267.104 538.582 290.876 514.811Z" fill="#FF395A"/>
<g opacity="0.15">
<path d="M302.09 474.8C295.66 507.79 263.68 529.33 230.69 522.89C215.48 519.92 202.71 511.53 193.98 500.1C190.3 493.13 187.96 485.42 187.22 477.38C195.28 486.65 206.38 493.41 219.38 495.95C250.41 502 280.45 481.74 286.5 450.74C288.31 441.46 287.76 432.28 285.28 423.78C289.45 427.04 293.14 430.82 296.31 435C302.49 446.8 304.83 460.7 302.09 474.79V474.8Z" fill="#000072"/>
</g>
<g opacity="0.6">
<path d="M224.38 448.04C216.68 454.61 211.59 463.49 206.97 463.69C202.26 464.32 200.42 448.86 213.83 436.49C227.36 424.25 242.59 427.49 241.54 432.12C240.93 436.71 231.62 440.96 224.38 448.04Z" fill="white"/>
</g>
<path d="M247.96 536.35C243.81 536.35 239.63 535.95 235.47 535.14C218.54 531.84 203.91 522.14 194.28 507.84C184.64 493.54 181.16 476.34 184.46 459.41C187.76 442.48 197.46 427.85 211.76 418.22C226.07 408.59 243.27 405.1 260.19 408.4C295.13 415.21 318.01 449.19 311.2 484.13C307.9 501.06 298.2 515.69 283.9 525.32C273.12 532.58 260.68 536.36 247.96 536.36V536.35ZM247.71 414.57C236.45 414.57 225.44 417.91 215.89 424.34C203.22 432.87 194.64 445.83 191.72 460.82C188.8 475.81 191.89 491.04 200.42 503.71C208.95 516.38 221.91 524.96 236.9 527.88C251.89 530.8 267.12 527.72 279.79 519.18C292.46 510.65 301.04 497.69 303.96 482.7C309.99 451.76 289.73 421.67 258.79 415.64C255.1 414.92 251.4 414.57 247.73 414.57H247.71Z" fill="#000072"/>
<path d="M226.41 283.54C226.41 283.54 286.39 336.76 351.4 282.66C352.1 282.08 352.8 281.5 353.49 280.89C353.59 280.81 353.68 280.73 353.78 280.65C353.81 280.63 353.83 280.6 353.86 280.58C353.86 280.58 353.85 280.56 353.83 280.52C353.72 280.33 353.38 279.72 352.75 278.77L352.73 278.73C348.26 271.91 330.34 248.48 294.03 246.28C280.74 245.47 269.17 248.81 259.53 253.78C259.53 253.78 259.53 253.79 259.51 253.78C257.98 254.57 256.52 255.4 255.09 256.25C236.64 267.32 226.43 283.54 226.43 283.54H226.41Z" fill="#2FDD54"/>
<g opacity="0.2">
<path d="M226.41 283.54C226.41 283.54 287.68 337.91 353.49 280.89L352.74 278.77L352.72 278.73C351.5 279.41 304.63 306.42 240.55 280.84C240.55 280.84 242.8 267.34 259.5 253.78C238.26 264.71 226.42 283.53 226.42 283.53L226.41 283.54Z" fill="#000072"/>
</g>
<g opacity="0.45">
<path d="M255.07 256.26C255.84 256.03 256.63 255.79 257.43 255.54C311.07 238.86 345.13 275.23 351.4 282.67C352.09 283.48 352.45 283.96 352.45 283.96C352.45 283.96 352.97 282.69 353.78 280.66L353.82 280.53C353.71 280.34 353.37 279.73 352.74 278.78L352.72 278.74C348.25 271.92 330.33 248.49 294.02 246.29C280.73 245.48 269.16 248.82 259.52 253.79C259.52 253.79 259.52 253.8 259.5 253.79C257.97 254.58 256.51 255.41 255.08 256.26H255.07Z" fill="white"/>
</g>
<path d="M352.4 283.79C322.05 271.25 287.66 268.97 255.64 276.2C254.69 276.45 254.16 274.97 255.16 274.63C271.03 268.6 288.25 266.27 305.2 267.01C322.42 267.64 339.17 270.87 355.31 277.37C357.11 278.11 357.98 280.16 357.24 281.96C356.47 283.86 354.23 284.69 352.4 283.79Z" fill="#000072"/>
<g opacity="0.7">
<path d="M281.13 257.17C297.35 251.19 310.67 256.16 318.51 260.87C319.98 261.75 319.02 264.53 317.39 264.13C302.85 260.56 289.62 260.25 281.35 260.58C279.68 260.65 279.51 257.77 281.13 257.17Z" fill="white"/>
</g>
<path d="M289.76 310.32C251.94 310.32 224.48 286.55 224.07 286.18C222.78 285.04 222.51 283.12 223.43 281.67C224.5 279.97 250.09 240.07 294.24 242.77C338.22 245.43 356.22 277.53 356.97 278.89C357.76 280.34 357.44 282.15 356.19 283.24C332.8 303.64 309.83 310.33 289.77 310.33L289.76 310.32ZM231.17 282.89C242.86 291.99 293.8 326.13 349.27 279.86C344.39 272.65 327.5 251.84 293.81 249.8C260.02 247.75 237.46 274.42 231.18 282.89H231.17Z" fill="#000072"/>
<path d="M356.01 437.48C352.39 437.68 349.29 434.9 349.09 431.28C346.26 378.36 349.28 323.58 351.08 298.31C291.11 345.45 260.44 423.74 260.12 424.58C258.96 427.6 255.81 429.28 252.73 428.68C252.36 428.61 252 428.49 251.62 428.35C250.81 428.04 250.1 427.58 249.5 427.02C248.02 425.66 247.26 423.67 247.45 421.65C247.48 421.05 247.61 420.46 247.85 419.87C249.28 416.13 283.47 328.76 353.05 280.53C354.85 276.62 356.23 271.76 355.95 266.34C355.88 264.92 356.92 263.68 358.34 263.54C359.09 263.45 359.99 263.39 360.98 263.39C362.44 263.39 364.1 263.5 365.88 263.83C367.35 264.1 368.33 265.5 368.06 266.97C367.38 270.55 366.15 277.55 365.29 284.88C365.29 285 365.29 285.1 365.28 285.2C365.26 285.36 364.92 289.28 364.41 296.02C364.41 296.37 364.39 296.74 364.39 297.07H364.34C362.6 320.85 359.31 376.72 362.21 430.59C362.41 434.21 359.63 437.3 356.01 437.5V437.48Z" fill="#23B55E"/>
<g opacity="0.6">
<path d="M355.87 287.87C295.1 323.23 249.51 427.02 249.51 427.02C249.51 427.02 248.7 424.97 247.46 421.65C247.49 421.05 247.62 420.46 247.86 419.87C249.29 416.13 283.48 328.76 353.06 280.53C354.86 276.62 356.24 271.76 355.96 266.34C355.89 264.92 356.93 263.68 358.35 263.54C359.1 263.45 360 263.39 360.99 263.39C362.85 269.71 360.19 279.74 358.77 284.29C358.3 285.81 357.25 287.06 355.88 287.86L355.87 287.87Z" fill="white"/>
</g>
<path d="M355.63 440.78C353.21 440.78 350.91 439.9 349.09 438.27C347.13 436.51 345.97 434.09 345.82 431.46C343.25 383.63 345.41 334.61 347.29 305.65C291.88 352.55 263.48 425.02 263.19 425.77C261.47 430.24 256.81 432.82 252.12 431.9C251.57 431.79 251.02 431.64 250.47 431.43C245.39 429.48 242.85 423.77 244.8 418.7C246.23 414.98 280.52 327.28 350.43 278.36C352.14 274.39 352.89 270.42 352.69 266.52C352.52 263.35 354.86 260.6 358.02 260.27C359.99 260.06 363.06 259.95 366.49 260.59C368.08 260.89 369.46 261.78 370.36 263.11C371.26 264.42 371.59 266.01 371.3 267.57C370.65 271.02 369.43 277.87 368.58 285.09C368.58 285.22 368.58 285.35 368.56 285.5C368.53 285.76 368.18 289.64 367.69 296.27L367.67 297.13C367.67 297.38 367.63 297.62 367.58 297.86C365.95 320.19 362.61 376.58 365.5 430.41C365.64 433.04 364.75 435.56 362.99 437.52C361.23 439.48 358.82 440.64 356.19 440.78C356 440.78 355.82 440.8 355.63 440.8V440.78ZM351.08 295.03C351.61 295.03 352.13 295.16 352.62 295.41C353.77 296.02 354.45 297.25 354.36 298.54C352.42 325.75 349.59 379.15 352.38 431.1C352.43 431.98 352.81 432.78 353.47 433.37C354.12 433.95 354.96 434.25 355.83 434.2C356.71 434.15 357.52 433.77 358.1 433.11C358.69 432.46 358.98 431.62 358.94 430.74C356 376.07 359.45 318.86 361.07 296.8C361.07 296.67 361.1 296.54 361.12 296.4L361.14 295.9C361.65 289.06 362 285.15 362.03 284.89V284.73C362.03 284.65 362.03 284.57 362.05 284.48C362.88 277.4 364.05 270.66 364.74 266.94C362.61 266.6 360.68 266.62 359.28 266.74C359.45 271.79 358.36 276.89 356.05 281.9C355.8 282.43 355.42 282.89 354.94 283.22C286.16 330.89 252.35 417.38 250.94 421.04C250.29 422.73 251.14 424.63 252.83 425.28C253.01 425.35 253.19 425.4 253.38 425.44C254.94 425.75 256.5 424.89 257.07 423.39C257.38 422.6 288.35 343.45 349.06 295.71C349.65 295.25 350.37 295.01 351.09 295.01L351.08 295.03Z" fill="#000072"/>
</svg>
