<svg width="375" height="667" viewBox="0 0 375 667" fill="none" xmlns="http://www.w3.org/2000/svg">
<g clip-path="url(#clip0_22_2)">
<rect width="375" height="667" fill="white"/>
<rect x="-13" y="-2" width="457" height="347" fill="#4D8FC9"/>
<rect x="308" y="262" width="16" height="52" fill="#5C4033"/>
<path d="M263.5 271L284.718 317.5H242.282L263.5 271Z" fill="#5C4033"/>
<rect x="188" y="314" width="154" height="47" fill="#5C4033"/>
<path d="M170.48 66.105V66.605H170.98C179.133 66.605 185.812 73.2834 185.812 81.441C185.812 89.6025 179.133 96.281 170.98 96.281H112.332C104.179 96.281 97.5 89.6027 97.5 81.441C97.5 73.2835 104.179 66.605 112.332 66.605H112.832V66.105C112.832 54.1701 122.503 44.5 134.434 44.5C143.138 44.5 150.637 49.6455 154.066 57.0648L154.302 57.5747L154.781 57.2815C156.345 56.3243 158.181 55.773 160.153 55.773C165.857 55.773 170.48 60.3967 170.48 66.105Z" fill="#D9D9D9" stroke="black"/>
<path d="M95.48 61.105V61.605H95.98C104.133 61.605 110.812 68.2834 110.812 76.441C110.812 84.6025 104.133 91.281 95.98 91.281H37.332C29.1786 91.281 22.5 84.6027 22.5 76.441C22.5 68.2835 29.1785 61.605 37.332 61.605H37.832V61.105C37.832 49.1701 47.5027 39.5 59.434 39.5C68.1379 39.5 75.6368 44.6455 79.0661 52.0648L79.3018 52.5747L79.781 52.2815C81.3453 51.3243 83.1811 50.773 85.1528 50.773C90.857 50.773 95.48 55.3967 95.48 61.105Z" fill="#F0F0F0" stroke="black"/>
<path d="M171.48 108.105V108.605H171.98C180.133 108.605 186.812 115.283 186.812 123.441C186.812 131.603 180.133 138.281 171.98 138.281H113.332C105.179 138.281 98.5 131.603 98.5 123.441C98.5 115.283 105.179 108.605 113.332 108.605H113.832V108.105C113.832 96.1701 123.503 86.5 135.434 86.5C144.138 86.5 151.637 91.6455 155.066 99.0648L155.302 99.5747L155.781 99.2815C157.345 98.3243 159.181 97.773 161.153 97.773C166.857 97.773 171.48 102.397 171.48 108.105Z" fill="#C6C6C6" stroke="black"/>
<path d="M126.48 87.105V87.605H126.98C135.133 87.605 141.812 94.2834 141.812 102.441C141.812 110.603 135.133 117.281 126.98 117.281H68.332C60.1786 117.281 53.5 110.603 53.5 102.441C53.5 94.2835 60.1785 87.605 68.332 87.605H68.832V87.105C68.832 75.1701 78.5027 65.5 90.434 65.5C99.1379 65.5 106.637 70.6455 110.066 78.0648L110.302 78.5747L110.781 78.2815C112.345 77.3243 114.181 76.773 116.153 76.773C121.857 76.773 126.48 81.3967 126.48 87.105Z" fill="#F0F0F0" stroke="black"/>
<path d="M99.48 102.105V102.605H99.98C108.133 102.605 114.812 109.283 114.812 117.441C114.812 125.603 108.133 132.281 99.98 132.281H41.332C33.1786 132.281 26.5 125.603 26.5 117.441C26.5 109.283 33.1785 102.605 41.332 102.605H41.832V102.105C41.832 90.1701 51.5027 80.5 63.434 80.5C72.1379 80.5 79.6368 85.6455 83.0661 93.0648L83.3018 93.5747L83.781 93.2815C85.3453 92.3243 87.1811 91.773 89.1528 91.773C94.857 91.773 99.48 96.3967 99.48 102.105Z" fill="#D9D9D9" stroke="black"/>
<rect x="334" y="338" width="82" height="20" fill="#5C4033"/>
<rect x="60" y="46" width="59" height="60" fill="#A23E48"/>
<path d="M89.5 61L184.33 195.25H-5.32978L89.5 61Z" fill="#A23E48"/>
<rect y="191" width="185" height="484" fill="#A23E48"/>
<rect x="342" y="361" width="54" height="349" fill="#6B8E23"/>
<rect x="185" y="358" width="157" height="311" fill="#6C6F74"/>
<path d="M92.3164 245.385H108.613C109.069 245.385 109.445 245.009 109.445 244.514V226.89C109.445 226.415 109.069 226.019 108.613 226.019H92.3164C91.861 226.019 91.4847 226.395 91.4847 226.89V244.514C91.4847 244.989 91.861 245.385 92.3164 245.385Z" fill="black"/>
<path d="M92.3164 266.851H108.613C109.069 266.851 109.445 266.474 109.445 265.979V248.356C109.445 247.88 109.069 247.484 108.613 247.484H92.3164C91.861 247.484 91.4847 247.861 91.4847 248.356V265.979C91.4847 266.474 91.861 266.851 92.3164 266.851Z" fill="black"/>
<path d="M119.98 153.94C116.158 157.881 116.158 164.277 119.98 168.217C121.821 170.118 124.297 171.168 126.91 171.168C129.524 171.168 131.98 170.118 133.841 168.217C135.683 166.316 136.712 163.782 136.712 161.089C136.712 158.396 135.702 155.861 133.841 153.96C130.019 150.019 123.801 150 119.98 153.94ZM130.138 158.198V164.514H124.019V158.198H130.138Z" fill="black"/>
<path d="M87.3857 126.475C89.9005 126.475 92.3956 125.485 94.3164 123.524C98.1381 119.584 98.1381 113.188 94.3164 109.247C90.4946 105.307 84.2768 105.307 80.455 109.247C78.6134 111.148 77.5837 113.683 77.5837 116.376C77.5837 119.069 78.5936 121.604 80.455 123.504C82.3758 125.504 84.8906 126.475 87.3857 126.475ZM84.158 119.821V113.505H90.2768V119.821H84.158Z" fill="black"/>
<path d="M51.1086 171.168C53.7225 171.168 56.1779 170.118 58.0393 168.217C61.8611 164.277 61.8611 157.881 58.0393 153.94C54.2175 150 47.9997 150 44.178 153.94C40.3562 157.881 40.3562 164.277 44.178 168.217C46.0394 170.118 48.4948 171.168 51.1086 171.168ZM47.8809 164.514V158.198H53.9997V164.514H47.8809Z" fill="black"/>
<path d="M159.861 522.652H151.029C150.574 522.652 150.198 523.028 150.198 523.523V537.226C150.198 537.662 150.514 537.998 150.91 538.058C150.514 538.117 150.198 538.473 150.198 538.889V552.592C150.198 553.028 150.514 553.364 150.91 553.424C150.514 553.483 150.198 553.84 150.198 554.256V567.958C150.198 568.394 150.514 568.731 150.91 568.79C150.514 568.85 150.198 569.206 150.198 569.622V583.325C150.198 583.76 150.514 584.097 150.91 584.156C150.514 584.216 150.198 584.572 150.198 584.988V598.691C150.198 599.166 150.574 599.562 151.029 599.562H159.861C160.316 599.562 160.693 599.186 160.693 598.691V584.988C160.693 584.552 160.376 584.216 159.98 584.156C160.376 584.097 160.693 583.741 160.693 583.325V569.622C160.693 569.186 160.376 568.85 159.98 568.79C160.376 568.731 160.693 568.374 160.693 567.958V554.256C160.693 553.82 160.376 553.483 159.98 553.424C160.376 553.364 160.693 553.008 160.693 552.592V538.889C160.693 538.454 160.376 538.117 159.98 538.058C160.376 537.998 160.693 537.642 160.693 537.226V523.523C160.693 523.048 160.316 522.652 159.861 522.652ZM159.009 551.741H151.841V539.761H159.009V551.741ZM159.009 582.493H151.841V570.513H159.009V582.493Z" fill="black"/>
<path d="M38.4553 522.592H29.6237C29.1682 522.592 28.792 522.968 28.792 523.463V537.166C28.792 537.602 29.1088 537.939 29.5049 537.998C29.1088 538.058 28.792 538.414 28.792 538.83V552.533C28.792 552.968 29.1088 553.305 29.5049 553.364C29.1088 553.424 28.792 553.78 28.792 554.196V567.899C28.792 568.335 29.1088 568.671 29.5049 568.731C29.1088 568.79 28.792 569.146 28.792 569.562V583.265C28.792 583.701 29.1088 584.038 29.5049 584.097C29.1088 584.156 28.792 584.513 28.792 584.929V598.632C28.792 599.107 29.1682 599.503 29.6237 599.503H38.4553C38.9108 599.503 39.287 599.127 39.287 598.632V584.929C39.287 584.493 38.9702 584.156 38.5741 584.097C38.9702 584.038 39.287 583.681 39.287 583.265V569.562C39.287 569.127 38.9702 568.79 38.5741 568.731C38.9702 568.671 39.287 568.315 39.287 567.899V554.196C39.287 553.76 38.9702 553.424 38.5741 553.364C38.9702 553.305 39.287 552.949 39.287 552.533V538.83C39.287 538.394 38.9702 538.058 38.5741 537.998C38.9702 537.939 39.287 537.582 39.287 537.166V523.463C39.287 522.988 38.9108 522.592 38.4553 522.592ZM37.6038 551.681H30.4356V539.701H37.6038V551.681ZM37.6038 582.434H30.4356V570.453H37.6038V582.434Z" fill="black"/>
<path d="M67.2473 139.881V188.356C67.2473 188.831 67.6236 189.227 68.079 189.227H106.693C107.148 189.227 107.524 188.851 107.524 188.356V139.881C107.524 139.406 107.148 139.01 106.693 139.01H68.079C67.6236 139.01 67.2473 139.406 67.2473 139.881ZM103.881 142.772V185.445H70.8909V142.772H103.881Z" fill="black"/>
<path d="M27.6632 426.632H18.8316C18.3761 426.632 17.9999 427.009 17.9999 427.504V441.048C17.9999 441.523 18.3761 441.919 18.8316 441.919H27.6632C28.1187 441.919 28.4949 441.543 28.4949 441.048V427.504C28.5147 427.009 28.1385 426.632 27.6632 426.632Z" fill="black"/>
<path d="M39.1483 426.632H30.3167C29.8612 426.632 29.485 427.009 29.485 427.504V441.048C29.485 441.523 29.8612 441.919 30.3167 441.919H39.1483C39.6038 441.919 39.98 441.543 39.98 441.048V427.504C39.98 427.009 39.6038 426.632 39.1483 426.632Z" fill="black"/>
<path d="M27.6632 442.494H18.8316C18.3761 442.494 17.9999 442.87 17.9999 443.365V456.909C17.9999 457.385 18.3761 457.781 18.8316 457.781H27.6632C28.1187 457.781 28.4949 457.404 28.4949 456.909V443.365C28.5147 442.89 28.1385 442.494 27.6632 442.494Z" fill="black"/>
<path d="M39.1483 442.494H30.3167C29.8612 442.494 29.485 442.87 29.485 443.365V456.909C29.485 457.385 29.8612 457.781 30.3167 457.781H39.1483C39.6038 457.781 39.98 457.404 39.98 456.909V443.365C39.98 442.89 39.6038 442.494 39.1483 442.494Z" fill="black"/>
<path d="M27.6632 458.375H18.8316C18.3761 458.375 17.9999 458.751 17.9999 459.246V472.79C17.9999 473.266 18.3761 473.662 18.8316 473.662H27.6632C28.1187 473.662 28.4949 473.285 28.4949 472.79V459.246C28.5147 458.751 28.1385 458.375 27.6632 458.375Z" fill="black"/>
<path d="M39.1483 458.375H30.3167C29.8612 458.375 29.485 458.751 29.485 459.246V472.79C29.485 473.266 29.8612 473.662 30.3167 473.662H39.1483C39.6038 473.662 39.98 473.285 39.98 472.79V459.246C39.98 458.751 39.6038 458.375 39.1483 458.375Z" fill="black"/>
<path d="M27.6632 474.236H18.8316C18.3761 474.236 17.9999 474.612 17.9999 475.107V488.652C17.9999 489.127 18.3761 489.523 18.8316 489.523H27.6632C28.1187 489.523 28.4949 489.147 28.4949 488.652V475.107C28.5147 474.632 28.1385 474.236 27.6632 474.236Z" fill="black"/>
<path d="M39.1483 474.236H30.3167C29.8612 474.236 29.485 474.612 29.485 475.107V488.652C29.485 489.127 29.8612 489.523 30.3167 489.523H39.1483C39.6038 489.523 39.98 489.147 39.98 488.652V475.107C39.98 474.632 39.6038 474.236 39.1483 474.236Z" fill="black"/>
<path d="M27.6632 522.652H18.8316C18.3761 522.652 17.9999 523.028 17.9999 523.523V537.226C17.9999 537.662 18.3167 537.998 18.7127 538.058C18.3167 538.117 17.9999 538.473 17.9999 538.889V552.592C17.9999 553.028 18.3167 553.364 18.7127 553.424C18.3167 553.483 17.9999 553.84 17.9999 554.256V567.958C17.9999 568.394 18.3167 568.731 18.7127 568.79C18.3167 568.85 17.9999 569.206 17.9999 569.622V583.325C17.9999 583.76 18.3167 584.097 18.7127 584.156C18.3167 584.216 17.9999 584.572 17.9999 584.988V598.691C17.9999 599.166 18.3761 599.562 18.8316 599.562H27.6632C28.1187 599.562 28.4949 599.186 28.4949 598.691V584.988C28.4949 584.552 28.1781 584.216 27.782 584.156C28.1781 584.097 28.4949 583.741 28.4949 583.325V569.622C28.4949 569.186 28.1781 568.85 27.782 568.79C28.1781 568.731 28.4949 568.374 28.4949 567.958V554.256C28.4949 553.82 28.1781 553.483 27.782 553.424C28.1781 553.364 28.4949 553.008 28.4949 552.592V538.889C28.4949 538.454 28.1781 538.117 27.782 538.058C28.1781 537.998 28.4949 537.642 28.4949 537.226V523.523C28.5147 523.048 28.1385 522.652 27.6632 522.652ZM26.8315 551.741H19.6632V539.761H26.8315V551.741ZM26.8315 582.493H19.6632V570.513H26.8315V582.493Z" fill="black"/>
<path d="M27.5444 314.058H18.7128C18.2573 314.058 17.8811 314.435 17.8811 314.93V328.474C17.8811 328.949 18.2573 329.345 18.7128 329.345H27.5444C27.9999 329.345 28.3761 328.969 28.3761 328.474V314.93C28.3761 314.454 27.9999 314.058 27.5444 314.058Z" fill="black"/>
<path d="M39.0295 314.058H30.1979C29.7424 314.058 29.3662 314.435 29.3662 314.93V328.474C29.3662 328.949 29.7424 329.345 30.1979 329.345H39.0295C39.485 329.345 39.8612 328.969 39.8612 328.474V314.93C39.8612 314.454 39.485 314.058 39.0295 314.058Z" fill="black"/>
<path d="M27.5444 329.94H18.7128C18.2573 329.94 17.8811 330.316 17.8811 330.811V344.355C17.8811 344.831 18.2573 345.227 18.7128 345.227H27.5444C27.9999 345.227 28.3761 344.85 28.3761 344.355V330.811C28.3761 330.316 27.9999 329.94 27.5444 329.94Z" fill="black"/>
<path d="M39.0295 329.94H30.1979C29.7424 329.94 29.3662 330.316 29.3662 330.811V344.355C29.3662 344.831 29.7424 345.227 30.1979 345.227H39.0295C39.485 345.227 39.8612 344.85 39.8612 344.355V330.811C39.8612 330.316 39.485 329.94 39.0295 329.94Z" fill="black"/>
<path d="M27.5444 345.801H18.7128C18.2573 345.801 17.8811 346.177 17.8811 346.672V360.217C17.8811 360.692 18.2573 361.088 18.7128 361.088H27.5444C27.9999 361.088 28.3761 360.712 28.3761 360.217V346.672C28.3761 346.197 27.9999 345.801 27.5444 345.801Z" fill="black"/>
<path d="M39.0295 345.801H30.1979C29.7424 345.801 29.3662 346.177 29.3662 346.672V360.217C29.3662 360.692 29.7424 361.088 30.1979 361.088H39.0295C39.485 361.088 39.8612 360.712 39.8612 360.217V346.672C39.8612 346.197 39.485 345.801 39.0295 345.801Z" fill="black"/>
<path d="M27.5444 361.682H18.7128C18.2573 361.682 17.8811 362.058 17.8811 362.553V376.098C17.8811 376.573 18.2573 376.969 18.7128 376.969H27.5444C27.9999 376.969 28.3761 376.593 28.3761 376.098V362.553C28.3761 362.058 27.9999 361.682 27.5444 361.682Z" fill="black"/>
<path d="M39.0295 361.682H30.1979C29.7424 361.682 29.3662 362.058 29.3662 362.553V376.098C29.3662 376.573 29.7424 376.969 30.1979 376.969H39.0295C39.485 376.969 39.8612 376.593 39.8612 376.098V362.553C39.8612 362.058 39.485 361.682 39.0295 361.682Z" fill="black"/>
<path d="M38.0593 224.811H31.3465C30.891 224.811 30.5148 225.187 30.5148 225.682V230.772C30.5148 231.247 30.891 231.643 31.3465 231.643H38.0593C38.5147 231.643 38.891 231.267 38.891 230.772V225.682C38.9108 225.207 38.5345 224.811 38.0593 224.811Z" fill="black"/>
<path d="M25.7027 224.811H18.9899C18.5344 224.811 18.1582 225.187 18.1582 225.682V230.772C18.1582 231.247 18.5344 231.643 18.9899 231.643H25.7027C26.1582 231.643 26.5344 231.267 26.5344 230.772V225.682C26.5344 225.207 26.1582 224.811 25.7027 224.811Z" fill="black"/>
<path d="M38.0593 233.504H31.3465C30.891 233.504 30.5148 233.88 30.5148 234.376V239.465C30.5148 239.94 30.891 240.336 31.3465 240.336H38.0593C38.5147 240.336 38.891 239.96 38.891 239.465V234.376C38.9108 233.88 38.5345 233.504 38.0593 233.504Z" fill="black"/>
<path d="M25.7027 233.504H18.9899C18.5344 233.504 18.1582 233.88 18.1582 234.376V239.465C18.1582 239.94 18.5344 240.336 18.9899 240.336H25.7027C26.1582 240.336 26.5344 239.96 26.5344 239.465V234.376C26.5344 233.88 26.1582 233.504 25.7027 233.504Z" fill="black"/>
<path d="M38.0593 242.177H31.3465C30.891 242.177 30.5148 242.554 30.5148 243.049V248.138C30.5148 248.613 30.891 249.009 31.3465 249.009H38.0593C38.5147 249.009 38.891 248.633 38.891 248.138V243.049C38.9108 242.574 38.5345 242.177 38.0593 242.177Z" fill="black"/>
<path d="M25.7027 242.177H18.9899C18.5344 242.177 18.1582 242.554 18.1582 243.049V248.138C18.1582 248.613 18.5344 249.009 18.9899 249.009H25.7027C26.1582 249.009 26.5344 248.633 26.5344 248.138V243.049C26.5344 242.574 26.1582 242.177 25.7027 242.177Z" fill="black"/>
<path d="M38.0593 250.87H31.3465C30.891 250.87 30.5148 251.247 30.5148 251.742V256.831C30.5148 257.306 30.891 257.702 31.3465 257.702H38.0593C38.5147 257.702 38.891 257.326 38.891 256.831V251.742C38.9108 251.247 38.5345 250.87 38.0593 250.87Z" fill="black"/>
<path d="M25.7027 250.87H18.9899C18.5344 250.87 18.1582 251.247 18.1582 251.742V256.831C18.1582 257.306 18.5344 257.702 18.9899 257.702H25.7027C26.1582 257.702 26.5344 257.326 26.5344 256.831V251.742C26.5344 251.247 26.1582 250.87 25.7027 250.87Z" fill="black"/>
<path d="M66.8115 553.562H75.5046H77.1283H85.8214H89.0293H97.7223H99.3461H108.039C108.495 553.562 108.871 553.186 108.871 552.691V538.553V537.602V523.463C108.871 522.988 108.495 522.592 108.039 522.592H99.3461H97.7223H89.0293H85.8214H77.1283H75.5046H66.8115C66.3561 522.592 65.9799 522.968 65.9799 523.463V537.602V538.553V552.691C65.9799 553.186 66.3561 553.562 66.8115 553.562Z" fill="black"/>
<path d="M65.8017 457.721H75.4452H76.7918H86.4353H88.5145H98.158H99.5045H109.148C109.604 457.721 109.98 457.345 109.98 456.85V443.622V441.127V427.899C109.98 427.424 109.604 427.028 109.148 427.028H99.5045H98.1184H88.4749H86.3957H76.7522H75.4056H65.7621C65.3067 427.028 64.9304 427.404 64.9304 427.899V441.127V443.622V456.85C64.9502 457.325 65.3265 457.721 65.8017 457.721Z" fill="black"/>
<path d="M108.217 569.721H99.5244H97.9007H89.2076H85.6433H76.9502H75.3265H66.6334C66.178 569.721 65.8018 570.097 65.8018 570.592V584.731V586.038V600.176C65.8018 600.651 66.178 601.047 66.6334 601.047H75.3265H76.9502H85.6433H89.2274H97.9205H99.5442H108.237C108.693 601.047 109.069 600.671 109.069 600.176V586.038V584.731V570.592C109.049 570.097 108.673 569.721 108.217 569.721Z" fill="black"/>
<path d="M109.089 314.256H99.4451H97.9204H88.2768H86.6135H76.97H75.4254H65.7819C65.3264 314.256 64.9502 314.633 64.9502 315.128V328.751V330.91V344.534C64.9502 345.009 65.3264 345.405 65.7819 345.405H75.4254H76.97H86.6135H88.2768H97.9204H99.4649H109.108C109.564 345.405 109.94 345.029 109.94 344.534V330.91V328.751V315.128C109.94 314.653 109.564 314.256 109.089 314.256Z" fill="black"/>
<path d="M109.089 345.821H99.4451H97.9204H88.2768H86.6135H76.97H75.4254H65.7819C65.3264 345.821 64.9502 346.197 64.9502 346.692V360.316V362.474V376.098C64.9502 376.573 65.3264 376.969 65.7819 376.969H75.4254H76.97H86.6135H88.2768H97.9204H99.4649H109.108C109.564 376.969 109.94 376.593 109.94 376.098V362.474V360.316V346.692C109.94 346.217 109.564 345.821 109.089 345.821Z" fill="black"/>
<path d="M122.336 147.188C122.494 147.465 122.772 147.604 123.049 147.604C123.188 147.604 123.346 147.564 123.485 147.485L128.257 144.495C128.455 144.376 128.574 144.178 128.633 143.96C128.692 143.742 128.653 143.505 128.534 143.306L113.366 117.564C113.247 117.366 113.069 117.227 112.851 117.168C112.633 117.109 112.415 117.148 112.217 117.267L107.445 120.257C107.247 120.376 107.128 120.574 107.069 120.792C107.009 121.01 107.049 121.247 107.168 121.445L122.336 147.188Z" fill="black"/>
<path d="M152.316 257.663H159.029C159.484 257.663 159.861 257.286 159.861 256.791V251.702C159.861 251.227 159.484 250.831 159.029 250.831H152.316C151.861 250.831 151.484 251.207 151.484 251.702V256.791C151.484 257.286 151.861 257.663 152.316 257.663Z" fill="black"/>
<path d="M139.96 257.663H146.673C147.128 257.663 147.504 257.286 147.504 256.791V251.702C147.504 251.227 147.128 250.831 146.673 250.831H139.96C139.504 250.831 139.128 251.207 139.128 251.702V256.791C139.108 257.286 139.485 257.663 139.96 257.663Z" fill="black"/>
<path d="M152.316 248.989H159.029C159.484 248.989 159.861 248.613 159.861 248.118V243.029C159.861 242.554 159.484 242.158 159.029 242.158H152.316C151.861 242.158 151.484 242.534 151.484 243.029V248.118C151.484 248.593 151.861 248.989 152.316 248.989Z" fill="black"/>
<path d="M139.96 248.989H146.673C147.128 248.989 147.504 248.613 147.504 248.118V243.029C147.504 242.554 147.128 242.158 146.673 242.158H139.96C139.504 242.158 139.128 242.534 139.128 243.029V248.118C139.108 248.593 139.485 248.989 139.96 248.989Z" fill="black"/>
<path d="M152.316 240.296H159.029C159.484 240.296 159.861 239.92 159.861 239.425V234.336C159.861 233.861 159.484 233.465 159.029 233.465H152.316C151.861 233.465 151.484 233.841 151.484 234.336V239.425C151.484 239.92 151.861 240.296 152.316 240.296Z" fill="black"/>
<path d="M139.96 240.296H146.673C147.128 240.296 147.504 239.92 147.504 239.425V234.336C147.504 233.861 147.128 233.465 146.673 233.465H139.96C139.504 233.465 139.128 233.841 139.128 234.336V239.425C139.108 239.92 139.485 240.296 139.96 240.296Z" fill="black"/>
<path d="M152.316 231.623H159.029C159.484 231.623 159.861 231.247 159.861 230.752V225.682C159.861 225.207 159.484 224.811 159.029 224.811H152.316C151.861 224.811 151.484 225.187 151.484 225.682V230.772C151.484 231.247 151.861 231.623 152.316 231.623Z" fill="black"/>
<path d="M139.96 231.623H146.673C147.128 231.623 147.504 231.247 147.504 230.752V225.682C147.504 225.207 147.128 224.811 146.673 224.811H139.96C139.504 224.811 139.128 225.187 139.128 225.682V230.772C139.108 231.247 139.485 231.623 139.96 231.623Z" fill="black"/>
<path d="M138.99 376.949H147.821C148.277 376.949 148.653 376.573 148.653 376.078V362.533C148.653 362.058 148.277 361.662 147.821 361.662H138.99C138.534 361.662 138.158 362.038 138.158 362.533V376.078C138.158 376.553 138.534 376.949 138.99 376.949Z" fill="black"/>
<path d="M150.475 376.949H159.306C159.762 376.949 160.138 376.573 160.138 376.078V362.533C160.138 362.058 159.762 361.662 159.306 361.662H150.475C150.019 361.662 149.643 362.038 149.643 362.533V376.078C149.643 376.553 150.019 376.949 150.475 376.949Z" fill="black"/>
<path d="M138.99 361.068H147.821C148.277 361.068 148.653 360.692 148.653 360.197V346.652C148.653 346.177 148.277 345.781 147.821 345.781H138.99C138.534 345.781 138.158 346.157 138.158 346.652V360.197C138.158 360.692 138.534 361.068 138.99 361.068Z" fill="black"/>
<path d="M150.475 361.068H159.306C159.762 361.068 160.138 360.692 160.138 360.197V346.652C160.138 346.177 159.762 345.781 159.306 345.781H150.475C150.019 345.781 149.643 346.157 149.643 346.652V360.197C149.643 360.692 150.019 361.068 150.475 361.068Z" fill="black"/>
<path d="M138.99 345.207H147.821C148.277 345.207 148.653 344.831 148.653 344.335V330.791C148.653 330.316 148.277 329.92 147.821 329.92H138.99C138.534 329.92 138.158 330.296 138.158 330.791V344.335C138.158 344.811 138.534 345.207 138.99 345.207Z" fill="black"/>
<path d="M150.475 345.207H159.306C159.762 345.207 160.138 344.831 160.138 344.335V330.791C160.138 330.316 159.762 329.92 159.306 329.92H150.475C150.019 329.92 149.643 330.296 149.643 330.791V344.335C149.643 344.811 150.019 345.207 150.475 345.207Z" fill="black"/>
<path d="M138.99 329.326H147.821C148.277 329.326 148.653 328.949 148.653 328.454V314.91C148.653 314.435 148.277 314.039 147.821 314.039H138.99C138.534 314.039 138.158 314.415 138.158 314.91V328.454C138.158 328.949 138.534 329.326 138.99 329.326Z" fill="black"/>
<path d="M150.475 329.326H159.306C159.762 329.326 160.138 328.949 160.138 328.454V314.91C160.138 314.435 159.762 314.039 159.306 314.039H150.475C150.019 314.039 149.643 314.415 149.643 314.91V328.454C149.643 328.949 150.019 329.326 150.475 329.326Z" fill="black"/>
<path d="M138.871 489.503H147.702C148.158 489.503 148.534 489.127 148.534 488.632V475.087C148.534 474.612 148.158 474.216 147.702 474.216H138.871C138.415 474.216 138.039 474.592 138.039 475.087V488.632C138.039 489.127 138.415 489.503 138.871 489.503Z" fill="black"/>
<path d="M150.356 489.503H159.188C159.643 489.503 160.019 489.127 160.019 488.632V475.087C160.019 474.612 159.643 474.216 159.188 474.216H150.356C149.9 474.216 149.524 474.592 149.524 475.087V488.632C149.504 489.127 149.881 489.503 150.356 489.503Z" fill="black"/>
<path d="M138.871 473.642H147.702C148.158 473.642 148.534 473.266 148.534 472.771V459.226C148.534 458.751 148.158 458.355 147.702 458.355H138.871C138.415 458.355 138.039 458.731 138.039 459.226V472.771C138.039 473.246 138.415 473.642 138.871 473.642Z" fill="black"/>
<path d="M150.356 473.642H159.188C159.643 473.642 160.019 473.266 160.019 472.771V459.226C160.019 458.751 159.643 458.355 159.188 458.355H150.356C149.9 458.355 149.524 458.731 149.524 459.226V472.771C149.504 473.246 149.881 473.642 150.356 473.642Z" fill="black"/>
<path d="M138.871 457.761H147.702C148.158 457.761 148.534 457.385 148.534 456.89V443.345C148.534 442.87 148.158 442.474 147.702 442.474H138.871C138.415 442.474 138.039 442.85 138.039 443.345V456.89C138.039 457.385 138.415 457.761 138.871 457.761Z" fill="black"/>
<path d="M150.356 457.761H159.188C159.643 457.761 160.019 457.385 160.019 456.89V443.345C160.019 442.87 159.643 442.474 159.188 442.474H150.356C149.9 442.474 149.524 442.85 149.524 443.345V456.89C149.504 457.385 149.881 457.761 150.356 457.761Z" fill="black"/>
<path d="M138.871 441.9H147.702C148.158 441.9 148.534 441.523 148.534 441.028V427.484C148.534 427.008 148.158 426.612 147.702 426.612H138.871C138.415 426.612 138.039 426.989 138.039 427.484V441.028C138.039 441.503 138.415 441.9 138.871 441.9Z" fill="black"/>
<path d="M150.356 441.9H159.188C159.643 441.9 160.019 441.523 160.019 441.028V427.484C160.019 427.008 159.643 426.612 159.188 426.612H150.356C149.9 426.612 149.524 426.989 149.524 427.484V441.028C149.504 441.503 149.881 441.9 150.356 441.9Z" fill="black"/>
<path d="M147.841 522.592H139.009C138.554 522.592 138.178 522.968 138.178 523.463V537.166C138.178 537.602 138.495 537.939 138.891 537.998C138.495 538.058 138.178 538.414 138.178 538.83V552.533C138.178 552.968 138.495 553.305 138.891 553.364C138.495 553.424 138.178 553.78 138.178 554.196V567.899C138.178 568.335 138.495 568.671 138.891 568.731C138.495 568.79 138.178 569.146 138.178 569.562V583.265C138.178 583.701 138.495 584.038 138.891 584.097C138.495 584.156 138.178 584.513 138.178 584.929V598.632C138.178 599.107 138.554 599.503 139.009 599.503H147.841C148.297 599.503 148.673 599.127 148.673 598.632V584.929C148.673 584.493 148.356 584.156 147.96 584.097C148.356 584.038 148.673 583.681 148.673 583.265V569.562C148.673 569.127 148.356 568.79 147.96 568.731C148.356 568.671 148.673 568.315 148.673 567.899V554.196C148.673 553.76 148.356 553.424 147.96 553.364C148.356 553.305 148.673 552.949 148.673 552.533V538.83C148.673 538.394 148.356 538.058 147.96 537.998C148.356 537.939 148.673 537.582 148.673 537.166V523.463C148.673 522.988 148.297 522.592 147.841 522.592ZM147.009 551.681H139.841V539.701H147.009V551.681ZM147.009 582.434H139.841V570.453H147.009V582.434Z" fill="black"/>
<path d="M51.4651 186.277H48.0196C47.5641 186.277 47.1879 186.653 47.1879 187.148V214.118C47.0493 213.861 46.7919 213.663 46.475 213.663H11.3465C10.891 213.663 10.5148 214.039 10.5148 214.534V270.633C10.5148 271.108 10.891 271.504 11.3465 271.504H46.4552C46.9107 271.504 47.2869 271.128 47.2869 270.633V216.989C47.4255 217.247 47.683 217.445 47.9998 217.445H51.4453C51.9008 217.445 52.277 217.069 52.277 216.574V187.148C52.2968 186.673 51.9206 186.277 51.4651 186.277ZM16.9306 264.87V220.277H40.8711V264.87H16.9306Z" fill="black"/>
<path d="M49.7622 144.495L54.5344 147.485C54.673 147.564 54.8117 147.604 54.9701 147.604C55.2473 147.604 55.5245 147.465 55.6829 147.188L70.8512 121.445C71.0888 121.029 70.97 120.515 70.574 120.257L65.8017 117.267C65.6037 117.148 65.3859 117.109 65.1681 117.168C64.9502 117.227 64.772 117.366 64.6532 117.564L49.4849 143.306C49.3661 143.505 49.3265 143.742 49.3859 143.96C49.4453 144.198 49.5642 144.376 49.7622 144.495Z" fill="black"/>
<path d="M73.366 183.782H101.405C101.861 183.782 102.237 183.405 102.237 182.91V145.326C102.237 144.851 101.861 144.455 101.405 144.455H73.366C72.9105 144.455 72.5343 144.831 72.5343 145.326V182.91C72.5343 183.386 72.9105 183.782 73.366 183.782Z" fill="black"/>
<path d="M66.4156 266.851H82.7125C83.168 266.851 83.5442 266.474 83.5442 265.979V248.356C83.5442 247.88 83.168 247.484 82.7125 247.484H66.4156C65.9601 247.484 65.5839 247.861 65.5839 248.356V265.979C65.5641 266.474 65.9403 266.851 66.4156 266.851Z" fill="black"/>
<path d="M66.4156 245.385H82.7125C83.168 245.385 83.5442 245.009 83.5442 244.514V226.89C83.5442 226.415 83.168 226.019 82.7125 226.019H66.4156C65.9601 226.019 65.5839 226.395 65.5839 226.89V244.514C65.5641 244.989 65.9403 245.385 66.4156 245.385Z" fill="black"/>
<path d="M65.8017 489.167H75.4452H76.7918H86.4353H88.5145H98.158H99.5045H109.148C109.604 489.167 109.98 488.79 109.98 488.295V475.068V472.573V459.345C109.98 458.87 109.604 458.474 109.148 458.474H99.5045H98.1184H88.4749H86.3957H76.7522H75.4056H65.7621C65.3067 458.474 64.9304 458.85 64.9304 459.345V472.573V475.068V488.295C64.9502 488.79 65.3265 489.167 65.8017 489.167Z" fill="black"/>
<path d="M28.6929 631.325C19.0296 631.325 11.1484 639.424 11.1484 649.384V674.532C11.1484 675.008 11.5247 675.404 11.9801 675.404H27.5048C27.6038 675.443 27.7028 675.463 27.8216 675.463H29.5444C29.6632 675.463 29.7622 675.443 29.8612 675.404H45.3859C45.8414 675.404 46.2176 675.027 46.2176 674.532V649.384C46.2374 639.424 38.3563 631.325 28.6929 631.325ZM40.3364 653.8H37.7028V641.82C39.3464 643.879 40.3364 646.532 40.3364 649.404V653.8ZM34.0394 653.8H30.3959V637.542C31.7028 637.74 32.9305 638.156 34.0394 638.75V653.8ZM26.99 653.8H21.9009V639.681C23.386 638.592 25.1088 637.839 26.99 637.562V653.8ZM18.2573 653.8H17.0494V649.384C17.0494 647.503 17.485 645.701 18.2573 644.117V653.8ZM17.0494 656.631H18.2573V669.324H17.0494V656.631ZM21.9207 656.631H27.0098V669.324H21.9207V656.631ZM30.3959 656.631H34.0394V669.324H30.3959V656.631ZM37.7028 656.631H40.3364V669.324H37.7028V656.631Z" fill="black"/>
<path d="M187.187 182.158H175.524L117.188 89.1087V62.9702H119.188C119.643 62.9702 120.019 62.594 120.019 62.0989V60.1979H121.94C122.396 60.1979 122.772 59.8217 122.772 59.3266V44.9901C122.772 44.5148 122.396 44.1188 121.94 44.1188H116.475C115.346 43.1881 114.198 42.3168 113.009 41.5049C111.742 40.6336 110.415 39.8416 109.069 39.1287C107.722 38.4158 106.316 37.7624 104.91 37.2079C103.366 36.594 101.742 36.0594 100.099 35.604C98.4352 35.1485 96.6927 34.7921 94.9501 34.5347C93.2273 34.2772 91.4254 34.1188 89.5838 34.0396C88.7917 34.0198 87.9798 34 87.168 34C86.7719 34 86.3957 34.0198 85.9996 34.0198C85.2274 34.0396 84.4551 34.099 83.6828 34.1782C82.1581 34.3366 80.6135 34.5941 79.1284 34.9307C77.6432 35.2673 76.1383 35.7228 74.6729 36.2574C73.8215 36.5742 72.9898 36.9109 72.1581 37.2871C70.9106 37.8416 69.6433 38.495 68.4155 39.2079C67.2076 39.9406 65.9799 40.7326 64.7918 41.5841C63.7027 42.3762 62.5938 43.2277 61.5245 44.1386H56.079C55.6235 44.1386 55.2473 44.5148 55.2473 45.0099V59.3662C55.2473 59.8415 55.6235 60.2375 56.079 60.2375H57.9997V62.1385C57.9997 62.6138 58.376 63.0098 58.8314 63.0098H60.8314V89.1285L2.51481 182.158H-9.16832C-9.62376 182.158 -10 182.534 -10 183.009V726.195C-10 726.671 -9.62376 727.067 -9.16832 727.067H187.168C187.623 727.067 187.999 726.69 187.999 726.195V183.009C188.019 182.534 187.643 182.158 187.187 182.158ZM133.267 720.453V714.096H145.623V720.453H133.267ZM46.4156 720.453V714.096H64.2175V720.453H46.4156ZM32.3959 720.453V714.096H42.7721V720.453H32.3959ZM-3.58418 720.453V714.096H14.0791V720.453H-3.58418ZM64.3958 54.3168H87.4056H113.643C113.643 54.3564 113.623 54.396 113.623 54.4554V56.3564H111.623H66.4156H64.4156V54.4554C64.4156 54.4158 64.3958 54.3762 64.3958 54.3168ZM67.1284 91.2671C67.2076 91.1285 67.267 90.9701 67.267 90.7919V60.1187H110.772V90.7919C110.772 90.9503 110.811 91.1285 110.91 91.2671L170.95 187.049H163.722C163.267 187.049 162.89 187.425 162.89 187.92V193.762C162.89 194.237 163.267 194.633 163.722 194.633H181.623V678.849L168.217 678.79C168.138 678.77 168.059 678.73 167.96 678.73H140.237C140.237 678.73 140.237 678.73 140.217 678.73L112.297 678.691V652.196C112.297 651.839 112.257 651.503 112.217 651.146C112.198 651.027 112.178 650.889 112.158 650.77C112.138 650.631 112.118 650.493 112.079 650.374C112.059 650.295 112.039 650.235 112.019 650.156C111.98 650.018 111.94 649.879 111.881 649.74C111.861 649.661 111.841 649.582 111.802 649.483C111.802 649.463 111.782 649.463 111.782 649.443C111.742 649.364 111.703 649.285 111.683 649.206C111.623 649.067 111.564 648.928 111.504 648.79C111.485 648.73 111.465 648.671 111.425 648.612C111.386 648.513 111.306 648.414 111.267 648.315C111.188 648.156 111.108 648.018 111.009 647.859C110.97 647.8 110.95 647.74 110.91 647.681C110.851 647.602 110.792 647.503 110.712 647.423C110.613 647.285 110.514 647.126 110.396 646.988C110.297 646.849 110.198 646.73 110.079 646.592C109.94 646.433 109.821 646.275 109.683 646.136C109.584 646.037 109.485 645.938 109.386 645.82C109.148 645.582 108.93 645.364 108.693 645.166C108.673 645.146 108.653 645.126 108.633 645.107C107.782 644.354 106.792 643.661 105.683 643.008C105.643 642.988 105.584 642.948 105.524 642.928C105.009 642.631 104.495 642.354 103.94 642.097C103.703 641.978 103.445 641.879 103.207 641.78C102.811 641.602 102.435 641.424 102.019 641.265C101.346 641.008 100.673 640.77 99.9798 640.552C99.9402 640.532 99.9006 640.532 99.861 640.513C99.2273 640.315 98.5937 640.136 97.9798 639.978C97.7026 639.919 97.4451 639.859 97.1877 639.8C96.7917 639.701 96.3956 639.621 95.9996 639.542C94.1184 639.166 92.3164 638.968 90.6927 638.849C90.6333 638.849 90.5541 638.829 90.4749 638.829C89.3462 638.75 88.3165 638.73 87.3858 638.73C86.4551 638.73 85.4254 638.75 84.2967 638.829C84.2769 638.829 84.2373 638.829 84.2175 638.829C80.8511 639.047 76.772 639.701 72.7522 641.265C71.4254 641.78 70.1977 642.354 69.0888 643.008C68.8512 643.146 68.6532 643.285 68.4155 643.443C68.1185 643.641 67.8017 643.82 67.5245 644.018C67.4453 644.077 67.366 644.156 67.2868 644.216C67.2274 644.255 67.168 644.315 67.1086 644.354C66.7918 644.592 66.4552 644.849 66.1581 645.107C65.9007 645.324 65.6631 645.562 65.4057 645.82C65.3067 645.919 65.2274 646.018 65.1284 646.117C64.9898 646.275 64.8512 646.433 64.7126 646.592C64.6532 646.651 64.5938 646.711 64.5344 646.79C64.4948 646.849 64.4552 646.909 64.3958 646.968C64.277 647.107 64.1779 647.265 64.0789 647.423C63.9799 647.562 63.8809 647.701 63.8017 647.839C63.7027 647.978 63.6235 648.136 63.5443 648.295C63.4849 648.394 63.4255 648.473 63.3859 648.572C63.3463 648.631 63.3265 648.691 63.3067 648.75C63.2473 648.889 63.1878 649.027 63.1086 649.186C63.0294 649.364 62.97 649.542 62.9106 649.72C62.871 649.859 62.8116 649.998 62.772 650.136C62.7126 650.354 62.673 650.552 62.6334 650.77C62.6136 650.889 62.574 651.008 62.574 651.146C62.5344 651.503 62.4948 651.839 62.4948 652.196V678.691L-3.58418 678.809V194.593H14.3167C14.7722 194.593 15.1484 194.217 15.1484 193.722V187.881C15.1484 187.405 14.7722 187.009 14.3167 187.009H7.08905L67.1284 91.2671ZM154.059 710.334V697.879H172.653V710.334H154.059ZM87.3858 710.334H84.6927H65.0492H51.3463V697.879H62.475V706.908C62.475 707.384 62.8512 707.78 63.3067 707.78H111.445C111.901 707.78 112.277 707.403 112.277 706.908V697.879H126.653V710.334H87.3858ZM62.4948 682.572V694.116H38.6137V682.572H62.4948ZM141.069 694.097V682.532H167.128V694.097H141.069ZM87.3858 655.027C87.4056 655.027 87.4056 655.027 87.4254 655.027C87.4452 655.027 87.4452 655.027 87.465 655.027H105.782V657.621H87.465C87.4452 657.621 87.4452 657.621 87.4254 657.621C87.4056 657.621 87.4056 657.621 87.3858 657.621H69.0096V655.027H87.3858ZM87.3858 659.344C87.4056 659.344 87.4056 659.344 87.4254 659.344C87.4452 659.344 87.4452 659.344 87.465 659.344H105.782V661.938H87.465C87.4452 661.938 87.4452 661.938 87.4254 661.938C87.4056 661.938 87.4056 661.938 87.3858 661.938H69.0096V659.344H87.3858ZM87.465 696.453C87.4452 696.453 87.4452 696.453 87.4254 696.453C87.4056 696.453 87.4056 696.453 87.3858 696.453H69.0096V693.859H87.3858C87.4056 693.859 87.4056 693.859 87.4254 693.859C87.4452 693.859 87.4452 693.859 87.465 693.859H105.782V696.453H87.465ZM87.3858 663.661C87.4056 663.661 87.4056 663.661 87.4254 663.661C87.4452 663.661 87.4452 663.661 87.465 663.661H105.782V666.255H87.465C87.4452 666.255 87.4452 666.255 87.4254 666.255C87.4056 666.255 87.4056 666.255 87.3858 666.255H69.0096V663.661H87.3858ZM87.3858 667.978C87.4056 667.978 87.4056 667.978 87.4254 667.978C87.4452 667.978 87.4452 667.978 87.465 667.978H105.782V670.572H87.465C87.4452 670.572 87.4452 670.572 87.4254 670.572C87.4056 670.572 87.4056 670.572 87.3858 670.572H69.0096V667.978H87.3858ZM87.3858 672.295C87.4056 672.295 87.4056 672.295 87.4254 672.295C87.4452 672.295 87.4452 672.295 87.465 672.295H105.782V674.889H87.465C87.4452 674.889 87.4452 674.889 87.4254 674.889C87.4056 674.889 87.4056 674.889 87.3858 674.889H69.0096V672.295H87.3858ZM87.3858 676.611C87.4056 676.611 87.4056 676.611 87.4254 676.611C87.4452 676.611 87.4452 676.611 87.465 676.611H105.782V679.205H87.465C87.4452 679.205 87.4452 679.205 87.4254 679.205C87.4056 679.205 87.4056 679.205 87.3858 679.205H69.0096V676.611H87.3858ZM87.3858 680.908C87.4056 680.908 87.4056 680.908 87.4254 680.908C87.4452 680.908 87.4452 680.908 87.465 680.908H105.782V683.503H87.465C87.4452 683.503 87.4452 683.503 87.4254 683.503C87.4056 683.503 87.4056 683.503 87.3858 683.503H69.0096V680.908H87.3858ZM87.3858 685.225C87.4056 685.225 87.4056 685.225 87.4254 685.225C87.4452 685.225 87.4452 685.225 87.465 685.225H105.782V687.819H87.465C87.4452 687.819 87.4452 687.819 87.4254 687.819C87.4056 687.819 87.4056 687.819 87.3858 687.819H69.0096V685.225H87.3858ZM87.3858 689.542C87.4056 689.542 87.4056 689.542 87.4254 689.542C87.4452 689.542 87.4452 689.542 87.465 689.542H105.782V692.136H87.465C87.4452 692.136 87.4452 692.136 87.4254 692.136C87.4056 692.136 87.4056 692.136 87.3858 692.136H69.0096V689.542H87.3858ZM69.0294 698.176H87.4056C87.4254 698.176 87.4254 698.176 87.4452 698.176C87.465 698.176 87.465 698.176 87.4848 698.176H105.802V701.047H69.0294V698.176ZM105.762 653.305H87.4452C87.4254 653.305 87.4254 653.305 87.4056 653.305C87.3858 653.305 87.3858 653.305 87.366 653.305H68.9898V652.176V652.077C69.0096 652.018 69.0096 651.958 69.0294 651.899C69.069 651.8 69.1086 651.701 69.168 651.602C69.2472 651.443 69.3462 651.305 69.4651 651.166C69.6235 650.968 69.7819 650.77 69.9601 650.592C70.1977 650.354 70.4353 650.136 70.6928 649.938C71.0096 649.681 71.3462 649.463 71.6829 649.225C72.0789 648.968 72.4947 648.73 72.9106 648.513C73.3858 648.275 73.8611 648.037 74.3561 647.839C74.8908 647.621 75.4254 647.404 75.9799 647.225C77.1086 646.829 78.3363 646.513 79.6234 646.235C80.8709 645.978 82.1779 645.78 83.5046 645.661C86.0194 645.423 88.6729 645.423 91.2075 645.661C92.5343 645.78 93.8412 645.978 95.1085 646.235C96.3956 646.493 97.6036 646.829 98.7521 647.225C99.3065 647.404 99.8412 647.621 100.376 647.839C100.871 648.037 101.346 648.275 101.821 648.513C102.237 648.73 102.653 648.968 103.049 649.225C103.386 649.443 103.722 649.681 104.039 649.938C104.297 650.136 104.534 650.354 104.772 650.592C104.95 650.77 105.128 650.968 105.267 651.166C105.366 651.305 105.465 651.443 105.564 651.602C105.623 651.701 105.663 651.8 105.703 651.899C105.722 651.958 105.742 652.017 105.762 652.176V653.305ZM23.9603 697.859V710.314H5.36628V697.859H23.9603ZM176.296 710.334V697.879H181.603V710.334H176.296ZM-3.58418 682.572H9.20785V694.116H4.5346H-3.58418V682.572ZM163.92 714.096H181.583V720.453H163.92V714.096Z" fill="black"/>
<path d="M46.4552 303.306H11.3465C10.891 303.306 10.5148 303.682 10.5148 304.177V389.919C10.5148 390.395 10.891 390.791 11.3465 390.791H46.4552C46.9107 390.791 47.2869 390.415 47.2869 389.919V304.177C47.2869 303.702 46.9107 303.306 46.4552 303.306ZM16.9306 384.177V309.94H40.8711V384.177H16.9306Z" fill="black"/>
<path d="M119.287 303.306H55.485C55.0296 303.306 54.6533 303.682 54.6533 304.177V389.919C54.6533 390.395 55.0296 390.791 55.485 390.791H119.287C119.742 390.791 120.118 390.415 120.118 389.919V304.177C120.138 303.702 119.762 303.306 119.287 303.306ZM61.0691 384.177V309.94H113.703V384.177H61.0691Z" fill="black"/>
<path d="M131.564 390.771H166.673C167.128 390.771 167.504 390.395 167.504 389.9V304.157C167.504 303.682 167.128 303.286 166.673 303.286H131.564C131.108 303.286 130.732 303.662 130.732 304.157V389.9C130.732 390.395 131.108 390.771 131.564 390.771ZM161.089 309.92V384.157H137.148V309.92H161.089Z" fill="black"/>
<path d="M130.851 214.118V187.148C130.851 186.673 130.475 186.277 130.019 186.277H126.574C126.118 186.277 125.742 186.653 125.742 187.148V216.574C125.742 217.049 126.118 217.445 126.574 217.445H130.019C130.336 217.445 130.594 217.267 130.732 217.009V270.633C130.732 271.108 131.108 271.504 131.564 271.504H166.673C167.128 271.504 167.504 271.128 167.504 270.633V214.534C167.504 214.059 167.128 213.663 166.673 213.663H131.564C131.247 213.663 130.99 213.861 130.851 214.118ZM161.088 220.277V264.87H137.148V220.277H161.088Z" fill="black"/>
<path d="M118.079 281.187C118.534 281.187 118.91 280.811 118.91 280.316V213.999C118.91 213.524 118.534 213.128 118.079 213.128H56.6929C56.2374 213.128 55.8612 213.504 55.8612 213.999V280.336C55.8612 280.811 56.2374 281.207 56.6929 281.207H118.079V281.187ZM112.514 219.742V274.573H62.277V219.742H112.514Z" fill="black"/>
<path d="M46.4552 415.345H11.3465C10.891 415.345 10.5148 415.721 10.5148 416.216V500.434C10.5148 500.909 10.891 501.305 11.3465 501.305H46.4552C46.9107 501.305 47.2869 500.929 47.2869 500.434V416.216C47.2869 415.741 46.9107 415.345 46.4552 415.345ZM16.9306 494.672V421.959H40.8711V494.672H16.9306Z" fill="black"/>
<path d="M118.693 500.949C119.148 500.949 119.524 500.573 119.524 500.078V415.86C119.524 415.385 119.148 414.989 118.693 414.989H56.0988C55.6433 414.989 55.2671 415.365 55.2671 415.86V500.078C55.2671 500.553 55.6433 500.949 56.0988 500.949H118.693ZM113.108 421.622V494.335H61.6829V421.622H113.108Z" fill="black"/>
<path d="M130.732 500.414C130.732 500.889 131.108 501.285 131.564 501.285H166.673C167.128 501.285 167.504 500.909 167.504 500.414V416.197C167.504 415.721 167.128 415.325 166.673 415.325H131.564C131.108 415.325 130.732 415.702 130.732 416.197V500.414ZM161.089 421.959V494.672H137.148V421.959H161.089Z" fill="black"/>
<path d="M131.623 510.157C131.168 510.157 130.792 510.533 130.792 511.028V607.483C130.792 607.958 131.168 608.354 131.623 608.354H167.088C167.544 608.354 167.92 607.978 167.92 607.483V511.028C167.92 510.553 167.544 510.157 167.088 510.157H131.623ZM137.207 601.721V516.771H161.504V601.74H137.207V601.721Z" fill="black"/>
<path d="M118.99 511.226H55.8018C55.3463 511.226 54.9701 511.602 54.9701 512.097V608.552C54.9701 609.028 55.3463 609.424 55.8018 609.424H118.99C119.445 609.424 119.821 609.047 119.821 608.552V512.097C119.821 511.622 119.465 511.226 118.99 511.226ZM61.3859 602.81V517.84H113.425V602.81H61.3859Z" fill="black"/>
<path d="M46.3959 510.157H10.9307C10.4752 510.157 10.099 510.533 10.099 511.028V607.483C10.099 607.958 10.4752 608.354 10.9307 608.354H46.3959C46.8513 608.354 47.2276 607.978 47.2276 607.483V511.028C47.2276 510.533 46.8513 510.157 46.3959 510.157ZM16.5148 601.721V516.771H40.8118V601.74H16.5148V601.721Z" fill="black"/>
<path d="M149.326 631.325C139.663 631.325 131.782 639.424 131.782 649.384V674.532C131.782 675.008 132.158 675.404 132.613 675.404H148.138C148.237 675.443 148.336 675.463 148.455 675.463H150.178C150.296 675.463 150.395 675.443 150.494 675.404H166.019C166.475 675.404 166.851 675.027 166.851 674.532V649.384C166.871 639.424 158.989 631.325 149.326 631.325ZM160.97 653.8H159.762V644.136C160.514 645.721 160.97 647.503 160.97 649.404V653.8ZM156.098 653.8H151.009V637.542C152.89 637.82 154.613 638.572 156.098 639.661V653.8ZM147.623 653.8H143.98V638.77C145.108 638.176 146.336 637.76 147.623 637.562V653.8ZM140.316 653.8H137.683V649.384C137.683 646.513 138.673 643.879 140.316 641.8V653.8ZM137.683 656.631H140.316V669.324H137.683V656.631ZM143.98 656.631H147.623V669.324H143.98V656.631ZM151.029 656.631H156.118V669.324H151.029V656.631ZM159.762 656.631H160.97V669.324H159.762V656.631Z" fill="black"/>
<path d="M228.729 333.727H205.368V341.157H228.729V333.727Z" fill="black"/>
<path d="M274.449 333.727H251.089V341.157H274.449V333.727Z" fill="black"/>
<path d="M320.241 333.727H296.881V341.157H320.241V333.727Z" fill="black"/>
<path d="M198.581 480.463H233.515V414.025H198.581V480.463ZM206.082 451.458H212.298V472.89H206.082V451.458ZM219.799 472.89V451.458H226.014V472.89H219.799ZM226.014 443.815H219.799V421.526H226.014V443.815ZM212.298 421.311V443.815H206.082V421.526L212.298 421.311Z" fill="black"/>
<path d="M246.374 480.463H281.236V414.025H246.374V480.463ZM253.518 451.458H259.804V472.89H253.518V451.458ZM267.305 472.89V451.458H274.092V472.89H267.305ZM274.092 443.815H267.877V421.526H274.092V443.815ZM259.804 421.526V443.815H253.518V421.526H259.804Z" fill="black"/>
<path d="M294.166 480.463H329.028V414.025H294.166V480.463ZM301.31 451.458H307.597V472.89H301.31V451.458ZM315.026 472.89V451.458H321.313V472.89H315.026ZM321.599 443.815H315.312V421.526H321.599V443.815ZM307.882 421.311V443.815H301.596V421.526L307.882 421.311Z" fill="black"/>
<path d="M377.178 393.807H372.106C368.146 393.807 364.348 395.38 361.548 398.18C358.748 400.98 357.175 404.778 357.175 408.738V439.385H392.037V408.667C392.037 404.726 390.472 400.946 387.685 398.159C384.899 395.373 381.119 393.807 377.178 393.807ZM384.322 431.884H364.319V408.667C364.319 406.772 365.072 404.955 366.412 403.615C367.751 402.275 369.568 401.523 371.463 401.523H376.535C378.43 401.523 380.247 402.275 381.587 403.615C382.926 404.955 383.679 406.772 383.679 408.667L384.322 431.884Z" fill="black"/>
<path d="M377.178 455.745H372.106C368.146 455.745 364.348 457.318 361.548 460.118C358.748 462.918 357.175 466.715 357.175 470.675V501.322H392.037V470.675C392.047 468.718 391.669 466.778 390.927 464.967C390.184 463.156 389.091 461.509 387.711 460.122C386.33 458.735 384.689 457.634 382.881 456.882C381.074 456.131 379.136 455.745 377.178 455.745ZM384.322 493.821H364.319V470.675C364.319 468.781 365.072 466.964 366.412 465.624C367.751 464.284 369.568 463.531 371.463 463.531H376.535C378.43 463.531 380.247 464.284 381.587 465.624C382.926 466.964 383.679 468.781 383.679 470.675L384.322 493.821Z" fill="black"/>
<path d="M377.178 517.753H372.106C368.158 517.753 364.372 519.316 361.574 522.101C358.776 524.886 357.194 528.665 357.175 532.613V563.331H392.037V532.613C392.037 528.672 390.472 524.892 387.685 522.105C384.899 519.319 381.119 517.753 377.178 517.753ZM384.322 555.83H364.319V532.613C364.319 530.718 365.072 528.901 366.412 527.561C367.751 526.221 369.568 525.469 371.463 525.469H376.535C378.43 525.469 380.247 526.221 381.587 527.561C382.926 528.901 383.679 530.718 383.679 532.613L384.322 555.83Z" fill="black"/>
<path d="M377.178 579.548H372.106C368.152 579.567 364.365 581.146 361.569 583.942C358.773 586.738 357.194 590.525 357.175 594.479V650.987H392.037V594.622C392.056 592.655 391.686 590.704 390.949 588.88C390.211 587.057 389.121 585.397 387.74 583.997C386.36 582.596 384.716 581.482 382.903 580.719C381.09 579.955 379.145 579.557 377.178 579.548ZM384.322 643.128H364.319V594.622C364.319 592.727 365.072 590.91 366.412 589.57C367.751 588.23 369.568 587.478 371.463 587.478H376.535C378.43 587.478 380.247 588.23 381.587 589.57C382.926 590.91 383.679 592.727 383.679 594.622L384.322 643.128Z" fill="black"/>
<path d="M357.175 697.493H392.037V665.274H357.175V697.493ZM364.319 672.561H384.322V689.992H364.319V672.561Z" fill="black"/>
<path d="M198.581 399.165H233.515V367.803H198.581V399.165ZM226.014 392.021H219.799V375.233H226.014V392.021ZM206.082 375.59H212.298V392.021H206.082V375.59Z" fill="black"/>
<path d="M246.374 399.165H281.236V367.803H246.374V399.165ZM273.806 392.021H267.591V375.233H274.092L273.806 392.021ZM253.803 375.59H259.804V392.021H253.518L253.803 375.59Z" fill="black"/>
<path d="M294.166 367.803V399.165H329.028V367.803H294.166ZM301.31 374.947H307.597V391.378H301.31V374.947ZM321.313 391.378H315.026V375.233H321.313V391.378Z" fill="black"/>
<path d="M198.581 563.831H233.515V497.393H198.581V563.831ZM206.082 534.042H212.298V556.33H206.082V534.042ZM219.799 556.33V534.042H226.014V556.33H219.799ZM226.014 526.612H219.799V504.823H226.014V526.612ZM212.298 504.823V526.612H206.082V504.823H212.298Z" fill="black"/>
<path d="M246.374 563.831H281.236V497.393H246.374V563.831ZM253.518 534.042H259.804V556.33H253.518V534.042ZM267.305 556.33V534.042H274.092V556.33H267.305ZM274.092 526.612H267.877V504.823H274.092V526.612ZM259.804 504.823V526.612H253.518V504.823H259.804Z" fill="black"/>
<path d="M294.166 563.831H329.028V497.393H294.166V563.831ZM301.31 534.042H307.597V556.33H301.31V534.042ZM315.026 556.33V534.042H321.313V556.33H315.026ZM321.313 526.612H315.026V504.823H321.313V526.612ZM307.597 504.823V526.612H301.31V504.823H307.597Z" fill="black"/>
<path d="M198.581 665.989H233.515V580.762H198.581V665.989ZM206.082 627.055H212.298V658.488H206.082V627.055ZM219.799 658.488V627.055H226.014V658.488H219.799ZM226.014 619.625H219.799V588.192H226.014V619.625ZM212.298 588.192V619.625H206.082V588.192H212.298Z" fill="black"/>
<path d="M246.374 665.989H281.236V580.762H246.374V665.989ZM253.518 627.055H259.804V658.488H253.518V627.055ZM267.305 658.488V627.055H274.092V658.488H267.305ZM274.092 619.625H267.877V588.192H274.092V619.625ZM259.804 588.192V619.625H253.518V588.192H259.804Z" fill="black"/>
<path d="M294.166 665.989H329.028V580.762H294.166V665.989ZM301.31 627.055H307.597V658.488H301.31V627.055ZM315.026 658.488V627.055H321.313V658.488H315.026ZM321.313 619.625H315.026V588.192H321.313V619.625ZM307.597 588.192V619.625H301.31V588.192H307.597Z" fill="black"/>
<path d="M419.327 380.162C422.228 380.136 425.104 380.698 427.781 381.815C430.458 382.933 432.88 384.582 434.901 386.663C435.839 387.594 436.955 388.327 438.182 388.818C439.41 389.309 440.723 389.548 442.045 389.521C444.592 389.488 447.027 388.463 448.831 386.663C450.99 384.486 453.582 382.785 456.438 381.672C459.295 380.558 462.354 380.055 465.417 380.197C468.48 380.338 471.479 381.12 474.221 382.492C476.963 383.865 479.387 385.797 481.336 388.164L487.122 383.377C484.499 380.218 481.246 377.641 477.57 375.812C473.894 373.982 469.877 372.939 465.775 372.751C461.674 372.563 457.578 373.233 453.75 374.718C449.922 376.203 446.446 378.471 443.545 381.377C443.351 381.58 443.119 381.742 442.861 381.852C442.603 381.963 442.325 382.02 442.045 382.02C441.764 382.02 441.486 381.963 441.228 381.852C440.971 381.742 440.738 381.58 440.544 381.377C435.011 375.845 427.508 372.738 419.684 372.738C411.86 372.738 404.357 375.845 398.824 381.377C398.631 381.58 398.398 381.742 398.14 381.852C397.882 381.963 397.604 382.02 397.324 382.02C397.043 382.02 396.766 381.963 396.508 381.852C396.25 381.742 396.017 381.58 395.824 381.377C392.929 378.473 389.459 376.206 385.637 374.722C381.815 373.237 377.724 372.567 373.628 372.756C369.532 372.944 365.521 373.986 361.851 375.815C358.181 377.644 354.934 380.22 352.318 383.377L358.033 388.164C360.089 385.663 362.674 383.649 365.601 382.265C368.529 380.882 371.726 380.164 374.964 380.162C377.864 380.136 380.74 380.698 383.417 381.815C386.094 382.933 388.516 384.582 390.537 386.663C391.476 387.594 392.592 388.327 393.819 388.818C395.046 389.309 396.36 389.548 397.681 389.521C400.229 389.488 402.664 388.463 404.468 386.663C408.378 382.634 413.714 380.299 419.327 380.162Z" fill="black"/>
<path d="M676.364 728.783H653.289V333.727H629.857C628.858 330.223 626.558 327.233 623.427 325.369C617.33 321.987 612.229 317.059 608.64 311.081C603.427 302.831 600.676 293.265 600.71 283.506V279.505H547.131V283.291C547.309 293.094 544.601 302.733 539.344 311.01C535.925 316.949 530.995 321.878 525.056 325.297C521.899 327.148 519.572 330.14 518.555 333.656H490.694V274.79H482.55V256.145H475.406V274.79H466.977V333.727H458.475L439.258 303.58H444.259V296.436H387.108V303.58H393.109L374.106 333.727H345.531V311.367H329.028V256.502H304.311V268.289C300.649 273.669 295.624 277.979 289.75 280.778C283.875 283.578 277.362 284.765 270.877 284.22L263.305 271.075L240.016 311.367H182.365V674.276H168.077V681.42H182.365V728.498H129V735.641H429.829V741.857H437.33V735.641H584.636V745H591.78V736.284H676.364V728.783ZM474.121 282.291H482.907V333.727H474.121V282.291ZM401.896 303.723H430.471L449.688 333.87H382.965L401.896 303.723ZM466.977 341.228H497.481V356.588H345.531V341.228H466.977ZM304.311 279.505V293.793C297.229 294.242 290.127 293.345 283.379 291.15C291.301 289.285 298.549 285.253 304.311 279.505ZM304.311 300.937V311.367H286.594L278.236 297.079C285.399 299.812 293 301.216 300.667 301.223L304.311 300.937ZM244.374 318.868L263.305 286.006L282.308 318.868H311.74V263.932H321.599V318.868H337.887V350.944H189.794V318.796L244.374 318.868ZM189.794 358.516H337.887V674.276H189.794V358.516ZM189.794 700.351V681.705H337.887V728.783H189.794V700.351ZM409.826 728.926V672.418H429.829V728.64L409.826 728.926ZM402.682 665.274V728.926H345.531V364.589H497.41V728.783H437.33V665.274H402.682ZM563.276 728.926V687.778C563.022 686.224 563.108 684.633 563.529 683.116C563.951 681.599 564.697 680.192 565.716 678.992C566.736 677.792 568.004 676.828 569.433 676.167C570.862 675.506 572.417 675.163 573.992 675.163C575.566 675.163 577.122 675.506 578.551 676.167C579.98 676.828 581.248 677.792 582.268 678.992C583.287 680.192 584.033 681.599 584.455 683.116C584.876 684.633 584.962 686.224 584.708 687.778V728.783L563.276 728.926ZM574.135 669.489C571.733 669.489 569.355 669.962 567.136 670.881C564.917 671.8 562.901 673.148 561.203 674.846C559.505 676.544 558.158 678.56 557.239 680.779C556.319 682.998 555.846 685.376 555.846 687.778V728.783H504.911V364.446H539.701V356.588H504.911V341.228H525.485V337.513C525.481 336.364 525.775 335.233 526.338 334.232C526.902 333.23 527.715 332.392 528.7 331.798C535.831 327.905 541.797 322.185 545.988 315.225C551.152 306.853 554.148 297.327 554.703 287.506H593.352C593.99 297.254 597.007 306.698 602.139 315.01C606.352 322.174 612.392 328.091 619.641 332.156C620.639 332.74 621.467 333.574 622.043 334.577C622.619 335.579 622.924 336.714 622.927 337.871V341.585H645.573V728.783H592.137V687.778C592.138 682.976 590.25 678.367 586.882 674.946C583.514 671.524 578.935 669.564 574.135 669.489Z" fill="black"/>
<path d="M260.48 180.105V180.605H260.98C269.133 180.605 275.812 187.283 275.812 195.441C275.812 203.603 269.133 210.281 260.98 210.281H202.332C194.179 210.281 187.5 203.603 187.5 195.441C187.5 187.283 194.179 180.605 202.332 180.605H202.832V180.105C202.832 168.17 212.503 158.5 224.434 158.5C233.138 158.5 240.637 163.645 244.066 171.065L244.302 171.575L244.781 171.281C246.345 170.324 248.181 169.773 250.153 169.773C255.857 169.773 260.48 174.397 260.48 180.105Z" fill="#D9D9D9" stroke="black"/>
<path d="M303.48 169.105V169.605H303.98C312.133 169.605 318.812 176.283 318.812 184.441C318.812 192.603 312.133 199.281 303.98 199.281H245.332C237.179 199.281 230.5 192.603 230.5 184.441C230.5 176.283 237.179 169.605 245.332 169.605H245.832V169.105C245.832 157.17 255.503 147.5 267.434 147.5C276.138 147.5 283.637 152.645 287.066 160.065L287.302 160.575L287.781 160.281C289.345 159.324 291.181 158.773 293.153 158.773C298.857 158.773 303.48 163.397 303.48 169.105Z" fill="#D9D9D9" stroke="black"/>
<path d="M301.48 192.105V192.605H301.98C310.133 192.605 316.812 199.283 316.812 207.441C316.812 215.603 310.133 222.281 301.98 222.281H243.332C235.179 222.281 228.5 215.603 228.5 207.441C228.5 199.283 235.179 192.605 243.332 192.605H243.832V192.105C243.832 180.17 253.503 170.5 265.434 170.5C274.138 170.5 281.637 175.645 285.066 183.065L285.302 183.575L285.781 183.281C287.345 182.324 289.181 181.773 291.153 181.773C296.857 181.773 301.48 186.397 301.48 192.105Z" fill="#F0F0F0" stroke="black"/>
<path d="M312.48 208.105V208.605H312.98C321.133 208.605 327.812 215.283 327.812 223.441C327.812 231.603 321.133 238.281 312.98 238.281H254.332C246.179 238.281 239.5 231.603 239.5 223.441C239.5 215.283 246.179 208.605 254.332 208.605H254.832V208.105C254.832 196.17 264.503 186.5 276.434 186.5C285.138 186.5 292.637 191.645 296.066 199.065L296.302 199.575L296.781 199.281C298.345 198.324 300.181 197.773 302.153 197.773C307.857 197.773 312.48 202.397 312.48 208.105Z" fill="#C6C6C6" stroke="black"/>
<path d="M360.48 192.105V192.605H360.98C369.133 192.605 375.812 199.283 375.812 207.441C375.812 215.603 369.133 222.281 360.98 222.281H302.332C294.179 222.281 287.5 215.603 287.5 207.441C287.5 199.283 294.179 192.605 302.332 192.605H302.832V192.105C302.832 180.17 312.503 170.5 324.434 170.5C333.138 170.5 340.637 175.645 344.066 183.065L344.302 183.575L344.781 183.281C346.345 182.324 348.181 181.773 350.153 181.773C355.857 181.773 360.48 186.397 360.48 192.105Z" fill="#C6C6C6" stroke="black"/>
</g>
<defs>
<clipPath id="clip0_22_2">
<rect width="375" height="667" fill="white"/>
</clipPath>
</defs>
</svg>
