<?xml version="1.0" encoding="UTF-8"?>
<svg id="Layer_1" data-name="Layer 1" xmlns="http://www.w3.org/2000/svg" xmlns:xlink="http://www.w3.org/1999/xlink" viewBox="0 0 1179 2556">
  <defs>
    <style>
      .cls-1 {
        opacity: .6;
      }

      .cls-2 {
        fill: #000072;
      }

      .cls-3 {
        fill: #fff;
      }

      .cls-4 {
        fill: #00454a;
      }

      .cls-5 {
        fill: none;
      }

      .cls-6 {
        fill: #f4ebe5;
      }

      .cls-7 {
        opacity: .15;
      }

      .cls-8 {
        fill: #2fdd54;
      }

      .cls-9 {
        fill: url(#New_Pattern_Swatch_8);
      }

      .cls-10 {
        fill: #ff8327;
      }

      .cls-11 {
        opacity: .2;
      }

      .cls-12 {
        fill: #b76e51;
      }

      .cls-13 {
        opacity: .45;
      }

      .cls-14 {
        fill: url(#New_Pattern_Swatch_8-2);
      }

      .cls-15 {
        fill: #ff395a;
      }
    </style>
    <pattern id="New_Pattern_Swatch_8" data-name="New Pattern Swatch 8" x="0" y="0" width="242.41" height="242.41" patternTransform="translate(9802.89 8052.19) scale(2.3)" patternUnits="userSpaceOnUse" viewBox="0 0 242.41 242.41">
      <g>
        <rect class="cls-5" x="0" y="0" width="242.41" height="242.41"/>
        <g>
          <path class="cls-3" d="M139.97,120.04c-.13,2.43-2,4.08-3,4.96l-.17.15c-1.7,1.51-4.12,1.68-5.89,1.81l-54.04,3.77c-.61.04-1.28.09-1.97.09-1.27,0-2.62-.16-3.83-.8-1.29-.68-2.5-2.23-2.87-3.68-.2-.8-.14-1.54.16-2.16-.11-.09-.19-.2-.24-.34-.11-.32,0-.67.27-.87l.85-.65c12.44-9.55,26.53-20.37,40.51-27.32,1.63-.81,3.46-1.62,5.31-1.61.51-1.63,1.85-3.15,3.55-3.97,1.58-.76,3.25-.81,4.57-.13,2.78,1.43,4.35,4.12,5.98,7.22l6.8,13c1.1,2.1,1.72,3.95,1.87,5.54,1.5,1.68,2.22,3.36,2.13,4.98ZM116.63,93.62s.09.02.14.03c2.61.86,3.98,3.5,5.05,5.91l6.28,14.11c.45,1.01,1.39,3.11.34,4.79-.05.08-.11.15-.17.22,1.83.79,4.97,1.69,6.98-.2,2.01-1.9.74-5.53-.68-8.23l-6.8-13c-1.5-2.87-2.93-5.34-5.3-6.55-.88-.45-2.04-.4-3.17.15-1.24.6-2.23,1.65-2.66,2.78ZM71.16,122.82c17.79.06,35.67-1.31,53.24-4.01,1.06-.16,2.23-.4,2.71-1.17.53-.85.1-2.1-.44-3.32l-6.28-14.11c-.98-2.2-2.1-4.4-4.1-5.06-1.84-.6-3.9.29-5.84,1.25-13.48,6.7-27.14,17.1-39.28,26.42ZM138.4,119.95c.04-.8-.21-1.65-.74-2.53-.24.85-.68,1.58-1.33,2.2-1.22,1.16-2.7,1.55-4.15,1.55-2.12,0-4.18-.85-5.31-1.41-.8.36-1.66.5-2.23.59-17.38,2.68-35.08,4.03-52.68,4.03-.67,0-1.35,0-2.02,0-.01.13-.04.25-.12.37-.24.37-.19.86-.1,1.2.26,1.02,1.17,2.2,2.08,2.68,1.36.72,2.98.67,4.95.53l54.04-3.77c2-.14,3.76-.34,4.96-1.41l.18-.16c.89-.78,2.38-2.09,2.47-3.87Z"/>
          <path class="cls-3" d="M110.57,102.91h0c-.52-.18-1.08-.22-1.64-.12-.55-.07-1.13,0-1.68.22-2.26.87-2.96,3.18-2.65,5.09.32,1.94,1.73,3.95,4.18,4.05.06,0,.13,0,.19,0,2.27,0,4.16-1.69,4.52-4.09.34-2.25-.92-4.47-2.93-5.15Z"/>
          <path class="cls-3" d="M90.44,115.3c-1.13.19-.84,1.95.29,1.76,1.13-.19.84-1.95-.29-1.76Z"/>
          <path class="cls-3" d="M97.66,108.07c-1.13.19-.84,1.95.29,1.76,1.13-.19.84-1.95-.29-1.76Z"/>
          <path class="cls-3" d="M100.69,115.39c-1.13.19-.84,1.95.29,1.76,1.13-.19.84-1.95-.29-1.76Z"/>
          <path class="cls-3" d="M115.43,113.52c-1.13.19-.84,1.95.29,1.76,1.13-.19.84-1.95-.29-1.76Z"/>
        </g>
        <g>
          <path class="cls-3" d="M24.28,53.02c-1.55-.12-3.15-.24-3.93-1.53-.31-.51-.38-1.1-.21-1.71.24-.83.92-1.6,1.83-2.07,1.2-.61,2.63-.73,3.82-.81.03-2.61,1.46-5.21,3.68-6.59,2.14-1.32,4.96-1.49,7.27-.49,2.23-3.92,6.44-6.65,10.94-7.03.01,0,.03,0,.04,0,4.29-.34,8.67,1.46,11.53,4.66,2.03-4.44,6.72-7.55,11.63-7.57,2.58,0,5.11.85,7.22,2.3,2.01-5.12,4.62-9.99,7.77-14.49,1.48-2.11,3.25-2.94,4.72-2.22,1.25.61,1.68,2.14,1.46,3.34-.21,1.14-.9,2.1-1.45,2.88l-9.45,13.26s-.04.03-.06.05c.65.84,1.2,1.76,1.62,2.74,1.3-.64,2.95-.63,4.46.09,1.71.81,2.82,2.33,2.96,3.96.66.01,1.33.09,1.96.29.97.31,1.77.96,2.14,1.75.27.57.29,1.17.07,1.72-.56,1.4-2.13,1.77-3.64,2.13-.79.19-1.61.39-2.2.72-1.28.71-1.54,2.04-1.85,3.57-.1.5-.2,1.02-.35,1.52-1.25,4.29-6.03,7.11-10.09,8.32-4.32,1.28-12.77,2-17.61,2.12-1.59.22-3.57.43-5.68.6-4.27.34-9.05.5-12.04.12-4.2-.54-9.37-2.56-11.29-6.6-.22-.47-.41-.96-.59-1.44-.55-1.46-1.02-2.72-2.39-3.23-.64-.23-1.47-.3-2.28-.36ZM27.33,46.81l10.55-.66,38.27-3.07,11.8-1.16c.21-.02.43-.04.65-.06-.12-1.06-.9-2.06-2.09-2.63-1.33-.63-2.77-.53-3.67.27-.19.17-.46.24-.71.17-.25-.07-.45-.26-.53-.5-1.48-4.49-5.98-7.74-10.71-7.73-4.73.01-9.21,3.29-10.67,7.79-.09.28-.33.48-.61.52-.29.05-.57-.07-.74-.31-2.48-3.44-6.79-5.43-11.01-5.09-.01,0-.03,0-.04,0-4.23.35-8.18,3.05-10.05,6.86-.09.19-.26.33-.47.4-.2.06-.42.04-.61-.07-1.93-1.11-4.51-1.07-6.4.1-1.75,1.08-2.89,3.12-2.95,5.18ZM24.4,51.49c.91.07,1.86.14,2.7.45,2.04.74,2.71,2.54,3.31,4.13.18.47.34.91.54,1.32,1.38,2.91,5.25,5.11,10.1,5.73,3.91.51,11.51.01,16.44-.6.11-.07.25-.11.39-.11.18,0,.37,0,.57-.01.19-.03.38-.05.56-.08.14-.02.28,0,.41.05,4.97-.18,12.55-.91,16.33-2.03,4.68-1.39,8.15-4.18,9.05-7.27.13-.44.22-.9.32-1.39.33-1.66.71-3.55,2.6-4.61.78-.43,1.7-.66,2.59-.87,1.18-.28,2.3-.55,2.57-1.21.06-.15.05-.32-.03-.49-.18-.39-.66-.76-1.21-.94-1.07-.34-2.37-.21-3.53-.1l-11.81,1.16-38.51,3.09-11.64.73c-.25.02-.51.03-.77.05-.94.08-1.91.21-2.7.61-.52.26-.93.7-1.05,1.12-.05.19-.04.35.05.49.37.61,1.52.7,2.73.79Z"/>
          <path class="cls-3" d="M34.72,52.1l45.5-3.14s0,0,0,0c.42-.03.73-.4.71-.82-.03-.42-.4-.74-.82-.71l-45.5,3.14s0,0,0,0c-.42.03-.73.4-.71.82.03.42.4.74.82.71Z"/>
          <path class="cls-3" d="M41.27,30.14c.15.09.31.13.47.12.23-.02.46-.14.59-.36.23-.36.12-.83-.24-1.06-.85-.54-1.47-1.48-1.69-2.59-.22-1.11,0-2.22.58-3.04.63-.88,1.59-1.49,2.61-2.14.31-.19.61-.39.91-.59,1.92-1.3,2.93-2.77,2.98-4.35.04-1.15-.7-2.35-1.79-2.93-.89-.47-1.85-.42-2.58.11-.34.25-.41.73-.16,1.08.25.34.73.41,1.08.16.32-.24.7-.13.95,0,.57.3.99.95.97,1.52-.05,1.33-1.28,2.44-2.31,3.13-.29.19-.58.38-.87.56-1.1.7-2.24,1.42-3.04,2.55-.83,1.17-1.13,2.71-.83,4.23.3,1.52,1.17,2.83,2.38,3.6Z"/>
          <path class="cls-3" d="M50.14,27.01s.09-.01.13-.02c.41-.11.66-.53.55-.94-.3-1.14.25-2.49,1.61-4.03.19-.22.39-.43.59-.65,1.06-1.15,2.16-2.33,2.58-3.94.32-1.23-.02-2.71-.86-3.68-.65-.76-1.5-1.11-2.42-1.03-.42.04-.73.42-.69.84.04.42.41.72.83.69,0,0,.01,0,.02,0,.54-.05.88.25,1.1.5.51.6.73,1.54.54,2.29-.32,1.23-1.24,2.22-2.22,3.28-.21.22-.41.44-.61.67-1.73,1.94-2.38,3.77-1.95,5.44.09.37.44.6.81.57Z"/>
          <path class="cls-3" d="M61.1,20.22l-.32.41c-1.28,1.63-2.7,3.8-2.23,6.18.08.39.43.65.82.62.03,0,.06,0,.09-.01.42-.08.69-.49.61-.9-.34-1.77.85-3.56,1.93-4.93l.32-.4c1.19-1.5,2.55-3.2,2.76-5.29.14-1.43-.54-3-1.69-3.91-.9-.71-1.94-.92-2.92-.58-.4.14-.62.57-.48.98.14.4.57.62.98.48.61-.21,1.13.06,1.47.33.75.59,1.2,1.64,1.11,2.55-.16,1.64-1.31,3.08-2.43,4.48Z"/>
          <path class="cls-3" d="M68.42,37.82c.96-.08.85-1.58-.12-1.5-.96.08-.85,1.58.12,1.5Z"/>
          <path class="cls-3" d="M75.65,40.25c.96-.08.85-1.58-.12-1.5-.96.08-.84,1.58.12,1.5Z"/>
          <path class="cls-3" d="M43.16,42.36c.96-.08.85-1.58-.12-1.5-.96.08-.85,1.58.12,1.5Z"/>
          <path class="cls-3" d="M47.49,40c.96-.08.85-1.58-.12-1.5-.96.08-.85,1.58.12,1.5Z"/>
        </g>
        <g>
          <path class="cls-3" d="M210.62,150.03c5.53,7.41,5.91,18.41.89,26.18-.05.09-.12.16-.2.22-.05.04-.1.07-.16.09,0,0,0,0,0,0h0c-.1.04-.2.06-.31.06-.08,0-.17-.01-.25-.04-6.14-2.08-12.56-4.31-18.76-6.47-6.19-2.15-12.6-4.38-18.72-6.45-.94-.32-1.97-.74-2.45-1.75,0-.01-.01-.02-.02-.03-.33-.74-.27-1.59.18-2.55,1.33-8.56,6.9-15.18,14.92-17.54,8.87-2.61,19.33.87,24.86,8.28ZM205.91,170.08c-1.19.26-2.49.51-3.77.76-.7.14-1.4.28-2.1.41,2.19.76,4.37,1.51,6.54,2.25-.04-1.13-.27-2.28-.67-3.43ZM205.3,168.61c-1.37-2.92-3.68-5.7-6.3-7.89l-6.23,8.02c1.47.51,2.95,1.03,4.44,1.54.04-.01.07-.04.1-.05,1.38-.31,2.98-.62,4.53-.93,1.16-.23,2.36-.46,3.46-.69ZM197.77,159.74c-1.26-.94-2.56-1.74-3.84-2.35-2.05-.97-4.25-1.31-6.46-1.17-.33,3.48-.41,7-.21,10.48,0,.04-.01.07-.02.11,1.33.46,2.65.92,3.96,1.38l6.57-8.45ZM185.88,156.39c-2.51.41-4.96,1.41-7.14,2.78.03.05.07.1.09.16.66,2,1.65,3.85,2.95,5.5.03.03.03.07.05.11,1.28.44,2.55.88,3.83,1.32-.16-3.29-.08-6.6.21-9.88ZM174.73,162.51c1.53.52,3.08,1.05,4.63,1.58-.79-1.26-1.43-2.6-1.92-4.01-.99.74-1.91,1.55-2.71,2.43ZM210.11,174.72c.12-5.71-2.04-11.51-5.91-15.71-4.1-4.44-10.15-7.14-16.2-7.2-.07,0-.15,0-.22,0-6.3,0-12.1,2.87-15.17,7.52-.1.15-.18.29-.26.43-.08.52-.14,1.05-.18,1.58.19.26.55.45.94.61,4.83-5.65,13.83-9.6,21.48-5.98,5.03,2.38,10.18,7.27,12.42,12.61.11.1.21.23.25.4.02.09.02.18,0,.27.56,1.53.9,3.08.9,4.62,0,.06-.02.12-.03.17.66.22,1.32.45,1.97.67ZM209.36,150.97c-5.16-6.9-14.9-10.15-23.16-7.72-6.31,1.86-10.99,6.58-13,12.85,3.56-3.68,8.89-5.87,14.58-5.87.08,0,.16,0,.24,0,6.47.07,12.95,2.95,17.34,7.71,3.67,3.98,5.91,9.32,6.28,14.75,3.08-6.93,2.28-15.63-2.27-21.72Z"/>
          <path class="cls-3" d="M204.62,153.58c.66.63,1.64-.38.99-1.02-.66-.63-1.64.38-.99,1.02Z"/>
          <path class="cls-3" d="M200.49,150.14c-.53.15-.95.59-1.09,1.12-.13.51.02,1.02.41,1.39.29.28.64.42,1.01.42.13,0,.27-.02.4-.06.53-.15.95-.59,1.09-1.12.13-.51-.02-1.02-.41-1.39-.39-.38-.9-.51-1.41-.37Z"/>
          <path class="cls-3" d="M203.11,149.7c.66.63,1.64-.38.99-1.02-.66-.63-1.64.38-.99,1.02Z"/>
        </g>
        <g>
          <path class="cls-3" d="M164.18,71.83c-3.76-3.81-5.62-9.12-4.86-13.84.85-5.28,5.2-9.71,10.12-10.3,3.37-.41,6.54.8,9.61,1.97,1.4.53,2.83,1.07,4.27,1.46,0-.02,0-.03,0-.05.05-.4.08-.8.09-1.21-.21-.14-.35-.38-.35-.65v-2.93c0-.4.31-.74.71-.78.4-.04.77.22.85.61.37,1.67.46,3.38.26,5.08.18-.05.37-.02.54.06,5.36-.9,9.51-.31,12.61,1.84,4.15,2.87,6.05,8.74,4.52,13.95-1.38,4.71-5.25,8.7-10.35,10.68-2.57,1-5.43,1.5-8.47,1.5-2.07,0-4.23-.23-6.44-.7-5.39-1.15-9.93-3.46-13.12-6.71ZM165.3,70.73c2.97,3.02,7.24,5.19,12.32,6.27,5.14,1.09,9.98.84,14.01-.73,4.65-1.81,8.17-5.42,9.41-9.66,1.34-4.58-.3-9.72-3.91-12.22-2.23-1.54-5.12-2.17-8.76-1.92l2.31,3.17c.23.32.19.76-.1,1.04-.29.27-.74.28-1.04.03l-3.42-2.86c.04,1.18-.13,2.37-.51,3.49-.1.3-.37.51-.69.53-.02,0-.03,0-.05,0-.3,0-.57-.17-.71-.44-.51-1.03-.91-2.11-1.19-3.22l-1.61,2.29c-.21.3-.57.81-1.19.98-.47.13-.98.02-1.39-.3-.5-.39-.8-1.05-.78-1.68.02-.68.31-1.25.56-1.75.02-.04.04-.07.05-.11-1.42.89-3.19,1.22-4.83.82-.24-.06-.44-.22-.53-.45-.1-.23-.08-.48.04-.7.79-1.41,2.23-2.4,3.8-2.72-2.11-.78-4.17-1.42-6.27-1.42-.39,0-.79.02-1.19.07-4.25.51-8.02,4.38-8.76,8.99-.68,4.24,1.01,9.02,4.42,12.49Z"/>
          <path class="cls-3" d="M188.64,71.07c.29.03.59.05.88.05,1.99,0,3.98-.76,5.45-2.12,1.68-1.56,2.64-3.86,2.55-6.15-.02-.43-.36-.77-.81-.76-.43.02-.77.38-.76.81.07,1.84-.7,3.69-2.05,4.94-1.35,1.25-3.25,1.87-5.08,1.66-.43-.04-.82.26-.87.69-.05.43.26.82.69.87Z"/>
        </g>
        <g>
          <path class="cls-3" d="M48.01,201.08c.19,1.96.45,4.65-.84,6.79-1.47,2.46-4.23,2.76-6.91,3.04-.99.11-2.01.22-2.95.45.71,4.71,1.12,9.47,1.21,14.23.02.84.01,1.72-.38,2.47-.39.75-1.29,1.3-2.08,1-.92-.34-1.15-1.5-1.25-2.48-.47-4.78-.95-9.57-1.42-14.35-1.96.3-3.7.31-5.22.02-1.44-.27-2.68-.81-3.7-1.61-2.98-2.32-3.07-6-3.07-6.55-.78-6.55-1.28-11.53-1.77-16.34-.49-4.82-1-9.8-1.77-16.37-.16-1.33-.25-2.84.68-3.97.88-1.07,2.25-1.3,3.57-1.45l16.25-1.78c1.11-.12,2.63-.29,3.92.39,2.03,1.07,2.53,3.52,2.74,5.78l2.96,30.71ZM46.45,201.23l-2.96-30.71c-.19-1.94-.55-3.83-1.91-4.54-.23-.12-.48-.2-.74-.25-.67-.13-1.44-.06-2.28.03l-16.25,1.78c-1,.11-2.02.27-2.53.89-.54.65-.46,1.73-.34,2.78.78,6.57,1.29,11.56,1.78,16.39.49,4.82,1,9.8,1.77,16.37,0,.04,0,.08,0,.12,0,.03-.05,3.38,2.48,5.34,2.3,1.78,6.01,1.96,11.03.53,1.16-.33,2.41-.47,3.61-.59,2.5-.27,4.66-.5,5.72-2.29.94-1.58.84-3.58.62-5.84Z"/>
          <path class="cls-3" d="M38.11,172.64c-.07-.67-.44-1.2-1.02-1.47-.63-.28-1.4-.2-1.98.21-.55.39-.82,1.01-.76,1.7l2.83,28.97c.08.85.65,1.46,1.43,1.6.18.03.38.04.58.02.93-.09,1.86-.85,1.74-2.07l-2.83-28.97Z"/>
          <path class="cls-3" d="M29.84,173.32c-.07-.67-.44-1.2-1.02-1.47-.63-.28-1.41-.2-1.98.21-.55.39-.82,1.01-.76,1.7h0s2.83,28.97,2.83,28.97c.08.85.65,1.46,1.43,1.6.18.03.38.04.58.02.93-.09,1.86-.85,1.74-2.07l-2.83-28.97Z"/>
        </g>
        <path class="cls-3" d="M120.79,193.92s-.08,0-.13,0c-.3,1.69-1.41,3.3-3.08,4.33-2.02,1.25-4.42,1.49-6.05,1.57-6.13.28-12.04-1.45-16.51-2.99-1.53-.53-3.07-1.12-4.5-1.86-1.73-.9-3.29-2.04-4.48-3.58-1.97-2.56-2.47-6.69-.46-9.3-1.31-.75-2.06-2.39-1.66-3.88.39-1.41,2.32-2.7,3.98-2.86.17-1.84,1.34-3.63,3.14-4.75,2.02-1.25,4.42-1.49,6.05-1.57,6.13-.28,12.04,1.45,16.51,2.98,3.38,1.16,6.81,2.63,8.98,5.45,2.02,2.63,2.49,6.9.3,9.49.7.68,1.03,1.71.99,3.1-.06,1.79-1.35,3.41-3.09,3.87ZM89.45,175.59l31.84,10.61c.06,0,.11,0,.17,0,1.97-1.96,1.57-5.57-.12-7.77-1.05-1.36-2.44-2.37-3.96-3.16-1.39-.73-2.88-1.28-4.29-1.76-4.34-1.49-10.06-3.17-15.93-2.9-2.31.11-3.99.53-5.3,1.33-1.18.73-2.31,2.1-2.42,3.65ZM86.71,180.88c.06.02.1.05.15.08.14-.03.28-.03.42.02l32.92,10.97c.19.06.33.2.43.36.94-.36,1.64-1.31,1.67-2.31.04-1.26-.29-1.81-.71-2.09-.08,0-.16,0-.24-.04l-32.82-10.94s0,0,0,0c-.94-.24-2.84.8-3.08,1.69-.25.9.37,2,1.27,2.26ZM119.18,193.27l-31.97-10.66c-2.02,1.95-1.63,5.6.08,7.82,2.01,2.61,5.31,3.91,8.24,4.92,4.34,1.49,10.06,3.17,15.93,2.9,2.31-.11,3.99-.53,5.3-1.33,1.18-.73,2.32-2.1,2.42-3.65Z"/>
        <rect class="cls-5" x="0" y="0" width="242.41" height="242.41"/>
        <g>
          <path class="cls-5" d="M192.55,242.37s0,.03,0,.04h-29.45c-.04-.67-.07-1.33-.07-1.99,0-3.38-.77-5.72-2.35-7.15-.55-.49-1.15-.84-1.73-1.17-.53-.3-1.04-.59-1.45-.97-1.69-1.54-1.63-4.55-.51-6.4,1.5-2.47,4.31-3.35,5.84-3.66l21-3.96c1.38-.27,2.89-.57,4.36-.57.87,0,1.73.1,2.55.37,1.95.64,3.83,2.7,3.46,4.9-.18,1.11-.89,2.06-1.63,3.06-.66.89-1.34,1.81-1.73,2.93-.72,2.05-.29,4.29.06,6.09l1.64,8.46ZM166.51,228.11c-1.4.11-1.23,2.28.17,2.17,1.4-.11,1.23-2.28-.17-2.17ZM170.3,230.01c-1.4.11-1.23,2.28.17,2.17,1.4-.11,1.23-2.28-.17-2.17ZM172.7,226.02c-.45-.38-1.15-.33-1.54.12l-.22.26c-.38.45-.33,1.15.12,1.54.45.38,1.15.33,1.54-.12.07-.09.15-.17.22-.26.38-.45.33-1.15-.12-1.54Z"/>
          <g>
            <path class="cls-5" d="M163.72,4.85c1.1,5.67,2.27,5.66,12.53,3.83l12.12-2.16c1.6-.28,3.22-.66,3.99-1.86.77-1.21.53-2.96.2-4.66h-29.45c.09,1.6.29,3.23.61,4.85Z"/>
            <path class="cls-3" d="M192.56,0c.33,1.7.58,3.46-.2,4.66-.77,1.2-2.39,1.58-3.99,1.86l-12.12,2.16c-10.26,1.83-11.43,1.85-12.53-3.83-.32-1.62-.52-3.25-.61-4.85h-1.69c.1,1.71.31,3.44.65,5.17.93,4.78,2.6,6.27,6.22,6.27,2.05,0,4.73-.48,8.26-1.11l1.2-.21h0l10.92-1.94c1.88-.33,3.98-.84,5.11-2.61,1.05-1.64.85-3.64.49-5.57h-1.71Z"/>
          </g>
          <path class="cls-3" d="M163.05,240.41c0-3.38-.77-5.72-2.35-7.15-.55-.49-1.15-.84-1.73-1.17-.53-.3-1.04-.59-1.45-.97-1.69-1.54-1.63-4.55-.51-6.4,1.5-2.47,4.31-3.35,5.84-3.66l21-3.96c1.38-.27,2.89-.57,4.36-.57.87,0,1.73.1,2.55.37,1.95.64,3.83,2.7,3.46,4.9-.18,1.11-.89,2.06-1.63,3.06-.66.89-1.34,1.81-1.73,2.93-.72,2.05-.29,4.29.06,6.09l1.64,8.46s0,.03,0,.04h1.71c-.02-.12-.04-.24-.07-.36l-1.64-8.46c-.31-1.6-.69-3.59-.12-5.22.31-.88.89-1.66,1.5-2.49.83-1.12,1.69-2.28,1.94-3.79.52-3.12-1.93-5.9-4.59-6.78-2.63-.87-5.48-.31-7.76.14l-21,3.96c-3.13.62-5.6,2.2-6.96,4.44-1.68,2.76-1.31,6.58.81,8.52.55.5,1.16.85,1.74,1.18.53.3,1.03.59,1.44.96,1.21,1.09,1.79,3.02,1.8,5.9,0,.66.02,1.32.06,1.99h1.69c-.04-.67-.07-1.33-.07-1.99Z"/>
          <path class="cls-3" d="M166.51,228.11c-1.4.11-1.23,2.28.17,2.17,1.4-.11,1.23-2.28-.17-2.17Z"/>
          <path class="cls-3" d="M171.17,226.13l-.22.26c-.38.45-.33,1.15.12,1.54.45.38,1.15.33,1.54-.12.07-.09.15-.17.22-.26.38-.45.33-1.15-.12-1.54-.45-.38-1.15-.33-1.54.12Z"/>
          <path class="cls-3" d="M170.3,230.01c-1.4.11-1.23,2.28.17,2.17,1.4-.11,1.23-2.28-.17-2.17Z"/>
        </g>
        <g>
          <path class="cls-5" d="M0,115.09v-18.24c1.77.11,3.88.89,6.07,2.61,1.14.91,2.08,2.02,3.07,3.21.78.94,1.59,1.9,2.52,2.76,1.88,1.75,4.17,2.95,6.38,4.12,2.51,1.32,4.87,2.57,6.68,4.53,3.54,3.84,3.96,10.19.95,14.45-3.01,4.27-9.13,6.01-13.93,3.97-3.5-1.49-6.42-4.75-8.7-9.71-.84-1.82-1.55-3.74-2.25-5.61-.26-.7-.52-1.4-.79-2.1ZM6.68,119.37c.41,1.24,1.11,2.32,1.93,3.28.39.49.82.94,1.28,1.36.46.44.92.86,1.35,1.24.18.17.42.23.65.19.19.11.39.21.58.31,1.07.52,2.14.81,3.13.87,1.09.07,2.09-.13,2.93-.61,2.5-1.43,2.93-4.86,1.89-7.22-1.12-2.53-3.54-4.17-5.27-5.18-1.43-.84-3.57-1.87-5.63-1.19-2.72.91-3.69,4.39-2.85,6.95Z"/>
          <path class="cls-5" d="M239.08,97.62c-1.67,1.12-2.19,3.27-1.43,5.9.74,2.55,1.52,4.58,2.46,6.39.88,1.68,1.6,3.44,2.27,5.19v-18.24s0,0,0,0c-1.34-.09-2.48.21-3.3.76Z"/>
          <path class="cls-3" d="M25.88,113.02c-1.99-2.16-4.59-3.53-7.1-4.85-2.12-1.12-4.32-2.28-6.05-3.88-.85-.79-1.59-1.68-2.38-2.62-1-1.19-2.03-2.43-3.3-3.43C4.72,96.4,2.24,95.39,0,95.27v1.59c1.77.11,3.88.89,6.07,2.61,1.14.91,2.08,2.02,3.07,3.21.78.94,1.59,1.9,2.52,2.76,1.88,1.75,4.17,2.95,6.38,4.12,2.51,1.32,4.87,2.57,6.68,4.53,3.54,3.84,3.96,10.19.95,14.45-3.01,4.27-9.13,6.01-13.93,3.97-3.5-1.49-6.42-4.75-8.7-9.71-.84-1.82-1.55-3.74-2.25-5.61-.26-.7-.52-1.4-.79-2.1v4.46c.5,1.31,1.02,2.63,1.61,3.91,2.45,5.32,5.65,8.85,9.52,10.5,1.29.55,2.66.86,4.04.94,4.5.28,9.17-1.75,11.79-5.45,3.42-4.85,2.94-12.06-1.08-16.42Z"/>
          <path class="cls-3" d="M240.11,109.9c-.94-1.81-1.73-3.84-2.46-6.39-.76-2.63-.24-4.78,1.43-5.9.82-.55,1.96-.85,3.3-.76,0,0,0,0,0,0v-1.59c-1.56-.09-3,.25-4.18,1.04-2.24,1.5-3.01,4.36-2.06,7.64.77,2.65,1.59,4.77,2.58,6.68,1.18,2.27,2.1,4.73,2.98,7.12.22.6.45,1.2.68,1.81v-4.46c-.67-1.75-1.4-3.51-2.27-5.19Z"/>
          <path class="cls-3" d="M8.61,122.64c.39.49.82.94,1.28,1.36.46.44.92.86,1.35,1.24.18.17.42.23.65.19.19.11.39.21.58.31,1.07.52,2.14.81,3.13.87,1.09.07,2.09-.13,2.93-.61,2.5-1.43,2.93-4.86,1.89-7.22-1.12-2.53-3.54-4.17-5.27-5.18-1.43-.84-3.57-1.87-5.63-1.19-2.72.91-3.69,4.39-2.85,6.95.41,1.24,1.11,2.32,1.93,3.28Z"/>
        </g>
      </g>
    </pattern>
    <pattern id="New_Pattern_Swatch_8-2" data-name="New Pattern Swatch 8" patternTransform="translate(9802.89 8609.94) scale(2.3)" xlink:href="#New_Pattern_Swatch_8"/>
  </defs>
  <rect class="cls-6" width="1179" height="2556"/>
  <g>
    <rect class="cls-9" x="-790.54" y="-478.45" width="2760.07" height="1840.05"/>
    <rect class="cls-14" x="-790.54" y="1194.4" width="2760.07" height="1840.05"/>
  </g>
  <path class="cls-4" d="M388.87,278.64h-77.52v45h68.23l-2.32,38.91h-65.91v72.59h-46.16v-197.14h126.3l-2.61,40.65Z"/>
  <path class="cls-4" d="M827,235.09c64.75,0,93.78,30.78,93.78,101.33s-27.87,101.91-93.78,101.91c-17.42,0-33.97-.87-56.33-3.48v-196.56c19.45-2.32,40.07-3.19,56.33-3.19ZM816.84,277.48v119.04c4.65.29,9.29.58,15.1.58,30.2,0,40.65-18,40.65-60.68s-11.03-59.81-40.65-59.81c-5.81,0-10.45.29-15.1.87Z"/>
  <path class="cls-4" d="M320.7,546.7l22.29-74.98h31.61l6.22,117.3h-26.09l-3.46-66.86-20.21,66.86h-20.9l-20.04-66.86-3.28,66.86h-24.88l6.39-117.3h30.58l21.77,74.98Z"/>
  <path class="cls-4" d="M396.71,589.02v-117.3h75.15l-1.55,24.19h-46.13v22.8h42.5l-1.38,22.98h-41.12v23.15h47.68l-1.55,24.19h-73.6Z"/>
  <path class="cls-4" d="M542.86,546.7l22.29-74.98h31.62l6.22,117.3h-26.09l-3.46-66.86-20.21,66.86h-20.9l-20.04-66.86-3.28,66.86h-24.88l6.39-117.3h30.58l21.77,74.98Z"/>
  <path class="cls-4" d="M662.75,468.61c27.12,0,48.03,17.45,48.03,61.85s-20.9,61.68-48.03,61.68-48.03-17.28-48.03-61.68,20.9-61.85,48.03-61.85ZM662.75,567.6c12.09,0,19.52-11.92,19.52-37.14s-7.43-37.14-19.52-37.14-19.52,12.09-19.52,37.14,7.43,37.14,19.52,37.14Z"/>
  <path class="cls-4" d="M764.85,469.82c31.79,0,46.64,16.58,46.64,40.25,0,17.1-6.91,28.33-20.04,34.38l.86,1.21c8.46,13.48,14.34,19.18,27.3,19.18l-1.38,24.53c-25.05,0-32.13-8.29-48.2-30.75l-6.22-8.64h-10.37v39.04h-27.47v-117.13c13.13-1.38,24.7-2.07,38.87-2.07ZM782.47,509.73c0-10.71-5.36-17.45-17.45-17.45-3.97,0-7.95.35-11.58.86v34.55h9.5c13.65,0,19.52-6.05,19.52-17.97Z"/>
  <path class="cls-4" d="M852.95,495.39c0,26.09,2.94,33.69,17.28,33.69s17.1-7.43,17.1-33.69v-23.67h27.81v31.1c0,27.3-5.18,43.71-31.27,48.72v37.49h-27.64v-37.49c-25.91-5.01-30.92-21.42-30.92-48.72v-31.1h27.64v23.67Z"/>
  <g>
    <g>
      <path class="cls-15" d="M521.1,442.05c-9.43,2.23-19.3,1.29-28.24-2.48-3.7-1.57-7.93-3.55-12.21-5.9-1.77-.98-3.82-1.34-5.82-1.02-4.82.76-9.48,1.17-13.49,1.38-9.69.49-19.28-1.99-27.38-7.32-18.4-12.07-30.54-31.5-36.65-52.83-3.21-11.22-4.76-22.98-4.65-34.46.15-21.49,6.07-42.06,17.49-56.48,31.91-40.3,64.54-29.55,76.4-21.73,9.07,5.99,14.75,8.91,17.52,10.17,1.33.61,2.76.86,4.22.74.82-.07,1.88-.17,3.21-.34,3.56-.46,9.02-1.39,16.73-3.24,9.73-2.32,29.67-2.49,46.26,14.69,6.96,7.19,13.32,17.43,18.11,31.83,14.81,44.49-17.71,114.28-71.49,126.98Z"/>
      <g class="cls-7">
        <path class="cls-2" d="M516.35,432.78c-8.73,2.08-17.87,1.2-26.13-2.3-3.42-1.44-7.36-3.27-11.3-5.47-1.65-.91-3.54-1.25-5.4-.95-4.46.71-8.78,1.09-12.49,1.28-8.96.46-17.85-1.83-25.35-6.77-14.13-9.28-24.28-23.24-30.56-39.02,22.46,15.21,56.54,28.72,98.86,15.04,51.77-16.74,63.71-83.48,66.16-103.75,4.72,6.18,8.99,14.14,12.39,24.39,13.71,41.18-16.39,105.8-66.19,117.56Z"/>
      </g>
      <g class="cls-13">
        <path class="cls-3" d="M410.86,353.13c-4.8-29.81,9.76-66.53,38.03-79.88,10.76-5.03,20.93,7.72,13.86,17.06-4.02,5.33-8.88,9.85-13.11,14.98-12.9,14.49-22.9,31.32-32.32,48.61-1.35,2.99-5.87,2.47-6.46-.76h0Z"/>
      </g>
      <g class="cls-13">
        <path class="cls-3" d="M511.22,272.77c-4.1,3.55-13.16,1.71-28.63-5.08-3.16-1.39-6.11-2.46-8.82-3.29-12.33-3.76-25.55-2.19-36.76,4.18-34.16,19.41-43.91,69.29-44.35,70.84.15-21.49,6.07-42.06,17.49-56.48,31.91-40.3,64.54-29.55,76.4-21.73,9.07,5.99,14.75,8.91,17.52,10.17,1.33.61,2.76.86,4.22.74.82-.07,1.88-.17,3.21-.34.1.41.03.74-.27.98Z"/>
      </g>
      <path class="cls-2" d="M510.81,446.63c-6.52,0-13.03-1.33-19.25-3.95-4.44-1.88-8.65-3.91-12.53-6.06h0c-1.11-.61-2.41-.84-3.66-.65-4.37.69-9.02,1.17-13.85,1.41-10.56.56-20.75-2.17-29.41-7.86-21.37-14.02-36.39-39.16-41.22-68.98-4.86-30.08,1.5-60.61,16.61-79.7,38.34-48.41,76.65-25.24,80.9-22.44,9.02,5.95,14.56,8.77,17.06,9.92.8.37,1.65.52,2.54.45,2.74-.23,8.91-.98,19.42-3.5,4.95-1.19,48.88-9.87,68.36,48.73,7.68,23.1,3.23,53.97-11.61,80.58-14.72,26.38-37.43,44.88-62.3,50.76-3.65.86-7.36,1.29-11.07,1.29ZM476.25,429.16c2.1,0,4.19.53,6.04,1.56h0c3.67,2.03,7.67,3.96,11.89,5.75,8.43,3.56,17.47,4.36,26.15,2.31,23.04-5.44,44.17-22.75,57.97-47.48,13.95-25.01,18.21-53.81,11.1-75.17-17.59-52.89-56.07-45.34-60.4-44.3-10.95,2.62-17.5,3.42-20.44,3.66-2.03.17-4.06-.19-5.91-1.04-2.68-1.23-8.57-4.23-17.96-10.42-3.72-2.45-37.3-22.7-71.9,21-13.97,17.65-19.81,46.17-15.24,74.44,4.52,27.96,18.47,51.44,38.26,64.43,7.46,4.89,16.23,7.23,25.37,6.76,4.58-.23,9-.69,13.14-1.34.64-.1,1.28-.15,1.93-.15Z"/>
    </g>
    <g>
      <path class="cls-8" d="M509.38,253.57c24.99-4.57,29.01,12.18,51.17,6.44,15.37-3.98,19.06-21.58,19.88-31.98.37-4.59.17-7.78.17-7.78-10.71,9.78-16.96,6.75-41.39,6.99-19.91.19-27.18,17.57-29.19,23.99-.46,1.44-.64,2.34-.64,2.34Z"/>
      <g class="cls-7">
        <path class="cls-2" d="M509.38,253.57c24.99-4.57,29.01,12.18,51.17,6.44,15.37-3.98,19.06-21.58,19.88-31.98-.4-.86-.64-1.37-.64-1.37,0,0-6.23,27.87-33.89,20.84-26.54-6.74-28.86-1.4-35.88,3.73-.46,1.44-.64,2.34-.64,2.34Z"/>
      </g>
      <g class="cls-1">
        <path class="cls-3" d="M568.93,232.17c-4.79.74-9.82,1.05-14.71.82l-5.09-.27c-.61-.05-1.15.42-1.18,1.04-.03.48.27.91.7,1.08,5.05,1.99,10.67,2.63,16.03,1.68,1.45-.4,7.04-1.3,5.82-3.7-.32-.57-.97-.79-1.56-.65h0Z"/>
      </g>
      <path class="cls-2" d="M507.52,251.25c14.78-10.69,34.13-13.91,51.68-9.7.36.07.31.64-.08.63-8.64.16-17.14,1.06-25.42,3.32-7.94,2.19-16.07,5.82-22.65,10.51-3.13,2.2-6.55-2.37-3.53-4.76h0Z"/>
      <path class="cls-2" d="M551.69,264.18c-6.77,0-11.85-2.13-16.82-4.22-6.86-2.88-13.34-5.6-24.96-3.48-.97.18-1.97-.14-2.65-.85-.69-.71-.98-1.71-.78-2.68.06-.28,6.19-28.43,32.7-28.69,5.51-.05,10.02.05,14,.15,13.45.33,17.98.43,25.42-6.36.84-.77,2.05-.99,3.11-.56,1.06.43,1.78,1.43,1.85,2.57.09,1.49,1.99,36.53-22.26,42.81-3.58.93-6.74,1.31-9.6,1.31ZM517.67,249.8c8.33,0,14.19,2.46,19.5,4.69,6.72,2.82,12.52,5.26,22.63,2.64,14.28-3.7,17.22-21.38,17.76-30.78-6.99,4.43-13.54,4.27-24.53,4.01-3.93-.1-8.39-.2-13.8-.15-16.23.16-23.15,12.95-25.69,19.79,1.44-.13,2.81-.19,4.12-.19Z"/>
    </g>
    <g>
      <path class="cls-12" d="M506.2,268s-4.09-30.72-12.31-51.5c0,0,2.96-5.99,7.66-4.57,1.66.5,2.89,1.88,3.44,3.52,2.17,6.57,8.75,29.35,4.49,52.58l-3.27-.04Z"/>
      <g class="cls-1">
        <path class="cls-3" d="M498.47,226.84s2.96-5.99,7.66-4.57c.34.1.65.25.95.42-.81-3.18-1.58-5.67-2.09-7.24-.54-1.64-1.78-3.02-3.44-3.52-4.7-1.42-7.66,4.57-7.66,4.57,8.22,20.78,12.31,51.5,12.31,51.5l2.94.03c-1.9-10.8-5.45-27.99-10.67-41.19Z"/>
      </g>
      <path class="cls-2" d="M509.47,271s-.02,0-.03,0l-3.27-.04c-1.47-.02-2.71-1.11-2.91-2.57-.04-.3-4.14-30.6-12.13-50.8-.31-.78-.27-1.65.1-2.41,1.51-3.06,5.57-7.79,11.17-6.09,2.51.76,4.52,2.79,5.4,5.43,2.19,6.63,8.98,30.11,4.59,54.05-.26,1.41-1.49,2.43-2.92,2.43ZM497.19,216.81c5.23,13.78,8.7,31.05,10.5,41.51,1.32-19.16-3.73-36.5-5.53-41.93-.26-.8-.83-1.41-1.48-1.61-1.42-.43-2.75.98-3.5,2.03Z"/>
    </g>
  </g>
  <g>
    <g>
      <path class="cls-8" d="M783.13,280.66s-47.25,4.53-90.98-41.61v-.02c-.52-.55-1.05-1.11-1.57-1.67,0,0,3.77-1.69,10.33-2.8,10.2-1.71,27.11-2.02,46.88,7.74,24.47,12.07,32.13,27.74,34.41,34.72.22.66.39,1.26.53,1.75.31,1.2.4,1.88.4,1.88Z"/>
      <g class="cls-7">
        <path class="cls-2" d="M783.13,280.66s-47.25,4.53-90.98-41.61v-.02c-.52-.55-1.05-1.11-1.57-1.67,0,0,3.77-1.69,10.33-2.8,0,0,33.92,33.33,81.82,44.21.31,1.2.4,1.88.4,1.88Z"/>
      </g>
      <g class="cls-1">
        <path class="cls-3" d="M782.2,277.02c-30.47-44.14-84.74-34.63-84.74-34.63-2.29-1.25-4.02-2.36-5.31-3.34v-.02c-.52-.55-1.05-1.11-1.57-1.67,0,0,24.75-11.08,57.2,4.93,24.47,12.07,32.13,27.74,34.41,34.72Z"/>
      </g>
      <path class="cls-2" d="M690.76,234.35c12.55,1.58,24.15,6.04,35.65,10.91,11.04,4.87,22.78,10.81,32.23,17.54,0,0-8.33-3.77-8.33-3.77-13.74-6.03-28.01-11.87-42.56-15.53-5.67-1.35-11.81-2.77-17.5-3.15-4.01-.32-3.54-6.36.51-6h0Z"/>
      <path class="cls-2" d="M779.18,283.82c-12.99,0-53.21-3.59-90.8-44.42-.66-.71-.93-1.7-.74-2.65.2-.95.84-1.75,1.72-2.14,1.06-.48,26.42-11.46,59.76,4.98,33.51,16.53,36.87,39.7,37,40.68.11.81-.12,1.63-.63,2.26-.51.64-1.25,1.04-2.07,1.12-.32.03-1.8.16-4.24.16ZM696.04,238.73c34.8,35.58,71.75,38.91,83.21,39.02-2.22-6.5-9.63-21.33-32.8-32.75-23.1-11.39-42.26-8.46-50.41-6.27Z"/>
    </g>
    <g>
      <path class="cls-12" d="M680.8,255.21s3.68-17.37,1.11-31.14l10.52-6.85s2.98,22.07-11.63,37.98Z"/>
      <path class="cls-2" d="M680.8,258.22c-.47,0-.94-.11-1.38-.33-1.21-.62-1.85-1.97-1.57-3.3.04-.17,3.52-16.96,1.1-29.96-.22-1.2.3-2.41,1.32-3.08l10.53-6.85c.87-.56,1.96-.64,2.9-.21.94.43,1.59,1.31,1.73,2.34.13.96,2.99,23.66-12.4,40.42-.58.64-1.4.97-2.22.97ZM685.2,225.53c.82,5.69.74,11.74.35,16.92,3.34-7.55,4.06-15.07,4.11-19.82l-4.47,2.91Z"/>
    </g>
    <g>
      <circle class="cls-10" cx="658.58" cy="343.23" r="94.48" transform="translate(-49.81 566.22) rotate(-45)"/>
      <g class="cls-7">
        <path class="cls-2" d="M738.11,370.89c-10.02,34.96-38.48,59.65-71.8,66.53-11.06.92-22.46-.13-33.76-3.37-30.95-8.87-53.83-32.21-63.46-60.55,10.38,11,23.75,19.45,39.34,23.92,46.26,13.26,94.52-13.49,107.78-59.75,6.3-21.99,3.56-44.42-6.03-63.34,26.2,23.4,38.26,60.53,27.93,96.56Z"/>
      </g>
      <g class="cls-1">
        <path class="cls-3" d="M570.21,326.83c14.38-50.16,66.7-79.16,116.85-64.78,31.77,9.11,55.03,33.44,64.18,62.79-6.69-33.58-31.44-62.34-66.63-72.43-50.16-14.38-102.48,14.62-116.85,64.78-5.27,18.39-4.69,37.07.61,54.06-2.85-14.29-2.45-29.45,1.84-44.43Z"/>
      </g>
      <g class="cls-11">
        <path class="cls-3" d="M668.86,271.04c-26.7-7.76-57.17,12.12-68.49,26.29-5.69,6.54-2.44,12.96,4.36,11.51,21.99-4.62,43.67-16.81,60.17-24.29,7.34-3.47,10.38-11.55,3.95-13.51Z"/>
      </g>
      <path class="cls-2" d="M658.72,441.14c-9.06,0-18.17-1.27-27.11-3.83-25.13-7.21-45.95-23.76-58.62-46.62-12.67-22.86-15.69-49.29-8.48-74.42,7.2-25.13,23.76-45.95,46.62-58.62,22.86-12.68,49.3-15.69,74.42-8.48,51.87,14.87,81.98,69.17,67.11,121.05-7.2,25.13-23.76,45.95-46.62,58.62-14.72,8.16-30.93,12.32-47.31,12.32ZM658.45,252.1c-15.25,0-30.33,3.87-44.03,11.47-21.28,11.8-36.69,31.17-43.4,54.56-6.71,23.39-3.9,47.99,7.9,69.27,11.8,21.28,31.17,36.69,54.56,43.4,23.39,6.71,47.99,3.9,69.27-7.9,21.28-11.8,36.69-31.17,43.4-54.56h0c13.84-48.28-14.18-98.82-62.46-112.66-8.33-2.39-16.81-3.57-25.23-3.57Z"/>
    </g>
  </g>
</svg>