<svg width="596" height="791" viewBox="0 0 596 791" fill="none" xmlns="http://www.w3.org/2000/svg">
<path d="M427.21 113.55H168.07C135.69 113.55 109.44 139.799 109.44 172.18V618.69C109.44 651.07 135.69 677.32 168.07 677.32H427.21C459.59 677.32 485.84 651.07 485.84 618.69V172.18C485.84 139.799 459.59 113.55 427.21 113.55Z" fill="#91A4EA"/>
<mask id="mask0_31_41" style="mask-type:luminance" maskUnits="userSpaceOnUse" x="109" y="113" width="377" height="565">
<path d="M427.21 113.55H168.07C135.69 113.55 109.44 139.799 109.44 172.18V618.69C109.44 651.07 135.69 677.32 168.07 677.32H427.21C459.59 677.32 485.84 651.07 485.84 618.69V172.18C485.84 139.799 459.59 113.55 427.21 113.55Z" fill="white"/>
</mask>
<g mask="url(#mask0_31_41)">
<path d="M534.7 421.32C517.31 484.39 476.02 542.81 418.08 586.32C360.14 629.83 285.81 658.23 208.16 666.54C186.77 668.83 164.66 669.73 144.97 677.01C125.28 684.29 108.18 700.01 109.5 717.79C110.55 731.89 123.03 744.07 138.05 750.8C153.08 757.53 170.42 759.7 187.41 761.23C242.7 766.18 298.75 765.37 353.79 758.82C416.39 751.37 483.03 733.37 517.4 689.52C538.2 662.98 544.22 630.54 548.12 599.09C555.53 539.32 557.04 479.05 552.65 419.07" fill="#8396CC"/>
</g>
<path d="M427.21 113.55H168.07C135.69 113.55 109.44 139.799 109.44 172.18V618.69C109.44 651.07 135.69 677.32 168.07 677.32H427.21C459.59 677.32 485.84 651.07 485.84 618.69V172.18C485.84 139.799 459.59 113.55 427.21 113.55Z" stroke="#00454A" stroke-width="13.96" stroke-miterlimit="10"/>
<path d="M339.12 249.75C321.22 268.63 304.9 304.01 304.9 304.01L317.81 329.29L341.63 313.85C341.63 313.85 345.18 275.05 339.13 249.75H339.12Z" fill="#2FDD54"/>
<g opacity="0.6">
<path d="M337.42 264.29C341.18 279.97 341.24 300.83 340.74 314.43L341.63 313.85C341.63 313.85 345.18 275.05 339.13 249.75C321.23 268.63 304.91 304.01 304.91 304.01C304.91 304.01 306.75 307.62 307.69 309.46C313.75 297.69 325.22 277.16 337.42 264.29Z" fill="white"/>
</g>
<path d="M317.81 333.14C317.48 333.14 317.14 333.1 316.81 333.01C315.76 332.73 314.87 332.01 314.38 331.04L301.47 305.76C300.93 304.71 300.91 303.47 301.4 302.4C302.08 300.93 318.19 266.23 336.32 247.1C337.29 246.08 338.75 245.67 340.11 246.03C341.47 246.4 342.53 247.48 342.86 248.85C349 274.47 345.6 312.59 345.46 314.2C345.35 315.38 344.71 316.44 343.72 317.08L319.9 332.52C319.27 332.93 318.54 333.14 317.81 333.14ZM309.2 303.95L319.3 323.73L337.94 311.65C338.47 304.6 340.05 278.83 336.85 258.23C323.77 274.47 312.26 297.59 309.19 303.95H309.2Z" fill="#000072"/>
<path d="M385.94 304.05C385.94 304.05 380.88 305 373.96 308.51C365.26 312.95 353.61 321.43 345.28 337.18C341.38 344.52 338.21 353.44 336.41 364.27C336.41 364.27 327.51 358.73 311.41 353.16C311.41 353.16 314.03 276.66 385.94 304.05Z" fill="#2FDD54"/>
<g opacity="0.15">
<path d="M373.95 308.51C365.25 312.95 353.6 321.43 345.27 337.18C342.42 338.24 340.59 338.92 340.45 339.04C339.56 339.86 332.5 343.18 332.5 343.18L319.39 337.29C319.39 337.29 333.67 302.78 373.94 308.5L373.95 308.51Z" fill="#000072"/>
</g>
<g opacity="0.6">
<path d="M373.99 308.51C380.9 305.01 385.93 304.05 385.93 304.05C314.02 276.65 311.42 353.15 311.42 353.15C312.07 353.37 312.68 353.6 313.3 353.82C316.05 336.57 327.46 297.6 373.99 308.51Z" fill="white"/>
</g>
<path d="M336.4 368.12C335.69 368.12 334.99 367.93 334.37 367.54C334.28 367.49 325.57 362.13 310.16 356.79C308.56 356.24 307.52 354.71 307.57 353.02C307.62 351.56 309.06 316.98 332.41 301.48C346.33 292.23 364.8 291.88 387.31 300.46C388.92 301.07 389.93 302.68 389.77 304.4C389.62 306.12 388.34 307.52 386.64 307.84C385.09 308.14 348.42 315.78 340.2 364.91C339.99 366.18 339.16 367.25 337.99 367.78C337.48 368.01 336.94 368.12 336.4 368.12ZM315.49 350.51C323.65 353.48 329.77 356.35 333.63 358.34C340.92 325.08 361.24 310.39 374.1 304.27C358.86 300.29 346.31 301.5 336.7 307.87C320.15 318.84 316.33 342.44 315.49 350.51Z" fill="#000072"/>
<path d="M311.42 353.15C311.42 353.15 334.47 297.761 397.94 335.821C397.94 335.821 357.22 334.371 339.76 368.221L311.41 353.161L311.42 353.15Z" fill="#2FDD54"/>
<g opacity="0.15">
<path d="M321.02 355.4C321.02 355.4 336.95 323.05 382.97 335.7C382.97 335.7 352.59 341.34 340.74 366.4L321.02 355.4Z" fill="#000072"/>
</g>
<g opacity="0.6">
<path d="M388.8 336.4C394.32 335.69 397.94 335.81 397.94 335.81C334.47 297.75 311.42 353.14 311.42 353.14L315.67 355.4C322.24 344.08 344.03 315.62 388.81 336.4H388.8Z" fill="white"/>
</g>
<path d="M339.77 372.06C339.15 372.06 338.53 371.91 337.96 371.61L309.61 356.55C307.86 355.62 307.1 353.5 307.86 351.67C308.25 350.74 317.62 328.77 340.78 321.14C357.98 315.47 377.88 319.3 399.92 332.51C401.43 333.41 402.13 335.22 401.63 336.9C401.13 338.58 399.52 339.74 397.8 339.66C397.43 339.64 359.28 338.77 343.18 369.97C342.71 370.88 341.89 371.57 340.91 371.88C340.54 372 340.15 372.06 339.76 372.06H339.77ZM316.55 351.52L338.24 363.05C350.57 342.39 371.08 335.43 384.6 333.1C369.16 326.04 355.27 324.48 343.19 328.46C328.19 333.4 319.79 345.72 316.55 351.52Z" fill="#000072"/>
<path d="M311.42 353.15C311.42 353.15 347.41 285.6 271.44 273.37C271.44 273.37 302.89 300.35 284.22 350.28C284.22 350.28 294.7 349.93 311.42 353.15Z" fill="#2FDD54"/>
<g opacity="0.6">
<path d="M271.44 273.37C271.44 273.37 276.21 277.48 280.93 285.42C324.06 299.03 316.64 335.89 310.5 352.98C310.81 353.04 311.11 353.09 311.42 353.15C311.42 353.15 347.41 285.6 271.44 273.37Z" fill="white"/>
</g>
<path d="M311.42 357C311.18 357 310.93 356.98 310.69 356.93C294.68 353.85 284.44 354.13 284.35 354.13C283.05 354.19 281.85 353.57 281.1 352.53C280.35 351.49 280.17 350.14 280.62 348.94C298.06 302.29 270.13 277.33 268.93 276.29C267.63 275.16 267.23 273.31 267.96 271.75C268.69 270.19 270.36 269.31 272.06 269.57C295.83 273.4 311.66 282.93 319.09 297.9C331.55 323 315.51 353.67 314.83 354.96C314.15 356.23 312.84 357 311.43 357H311.42ZM289.59 346.54C293.93 346.75 300.66 347.32 309.21 348.83C312.52 341.42 321.01 319.07 312.16 301.3C307.02 290.97 296.75 283.66 281.57 279.48C289.64 291.21 299.9 314.1 289.58 346.54H289.59Z" fill="#000072"/>
<path d="M311.42 353.15C311.42 353.15 319.15 293.66 245.15 294.88C245.15 294.88 281.14 313.98 279.33 352.03L311.41 353.16L311.42 353.15Z" fill="#2FDD54"/>
<g opacity="0.6">
<path d="M311.45 352.84C311.92 348.29 316.07 293.71 245.15 294.88C245.15 294.88 252.64 298.87 260.62 306.81C300.64 311.43 309.67 337.41 311.45 352.85V352.84Z" fill="white"/>
</g>
<path d="M311.42 357C311.42 357 311.33 357 311.28 357L279.2 355.87C278.17 355.83 277.2 355.39 276.5 354.63C275.8 353.87 275.44 352.87 275.49 351.84C277.15 316.77 243.68 298.46 243.34 298.28C241.79 297.45 241 295.68 241.41 293.98C241.82 292.27 243.33 291.06 245.09 291.03C270.76 290.63 289.93 297.24 302 310.75C318.24 328.93 315.37 352.65 315.24 353.65C314.99 355.57 313.35 357 311.42 357ZM283.25 348.31L307.78 349.17C307.86 342.49 306.71 327.55 296.19 315.82C287.71 306.37 274.92 300.8 258.06 299.2C268.61 307.97 282.89 324.26 283.24 348.31H283.25Z" fill="#000072"/>
<path d="M261.77 538.44C326.97 555.91 370.9 512.95 370.78 441.12C370.72 404.01 354.97 381.4 339.77 368.21C323.15 353.8 300.95 347.85 279.34 352.02C259.58 355.83 234.64 367.54 216.03 399.65C180.01 461.8 196.57 520.97 261.77 538.44Z" fill="#FFBE1D"/>
<g opacity="0.3">
<path d="M259.2 392.85C257.66 392.2 257.53 390.07 259.01 389.3C262.63 387.44 268.68 384.73 272.85 384.94C278.59 385.23 270.01 397.39 259.2 392.85Z" fill="white"/>
<path d="M293.57 376.07C292.03 375.42 291.9 373.29 293.38 372.52C297 370.66 303.05 367.95 307.22 368.16C312.96 368.45 304.38 380.61 293.57 376.07Z" fill="white"/>
<path d="M316.65 405.3C315.11 404.65 314.98 402.52 316.46 401.75C320.08 399.89 326.13 397.18 330.3 397.39C336.04 397.68 327.46 409.84 316.65 405.3Z" fill="white"/>
<path d="M282.34 421.05C280.8 420.4 280.67 418.27 282.15 417.5C285.77 415.64 291.82 412.93 295.99 413.14C301.73 413.43 293.15 425.59 282.34 421.05Z" fill="white"/>
<path d="M307.4 451.61C305.86 450.96 305.73 448.83 307.21 448.06C310.83 446.2 316.88 443.49 321.05 443.7C326.79 443.99 318.21 456.15 307.4 451.61Z" fill="white"/>
<path d="M245.65 435.19C244.11 434.54 243.98 432.41 245.46 431.64C249.08 429.78 255.13 427.07 259.3 427.28C265.04 427.57 256.46 439.73 245.65 435.19Z" fill="white"/>
<path d="M208.56 446.47C207.02 445.82 206.89 443.69 208.37 442.92C211.99 441.06 218.04 438.35 222.21 438.56C227.95 438.85 219.37 451.01 208.56 446.47Z" fill="white"/>
<path d="M234.72 478.98C233.18 478.33 233.05 476.2 234.53 475.43C238.15 473.57 244.2 470.86 248.37 471.07C254.11 471.36 245.53 483.52 234.72 478.98Z" fill="white"/>
<path d="M259.88 511C258.34 510.35 258.21 508.22 259.69 507.45C263.31 505.59 269.36 502.88 273.53 503.09C279.27 503.38 270.69 515.54 259.88 511Z" fill="white"/>
<path d="M336.67 479.59C335.13 478.94 335 476.81 336.48 476.04C340.1 474.18 346.15 471.47 350.32 471.68C356.06 471.97 347.48 484.13 336.67 479.59Z" fill="white"/>
<path d="M342.87 437.13C341.33 436.48 341.2 434.35 342.68 433.58C346.3 431.72 352.35 429.01 356.52 429.22C362.26 429.51 353.68 441.67 342.87 437.13Z" fill="white"/>
<path d="M341.21 390.2C339.67 389.55 339.54 387.42 341.02 386.65C344.64 384.79 350.69 382.08 354.86 382.29C360.6 382.58 352.02 394.74 341.21 390.2Z" fill="white"/>
<path d="M271.11 466.02C269.57 465.37 269.44 463.24 270.92 462.47C274.54 460.61 280.59 457.9 284.76 458.11C290.5 458.4 281.92 470.56 271.11 466.02Z" fill="white"/>
<path d="M298.79 497.03C297.25 496.38 297.12 494.25 298.6 493.48C302.22 491.62 308.27 488.91 312.44 489.12C318.18 489.41 309.6 501.57 298.79 497.03Z" fill="white"/>
<path d="M226.68 405.41C225.14 404.76 225.01 402.63 226.49 401.86C230.11 400 236.16 397.29 240.33 397.5C246.07 397.79 237.49 409.95 226.68 405.41Z" fill="white"/>
</g>
<mask id="mask1_31_41" style="mask-type:luminance" maskUnits="userSpaceOnUse" x="197" y="350" width="174" height="193">
<path d="M261.77 538.44C326.97 555.91 370.9 512.95 370.78 441.12C370.72 404.01 354.97 381.4 339.77 368.21C323.15 353.8 300.95 347.85 279.34 352.02C259.58 355.83 234.64 367.54 216.03 399.65C180.01 461.8 196.57 520.97 261.77 538.44Z" fill="white"/>
</mask>
<g mask="url(#mask1_31_41)">
<path d="M379.98 448.18C379.54 448.18 379.11 448.01 378.77 447.68C325.86 394.97 300.52 345.94 300.27 345.45C299.84 344.61 300.17 343.58 301.02 343.15C301.86 342.72 302.89 343.05 303.32 343.9C303.57 344.39 328.68 392.96 381.18 445.26C381.85 445.93 381.85 447.01 381.18 447.68C380.85 448.02 380.41 448.18 379.97 448.18H379.98Z" fill="#F7913E"/>
<path d="M369.04 483.529C368.66 483.529 368.27 483.4 367.95 483.14C304.99 431.1 263.1 351.06 262.69 350.26C262.26 349.42 262.58 348.39 263.42 347.95C264.26 347.52 265.29 347.839 265.73 348.679C266.14 349.479 307.72 428.91 370.13 480.499C370.86 481.1 370.96 482.18 370.36 482.91C370.02 483.32 369.53 483.529 369.04 483.529Z" fill="#F7913E"/>
<path d="M358.12 524.26C357.74 524.26 357.36 524.14 357.05 523.88C276.32 458.95 228.02 369.22 227.55 368.32C227.11 367.49 227.42 366.45 228.26 366.01C229.09 365.56 230.13 365.88 230.57 366.72C231.05 367.61 279.03 456.74 359.2 521.22C359.94 521.81 360.05 522.89 359.46 523.63C359.12 524.05 358.63 524.27 358.13 524.27L358.12 524.26Z" fill="#F7913E"/>
<path d="M335.65 555.99C335.27 555.99 334.89 555.87 334.58 555.61C253.85 490.68 205.55 400.95 205.08 400.05C204.64 399.22 204.95 398.18 205.79 397.74C206.62 397.29 207.66 397.61 208.1 398.45C208.58 399.34 256.56 488.47 336.73 552.95C337.47 553.54 337.58 554.62 336.99 555.36C336.65 555.78 336.16 556 335.66 556L335.65 555.99Z" fill="#F7913E"/>
<path d="M313.01 585.14C312.63 585.14 312.25 585.02 311.94 584.76C231.21 519.83 182.91 430.1 182.44 429.2C182 428.37 182.31 427.33 183.15 426.89C183.98 426.45 185.02 426.76 185.46 427.6C185.94 428.49 233.92 517.62 314.09 582.1C314.83 582.69 314.94 583.77 314.35 584.51C314.01 584.93 313.52 585.15 313.02 585.15L313.01 585.14Z" fill="#F7913E"/>
<path d="M205.38 401.4C204.62 401.4 203.93 400.89 203.73 400.13C203.49 399.22 204.03 398.28 204.94 398.04C276.56 379 322.59 349.49 323.05 349.19C323.85 348.67 324.9 348.91 325.42 349.7C325.93 350.49 325.71 351.55 324.91 352.07C324.45 352.37 277.99 382.16 205.82 401.35C205.67 401.39 205.52 401.41 205.38 401.41V401.4Z" fill="#F7913E"/>
<path d="M197.18 437.48C196.36 437.48 195.64 436.89 195.5 436.05C195.34 435.12 195.97 434.23 196.9 434.08C276.74 420.6 352.47 372.6 353.23 372.12C354.03 371.61 355.09 371.84 355.59 372.64C356.1 373.44 355.87 374.49 355.07 375C354.31 375.49 278.02 423.86 197.47 437.45C197.37 437.47 197.28 437.47 197.18 437.47V437.48Z" fill="#F7913E"/>
<path d="M186.27 478.21C185.44 478.21 184.71 477.61 184.58 476.76C184.44 475.83 185.08 474.95 186.01 474.81C287.68 459.05 373.8 405.86 374.66 405.32C375.46 404.82 376.51 405.06 377.02 405.87C377.52 406.67 377.28 407.73 376.47 408.23C375.61 408.77 288.92 462.33 186.54 478.2C186.45 478.21 186.36 478.22 186.28 478.22L186.27 478.21Z" fill="#F7913E"/>
<path d="M189.86 516.92C189.03 516.92 188.3 516.32 188.17 515.47C188.03 514.54 188.67 513.66 189.6 513.52C291.27 497.76 377.39 444.57 378.25 444.03C379.05 443.53 380.11 443.77 380.61 444.58C381.11 445.38 380.87 446.44 380.06 446.94C379.2 447.48 292.51 501.04 190.13 516.91C190.04 516.92 189.95 516.93 189.87 516.93L189.86 516.92Z" fill="#F7913E"/>
<path d="M194.9 553.49C194.07 553.49 193.34 552.89 193.21 552.04C193.07 551.11 193.71 550.23 194.64 550.09C296.34 534.33 382.43 481.14 383.29 480.6C384.09 480.1 385.15 480.34 385.65 481.15C386.15 481.95 385.91 483.01 385.1 483.51C384.24 484.05 297.55 537.61 195.17 553.48C195.08 553.49 194.99 553.5 194.91 553.5L194.9 553.49Z" fill="#F7913E"/>
</g>
<g opacity="0.15">
<path d="M252.01 533.64C246.47 532.16 241.28 530.38 236.43 528.3C215.94 516.71 203.42 499.31 199.1 478.6C202.63 490.5 210.2 501.9 236.71 509.43C299.61 527.28 343.16 473.48 343.05 403.89C343.03 391.48 341.21 380.75 338.19 371.5C350.38 385.24 360.96 405.91 361.02 436.33C361.14 508.16 317.21 551.12 252.01 533.65V533.64Z" fill="#000072"/>
</g>
<g opacity="0.6">
<path d="M220.3 408.27C238.91 376.16 263.85 364.45 283.61 360.64C305.21 356.47 327.41 362.42 344.04 376.83C350.62 382.53 357.29 390 362.75 399.63C356.75 385.7 348.18 375.51 339.76 368.21C323.14 353.8 300.94 347.85 279.33 352.02C259.57 355.83 234.63 367.54 216.02 399.65C194.29 437.14 191.73 473.53 207.4 500.36C196.74 474.62 200.81 441.89 220.29 408.27H220.3Z" fill="white"/>
</g>
<path d="M289.8 546.21C280.57 546.21 270.86 544.87 260.78 542.17C230.61 534.09 209.43 517.15 199.53 493.19C188.21 465.81 192.89 431.91 212.7 397.73C232.53 363.52 259.49 351.94 278.61 348.25C301.48 343.84 324.69 350.06 342.29 365.31C357.01 378.07 374.57 401.58 374.63 441.12C374.69 480.62 361.79 512.32 338.3 530.38C324.62 540.89 308.16 546.22 289.8 546.22V546.21ZM262.77 534.72C290.54 542.16 315.03 538.54 333.61 524.26C355.16 507.7 366.99 478.17 366.93 441.12C366.87 404.48 350.75 382.83 337.24 371.12C321.44 357.42 300.6 351.84 280.06 355.8C262.5 359.19 237.72 369.88 219.35 401.58C200.77 433.64 196.26 465.13 206.64 490.24C215.59 511.9 235 527.28 262.76 534.72H262.77Z" fill="#000072"/>
</svg>
