<svg width="596" height="791" viewBox="0 0 596 791" fill="none" xmlns="http://www.w3.org/2000/svg">
<path d="M427.21 113.55H168.07C135.69 113.55 109.44 139.799 109.44 172.18V618.69C109.44 651.07 135.69 677.32 168.07 677.32H427.21C459.59 677.32 485.84 651.07 485.84 618.69V172.18C485.84 139.799 459.59 113.55 427.21 113.55Z" fill="#91A4EA"/>
<mask id="mask0_31_118" style="mask-type:luminance" maskUnits="userSpaceOnUse" x="109" y="113" width="377" height="565">
<path d="M427.21 113.55H168.07C135.69 113.55 109.44 139.799 109.44 172.18V618.69C109.44 651.07 135.69 677.32 168.07 677.32H427.21C459.59 677.32 485.84 651.07 485.84 618.69V172.18C485.84 139.799 459.59 113.55 427.21 113.55Z" fill="white"/>
</mask>
<g mask="url(#mask0_31_118)">
<path d="M534.7 421.32C517.31 484.39 476.02 542.81 418.08 586.32C360.14 629.83 285.81 658.23 208.16 666.54C186.77 668.83 164.66 669.73 144.97 677.01C125.28 684.29 108.18 700.01 109.5 717.79C110.55 731.89 123.03 744.07 138.05 750.8C153.08 757.53 170.42 759.7 187.41 761.23C242.7 766.18 298.75 765.37 353.79 758.82C416.39 751.37 483.03 733.37 517.4 689.52C538.2 662.98 544.22 630.54 548.12 599.09C555.53 539.32 557.04 479.05 552.65 419.07" fill="#8396CC"/>
</g>
<path d="M427.21 113.55H168.07C135.69 113.55 109.44 139.799 109.44 172.18V618.69C109.44 651.07 135.69 677.32 168.07 677.32H427.21C459.59 677.32 485.84 651.07 485.84 618.69V172.18C485.84 139.799 459.59 113.55 427.21 113.55Z" stroke="#00454A" stroke-width="13.96" stroke-miterlimit="10"/>
<path d="M295.41 254.06C316.1 254.06 335.57 260.96 349.77 273.53C363.56 285.7 371.68 302.74 371.68 326.27C371.68 351.01 363.57 367.65 352.61 379.41C337.6 396.45 316.91 404.97 303.93 418.76C296.63 426.88 292.98 436.21 292.98 449.19H263.37C261.34 439.45 259.72 424.44 258.91 409.43C261.35 404.16 265.4 398.48 269.86 393.61C278.78 382.66 289.33 373.73 298.26 363.59C307.59 352.23 311.24 343.71 311.24 333.57C311.24 323.43 308.4 315.32 301.91 310.04C296.23 305.17 288.12 302.74 279.19 302.74C264.18 302.74 252.01 308.01 239.03 318.97L223.61 274.75C242.68 261.36 263.77 254.06 295.41 254.06ZM251.6 471.5H303.93V536.81H251.6V471.5Z" fill="#00454A"/>
</svg>
