<svg width="596" height="791" viewBox="0 0 596 791" fill="none" xmlns="http://www.w3.org/2000/svg">
<path d="M427.21 113.55H168.07C135.69 113.55 109.44 139.799 109.44 172.18V618.69C109.44 651.07 135.69 677.32 168.07 677.32H427.21C459.59 677.32 485.84 651.07 485.84 618.69V172.18C485.84 139.799 459.59 113.55 427.21 113.55Z" fill="#91A4EA"/>
<mask id="mask0_31_128" style="mask-type:luminance" maskUnits="userSpaceOnUse" x="109" y="113" width="377" height="565">
<path d="M427.21 113.55H168.07C135.69 113.55 109.44 139.799 109.44 172.18V618.69C109.44 651.07 135.69 677.32 168.07 677.32H427.21C459.59 677.32 485.84 651.07 485.84 618.69V172.18C485.84 139.799 459.59 113.55 427.21 113.55Z" fill="white"/>
</mask>
<g mask="url(#mask0_31_128)">
<path d="M534.7 421.32C517.31 484.39 476.02 542.81 418.08 586.32C360.14 629.83 285.81 658.23 208.16 666.54C186.77 668.83 164.66 669.73 144.97 677.01C125.28 684.29 108.18 700.01 109.5 717.79C110.55 731.89 123.03 744.07 138.05 750.8C153.08 757.53 170.42 759.7 187.41 761.23C242.7 766.18 298.75 765.37 353.79 758.82C416.39 751.37 483.03 733.37 517.4 689.52C538.2 662.98 544.22 630.54 548.12 599.09C555.53 539.32 557.04 479.05 552.65 419.07" fill="#8396CC"/>
</g>
<path d="M427.21 113.55H168.07C135.69 113.55 109.44 139.799 109.44 172.18V618.69C109.44 651.07 135.69 677.32 168.07 677.32H427.21C459.59 677.32 485.84 651.07 485.84 618.69V172.18C485.84 139.799 459.59 113.55 427.21 113.55Z" stroke="#00454A" stroke-width="13.96" stroke-miterlimit="10"/>
<path d="M385.71 364.69C385.71 364.69 385.62 364.79 385.57 364.83C381.44 368.57 374.1 371.77 361.65 368.17C361.65 368.17 350.56 356.6 337.76 348.23C337.76 348.23 345.26 346.06 355.94 346.45C364.11 346.75 374.16 348.55 384.09 353.99C388.04 356.17 388.93 361.57 385.71 364.68V364.69Z" fill="#2FDD54"/>
<g opacity="0.2">
<path d="M386.08 363.34L385.72 364.69C385.72 364.69 385.63 364.79 385.58 364.83C381.45 368.57 374.11 371.77 361.66 368.17C361.66 368.17 354.46 360.65 344.95 353.36C348.17 352.85 352.8 352.38 358.25 352.59C358.52 352.6 358.79 352.61 359.07 352.63C360.17 355.28 362.52 358.53 367.38 361.47C377.95 367.9 386.08 363.34 386.08 363.34Z" fill="#000072"/>
</g>
<g opacity="0.6">
<path d="M384.09 354C374.16 348.56 364.11 346.76 355.94 346.46C345.26 346.06 337.76 348.24 337.76 348.24C338.86 348.96 339.94 349.7 341 350.46C343.81 350.16 347.2 349.97 351.02 350.12C359.19 350.42 369.24 352.22 379.17 357.66C382.84 359.68 383.87 364.49 381.41 367.66C383.06 366.85 384.44 365.87 385.57 364.85C385.63 364.81 385.67 364.76 385.71 364.71C388.93 361.6 388.04 356.19 384.09 354.02V354Z" fill="white"/>
</g>
<path d="M371.76 373.02C368.56 373.02 364.9 372.52 360.73 371.32C360.18 371.16 359.67 370.86 359.27 370.44C359.16 370.33 348.27 359.03 335.96 350.99C334.89 350.29 334.32 349.02 334.51 347.76C334.7 346.49 335.61 345.45 336.84 345.09C337.83 344.8 361.53 338.17 385.22 350.89C388.27 352.53 390.3 355.58 390.64 359.04C390.98 362.45 389.61 365.78 386.99 367.94C383.87 370.51 378.97 373.03 371.75 373.03L371.76 373.02ZM363.38 365.24C371.66 367.47 378.2 366.68 382.82 362.86C383.76 362.08 384.24 360.92 384.11 359.67C383.98 358.37 383.26 357.27 382.12 356.66C368.34 349.26 354.34 349.18 346.08 350.08C354.54 356.47 361.31 363.14 363.38 365.23V365.24Z" fill="#000072"/>
<path d="M281.24 333.09C265.97 333.94 250.58 338.41 250.58 338.41C246.85 337.49 243.82 336.28 241.34 334.91C241.3 334.88 241.26 334.86 241.23 334.85C239.92 334.11 238.76 333.31 237.74 332.47C237.61 332.38 237.53 332.31 237.52 332.29H237.51C234.19 329.51 232.43 326.38 231.54 323.57C230.14 319.21 233.66 314.83 238.24 314.93C242.31 315.02 246.15 315.52 249.73 316.32C269.21 320.59 281.25 333.1 281.25 333.1L281.24 333.09Z" fill="#2FDD54"/>
<g opacity="0.2">
<path d="M273.26 333.82C261.03 335.36 250.58 338.41 250.58 338.41C246.85 337.49 243.82 336.28 241.34 334.91C241.3 334.88 241.26 334.86 241.23 334.85C239.38 333.69 238.22 332.83 237.74 332.47C237.61 332.38 237.53 332.31 237.52 332.29C238.26 332.44 259.37 336.39 253.97 323.28C262.56 326.31 269.17 330.66 273.26 333.83V333.82Z" fill="#000072"/>
</g>
<g opacity="0.6">
<path d="M236.41 329.23C235.01 324.87 238.53 320.49 243.11 320.59C247.18 320.68 251.02 321.18 254.6 321.98C265.47 324.36 274.02 329.31 279.45 333.22C280.05 333.18 280.64 333.13 281.24 333.1C281.24 333.1 269.2 320.58 249.72 316.32C246.14 315.53 242.3 315.03 238.23 314.93C233.65 314.84 230.13 319.21 231.53 323.57C232.42 326.38 234.18 329.51 237.5 332.29H237.51C237.51 332.29 237.61 332.38 237.73 332.47C237.76 332.5 237.8 332.52 237.83 332.55C237.2 331.43 236.73 330.31 236.39 329.24L236.41 329.23Z" fill="white"/>
</g>
<path d="M250.58 341.69C250.32 341.69 250.05 341.66 249.8 341.6C236.1 338.23 230.79 331 228.75 325.53C227.56 322.35 228.04 318.79 230.04 316C232.07 313.17 235.36 311.52 238.81 311.65C265.68 312.48 282.89 330.07 283.61 330.81C284.5 331.74 284.77 333.09 284.3 334.29C283.83 335.48 282.71 336.29 281.42 336.37C266.73 337.18 251.65 341.52 251.5 341.56C251.2 341.65 250.89 341.69 250.58 341.69ZM238.47 318.21C237.23 318.21 236.1 318.79 235.36 319.82C234.63 320.84 234.46 322.08 234.89 323.22C236.99 328.83 242.25 332.79 250.54 335C253.37 334.22 262.56 331.83 273.07 330.53C266.35 325.63 254.16 318.69 238.6 318.21C238.56 318.21 238.52 318.21 238.48 318.21H238.47Z" fill="#000072"/>
<path d="M335.74 348.55C335.74 348.55 324.66 340.781 315.27 337.821C314.53 337.591 313.82 337.381 313.1 337.221C313.1 337.221 323.27 306.381 356.64 301.431C360.99 300.801 364.86 303.291 366.38 306.971C367.03 308.501 367.25 310.261 366.92 312.061C364.54 325.281 357.37 345.771 335.74 348.541V348.55Z" fill="#2FDD54"/>
<g opacity="0.2">
<path d="M357.16 323.681C352.61 333.231 344.71 341.991 331.1 343.741C331.1 343.741 323.89 338.681 316.18 335.161C318.83 327.851 322.37 321.181 322.37 321.181C322.37 321.181 322.13 333.291 336.51 332.221C343.4 331.711 351.06 329.641 357.16 323.671V323.681Z" fill="#000072"/>
</g>
<g opacity="0.6">
<path d="M315.49 337.901C320.64 328.491 332.62 312.551 355.81 309.121C360.16 308.491 364.03 310.981 365.55 314.661C365.77 315.191 365.92 315.741 366.04 316.311C366.39 314.841 366.69 313.421 366.93 312.071C367.26 310.271 367.04 308.521 366.39 306.981C364.87 303.291 361 300.811 356.65 301.441C323.28 306.381 313.11 337.231 313.11 337.231C313.82 337.391 314.54 337.601 315.28 337.831C315.35 337.851 315.42 337.881 315.49 337.901Z" fill="white"/>
</g>
<path d="M335.74 351.84C335.07 351.84 334.41 351.63 333.85 351.25C333.73 351.16 321.37 342.54 312.35 340.44C311.45 340.23 310.68 339.65 310.23 338.85C309.78 338.05 309.69 337.09 309.98 336.21C310.42 334.87 321.19 303.38 356.16 298.2C360.15 297.61 364.05 298.93 366.85 301.82C369.66 304.72 370.86 308.66 370.14 312.64C367.75 325.95 360.15 348.73 336.15 351.81C336.01 351.83 335.87 351.84 335.73 351.84H335.74ZM317.5 335.11C325.29 337.83 333.59 343.14 336.53 345.12C354.47 342.13 361.21 325.27 363.68 311.48C364.02 309.61 363.45 307.75 362.14 306.39C360.83 305.03 358.99 304.41 357.12 304.69C332.04 308.4 320.98 327.45 317.5 335.11Z" fill="#000072"/>
<path d="M308.09 335.88C298.49 332.98 282.83 334.37 282.83 334.37C276.33 329.43 272.84 323.34 271.24 317C268.57 306.4 271.22 295.09 274.06 287.18C276.18 281.31 283.39 279.26 288.26 283.11C292.51 286.48 295.9 290.13 298.61 293.89C312.74 313.48 308.09 335.87 308.09 335.87V335.88Z" fill="#2FDD54"/>
<g opacity="0.2">
<path d="M303.06 334.79C293.84 333.39 282.82 334.37 282.82 334.37C276.32 329.43 272.83 323.34 271.23 317C271.23 317 296 330.09 298.76 305.58C304.03 317.84 303.61 329.55 303.05 334.78L303.06 334.79Z" fill="#000072"/>
</g>
<g opacity="0.6">
<path d="M276.3 325.72C273.63 315.12 276.28 303.81 279.12 295.9C281.24 290.03 288.45 287.98 293.32 291.83C297.57 295.2 300.96 298.85 303.67 302.61C303.68 302.63 303.69 302.65 303.71 302.66C302.37 299.73 300.7 296.78 298.62 293.89C295.91 290.13 292.52 286.49 288.27 283.11C283.4 279.25 276.18 281.31 274.07 287.18C271.23 295.09 268.57 306.4 271.25 317C272.32 321.26 274.28 325.39 277.4 329.16C276.97 328.02 276.59 326.88 276.3 325.72Z" fill="white"/>
</g>
<path d="M308.08 339.17C307.76 339.17 307.44 339.12 307.13 339.03C298.27 336.35 283.26 337.63 283.11 337.64C282.29 337.71 281.48 337.48 280.83 336.98C261.58 322.31 266.4 298.78 270.98 286.06C272.35 282.25 275.36 279.44 279.24 278.33C283.11 277.23 287.15 278.03 290.31 280.54C318 302.51 311.58 335.17 311.29 336.54C311.1 337.44 310.54 338.22 309.75 338.69C309.24 338.99 308.66 339.15 308.07 339.15L308.08 339.17ZM291.49 330.75C295.71 330.75 300.8 330.99 305.34 331.85C306.15 323.48 306.1 301.45 286.23 285.69C284.75 284.51 282.86 284.13 281.04 284.65C279.22 285.17 277.8 286.49 277.16 288.28C272.41 301.46 269.81 319.43 283.86 330.99C285.41 330.89 288.19 330.74 291.5 330.74L291.49 330.75Z" fill="#000072"/>
<path d="M325.84 279.67C326.11 279.74 326.37 279.83 326.63 279.92C330.75 281.46 332.43 286.42 330.47 290.35C328.98 293.34 327.75 296.46 326.8 299.66L314.86 339.73L309.28 341.47L305.31 337.18L315 296.51C315.78 293.26 316.27 289.95 316.48 286.61C316.75 282.22 320.69 278.77 325.02 279.5C325.29 279.54 325.56 279.6 325.83 279.68L325.84 279.67Z" fill="#2FDD54"/>
<g opacity="0.2">
<path d="M312.71 306.17C312.71 306.17 313.08 315.74 315.97 316.51C318.86 317.28 323.44 310.93 323.44 310.93L315.93 338.94L308.08 335.89C308.08 335.89 308.3 316.16 312.71 306.17Z" fill="#000072"/>
</g>
<g opacity="0.6">
<path d="M316.06 290.8C317.67 288.98 320.09 287.94 322.65 288.37C322.92 288.41 323.19 288.47 323.46 288.55C323.73 288.62 323.99 288.71 324.25 288.8C326.69 289.71 328.26 291.82 328.74 294.2C329.27 292.9 329.84 291.62 330.47 290.36C332.43 286.42 330.74 281.47 326.63 279.93C326.38 279.84 326.11 279.75 325.84 279.68C325.57 279.61 325.3 279.55 325.03 279.5C320.69 278.77 316.76 282.22 316.49 286.61C316.4 288.01 316.25 289.41 316.07 290.8H316.06Z" fill="white"/>
</g>
<path d="M309.28 344.75C308.38 344.75 307.5 344.38 306.87 343.69L302.9 339.4C302.16 338.6 301.86 337.48 302.12 336.41L311.82 295.74C312.55 292.68 313.02 289.54 313.21 286.4C313.41 283.27 314.92 280.36 317.38 278.41C319.75 276.53 322.66 275.76 325.58 276.26C325.95 276.32 326.32 276.4 326.7 276.5C327.08 276.6 327.44 276.72 327.79 276.85C330.56 277.89 332.7 280 333.81 282.81C334.96 285.73 334.82 289.01 333.42 291.82C332.02 294.63 330.85 297.59 329.96 300.6L318.02 340.67C317.71 341.72 316.89 342.54 315.85 342.87L310.27 344.61C309.95 344.71 309.62 344.76 309.29 344.76L309.28 344.75ZM308.92 336.23L310.29 337.71L312.22 337.11L323.66 298.72C324.67 295.34 325.97 292.03 327.54 288.88C328.11 287.74 328.17 286.4 327.7 285.21C327.28 284.15 326.5 283.36 325.49 282.99C325.33 282.93 325.17 282.88 325 282.83C324.83 282.78 324.66 282.75 324.5 282.72C323.43 282.54 322.36 282.83 321.47 283.54C320.47 284.33 319.85 285.52 319.77 286.8C319.55 290.31 319.03 293.83 318.21 297.26L308.92 336.22V336.23Z" fill="#000072"/>
<path d="M263.84 511.07C242.57 505.37 185.39 409.28 217.28 363.97C249.16 318.67 310.6 336.56 310.6 336.56C310.6 336.56 372.75 351.78 377.71 406.96C382.67 462.14 285.11 516.77 263.84 511.07Z" fill="#FF395A"/>
<path d="M301.06 399.15C300.32 399.91 299.01 399.56 298.76 398.53C298.53 397.61 298.45 396.45 298.77 395.26C299.59 392.21 300.66 390.84 301.97 391.19C303.05 391.48 303.85 392.06 302.71 396.31C302.39 397.49 301.73 398.46 301.06 399.15Z" fill="#FFC639"/>
<path d="M307.97 455.51C307.23 456.27 305.92 455.92 305.67 454.89C305.45 453.97 305.36 452.81 305.68 451.62C306.5 448.57 307.57 447.2 308.88 447.55C309.96 447.84 310.76 448.42 309.62 452.67C309.3 453.85 308.64 454.82 307.97 455.51Z" fill="#FFC639"/>
<path d="M249.71 466.22L251.29 464.78C250.66 465.64 249.32 465.47 248.92 464.49C248.57 463.61 248.32 462.47 248.47 461.25C248.72 459.18 249.18 458.11 249.52 457.57C250.04 456.76 250.57 456.71 251.06 456.77C251.2 456.79 251.33 456.81 251.46 456.84C252.23 457.05 253.02 457.61 252.52 461.73C252.37 462.94 251.85 463.99 251.28 464.77L249.71 466.22Z" fill="#FFC639"/>
<path d="M285.3 356.84C284.56 357.6 283.25 357.25 283 356.22C282.78 355.3 282.69 354.14 283.01 352.95C283.83 349.9 284.9 348.53 286.21 348.88C287.29 349.17 288.09 349.75 286.95 354C286.63 355.18 285.97 356.15 285.3 356.84Z" fill="#FFC639"/>
<path d="M253.46 399.21C253.13 398.61 252.73 397.31 253.11 395.91C253.5 394.46 254.16 392.78 255.13 393.04C255.65 393.18 256.3 393.35 255.45 396.53C255.08 397.91 254.07 398.84 253.47 399.21H253.46Z" fill="#FFC639"/>
<path d="M266.51 432.87C266.18 432.27 265.78 430.97 266.16 429.57C266.55 428.12 267.21 426.44 268.18 426.7C268.7 426.84 269.35 427.01 268.5 430.19C268.13 431.57 267.12 432.5 266.52 432.87H266.51Z" fill="#FFC639"/>
<path d="M224.01 413.75C223.57 413.23 222.91 412.03 223 410.58C223.09 409.08 223.41 407.31 224.41 407.37C224.53 407.37 224.64 407.39 224.74 407.42C225 407.49 225.6 407.65 225.42 410.73C225.33 412.16 224.53 413.27 224.01 413.75Z" fill="#FFC639"/>
<path d="M328.48 419.32C328.15 418.72 327.75 417.42 328.13 416.02C328.52 414.57 329.18 412.89 330.15 413.15C330.67 413.29 331.32 413.46 330.47 416.64C330.1 418.02 329.09 418.95 328.49 419.32H328.48Z" fill="#FFC639"/>
<path d="M342.84 452.18L343.22 452.05C342.96 451.42 342.69 450.08 343.22 448.73C343.56 447.84 344.46 445.79 345.4 446.04C346.03 446.27 346.66 446.51 345.48 449.59C344.97 450.93 343.86 451.75 343.23 452.05L342.84 452.18Z" fill="#FFC639"/>
<path d="M283.78 489.82L284.15 489.69C283.88 489.06 283.62 487.72 284.14 486.37C284.48 485.48 285.38 483.43 286.32 483.69C286.96 483.93 287.05 484.13 287.07 484.52C287.11 485.28 286.71 486.44 286.4 487.24C285.89 488.58 284.78 489.4 284.15 489.7L283.78 489.82Z" fill="#FFC639"/>
<path d="M352.92 396.02C352.59 395.42 352.19 394.12 352.57 392.72C352.96 391.27 353.62 389.59 354.59 389.85C355.11 389.99 355.76 390.16 354.91 393.34C354.54 394.72 353.53 395.65 352.93 396.02H352.92Z" fill="#FFC639"/>
<path d="M244.25 365.37C243.92 364.77 243.52 363.47 243.9 362.07C244.29 360.62 244.95 358.94 245.92 359.2C246.44 359.34 247.09 359.51 246.24 362.69C245.87 364.07 244.86 365 244.26 365.37H244.25Z" fill="#FFC639"/>
<path d="M324.97 367.4C324.64 366.8 324.24 365.5 324.62 364.1C325.01 362.65 325.67 360.97 326.64 361.23C327.16 361.37 327.81 361.54 326.96 364.72C326.59 366.1 325.58 367.03 324.98 367.4H324.97Z" fill="#FFC639"/>
<g opacity="0.15">
<path d="M259.07 508.72C251.36 503.51 241.15 490.93 231.86 474.85C234.96 477.66 237.77 479.5 240.11 480.13C259.34 485.28 347.48 435.92 343 386.07C341.07 364.62 329.59 349.85 317.11 339.99C335.9 348.63 364.37 367.65 367.66 404.26C372.29 455.72 287.74 506.71 259.07 508.71V508.72Z" fill="#000072"/>
</g>
<g opacity="0.45">
<path d="M220.89 372.93C252.77 327.63 314.21 345.52 314.21 345.52C314.21 345.52 357.24 356.06 374.55 391.39C360.77 348.86 310.59 336.57 310.59 336.57C310.59 336.57 249.15 318.67 217.27 363.98C201.17 386.86 207.79 422.7 221.02 453.3C210.34 424.88 206.34 393.62 220.89 372.94V372.93Z" fill="white"/>
</g>
<g opacity="0.25">
<path d="M289.94 353.35C261.15 348.64 240.61 364.51 231.07 379.46C228.01 384.17 234 390.5 237.97 387.22C254.14 373.83 275.37 366.27 291.09 363.69C296.08 362.85 295.39 354.31 289.94 353.36V353.35Z" fill="white"/>
</g>
<path d="M267.46 514.76C265.79 514.76 264.29 514.59 262.99 514.24C248.98 510.49 225.89 477.4 213.57 443.43C201.24 409.43 201.61 380.54 214.6 362.09C247.45 315.41 310.89 333.23 311.52 333.42C312.03 333.54 375.88 349.82 380.99 406.67C383.01 429.15 368.88 454.35 341.21 477.63C316.13 498.72 283.73 514.76 267.47 514.76H267.46ZM282.72 336.46C263.01 336.46 236.91 341.77 219.95 365.86C204.14 388.33 213.02 422.7 219.73 441.19C231.89 474.73 254.27 505.11 264.68 507.9C275.08 510.69 309.66 495.57 336.96 472.6C352.01 459.94 376.89 434.62 374.43 407.26C369.74 355.12 310.4 339.91 309.8 339.76C309.48 339.67 298.02 336.47 282.71 336.47L282.72 336.46Z" fill="#000072"/>
</svg>
