<svg width="596" height="791" viewBox="0 0 596 791" fill="none" xmlns="http://www.w3.org/2000/svg">
<path d="M427.21 113.55H168.07C135.69 113.55 109.44 139.799 109.44 172.18V618.69C109.44 651.07 135.69 677.32 168.07 677.32H427.21C459.59 677.32 485.84 651.07 485.84 618.69V172.18C485.84 139.799 459.59 113.55 427.21 113.55Z" fill="#91A4EA"/>
<mask id="mask0_31_196" style="mask-type:luminance" maskUnits="userSpaceOnUse" x="109" y="113" width="377" height="565">
<path d="M427.21 113.55H168.07C135.69 113.55 109.44 139.799 109.44 172.18V618.69C109.44 651.07 135.69 677.32 168.07 677.32H427.21C459.59 677.32 485.84 651.07 485.84 618.69V172.18C485.84 139.799 459.59 113.55 427.21 113.55Z" fill="white"/>
</mask>
<g mask="url(#mask0_31_196)">
<path d="M534.7 421.32C517.31 484.39 476.02 542.81 418.08 586.32C360.14 629.83 285.81 658.23 208.16 666.54C186.77 668.83 164.66 669.73 144.97 677.01C125.28 684.29 108.18 700.01 109.5 717.79C110.55 731.89 123.03 744.07 138.05 750.8C153.08 757.53 170.42 759.7 187.41 761.23C242.7 766.18 298.75 765.37 353.79 758.82C416.39 751.37 483.03 733.37 517.4 689.52C538.2 662.98 544.22 630.54 548.12 599.09C555.53 539.32 557.04 479.05 552.65 419.07" fill="#8396CC"/>
</g>
<path d="M427.21 113.55H168.07C135.69 113.55 109.44 139.799 109.44 172.18V618.69C109.44 651.07 135.69 677.32 168.07 677.32H427.21C459.59 677.32 485.84 651.07 485.84 618.69V172.18C485.84 139.799 459.59 113.55 427.21 113.55Z" stroke="#00454A" stroke-width="13.96" stroke-miterlimit="10"/>
<path d="M410.71 381.58C410.71 458.95 347.99 521.67 270.62 521.67C238.18 521.67 208.31 510.64 184.57 492.13L191.68 482.79L200.52 471.19L338.32 290.13L347.15 278.53L354.26 269.19C388.52 294.73 410.72 335.56 410.72 381.58H410.71Z" fill="#27AA46"/>
<path d="M399.04 381.58C399.04 452.4 341.43 509.99 270.63 509.99C240.88 509.99 213.47 499.83 191.68 482.79L200.52 471.19L338.32 290.13L347.15 278.53C378.63 301.95 399.04 339.42 399.04 381.58Z" fill="#FFFDA4"/>
<path d="M384.44 381.58C384.44 444.34 333.38 495.4 270.62 495.4C244.19 495.4 219.85 486.35 200.52 471.19L338.32 290.13C366.29 310.9 384.45 344.15 384.45 381.58H384.44Z" fill="#FF395A"/>
<g opacity="0.15">
<path d="M410.58 375.82C407.47 450.43 345.99 509.95 270.62 509.95C240.72 509.95 213.01 500.58 190.27 484.63L191.67 482.79L200.51 471.19L206.33 463.53C225.23 474.07 246.98 480.09 270.16 480.09C342.64 480.09 401.39 421.34 401.39 348.86C401.39 341.29 400.73 333.86 399.51 326.64C405.99 341.85 409.89 358.42 410.57 375.82H410.58Z" fill="#000072"/>
</g>
<path d="M241.84 460.03C241.35 459.38 240.37 459.32 239.84 459.94C238.82 461.12 237.42 463.16 237.26 465.62C237.06 468.62 239.31 469.81 240.37 470.2C240.71 470.33 241.08 470.3 241.39 470.13C242.84 469.35 246.7 466.5 241.84 460.03Z" fill="#000072"/>
<path d="M272.53 462.91C271.94 462.34 270.97 462.44 270.54 463.14C269.72 464.46 268.66 466.7 268.88 469.15C269.15 472.14 271.57 472.96 272.67 473.19C273.02 473.26 273.38 473.18 273.67 472.96C274.98 471.96 278.34 468.54 272.53 462.91Z" fill="#000072"/>
<path d="M300.69 458.741C300.04 458.251 299.08 458.481 298.74 459.221C298.1 460.631 297.32 462.991 297.86 465.391C298.51 468.321 301.01 468.831 302.13 468.911C302.49 468.941 302.84 468.811 303.09 468.561C304.26 467.401 307.17 463.581 300.69 458.741Z" fill="#000072"/>
<path d="M260.21 427.73C259.84 427.36 259.21 427.42 258.93 427.85C258.39 428.69 257.69 430.11 257.81 431.68C257.95 433.59 259.49 434.15 260.19 434.3C260.41 434.35 260.65 434.3 260.83 434.16C261.68 433.53 263.86 431.38 260.2 427.73H260.21Z" fill="#000072"/>
<path d="M279.89 426.78C279.47 426.47 278.86 426.63 278.65 427.1C278.25 428.01 277.78 429.52 278.14 431.06C278.58 432.93 280.18 433.23 280.9 433.27C281.13 433.28 281.35 433.2 281.51 433.03C282.25 432.28 284.07 429.81 279.88 426.77L279.89 426.78Z" fill="#000072"/>
<path d="M297.34 421.611C296.88 421.361 296.3 421.591 296.15 422.091C295.87 423.041 295.59 424.601 296.15 426.081C296.82 427.881 298.45 427.981 299.17 427.931C299.4 427.911 299.61 427.801 299.75 427.621C300.39 426.781 301.88 424.101 297.34 421.621V421.611Z" fill="#000072"/>
<path d="M323.01 447.15C322.23 446.9 321.4 447.43 321.32 448.24C321.17 449.79 321.21 452.27 322.5 454.36C324.07 456.92 326.6 456.59 327.69 456.3C328.04 456.21 328.33 455.97 328.49 455.65C329.22 454.17 330.72 449.61 323.01 447.15Z" fill="#000072"/>
<path d="M339.59 430.2C338.77 430.18 338.13 430.92 338.28 431.72C338.58 433.25 339.32 435.61 341.15 437.26C343.38 439.27 345.71 438.23 346.67 437.64C346.98 437.45 347.19 437.15 347.25 436.79C347.53 435.16 347.67 430.37 339.58 430.2H339.59Z" fill="#000072"/>
<path d="M350.11 410.27C349.3 410.31 348.7 411.09 348.91 411.88C349.31 413.38 350.22 415.69 352.16 417.2C354.53 419.05 356.78 417.85 357.7 417.2C357.99 416.99 358.18 416.67 358.22 416.31C358.39 414.67 358.2 409.88 350.12 410.26L350.11 410.27Z" fill="#000072"/>
<path d="M355.96 385.92C355.19 386.19 354.85 387.11 355.28 387.81C356.1 389.13 357.63 391.08 359.92 391.97C362.72 393.06 364.53 391.27 365.22 390.38C365.44 390.1 365.53 389.73 365.46 389.38C365.15 387.76 363.58 383.22 355.96 385.92Z" fill="#000072"/>
<path d="M352.85 358.56C352.24 359.11 352.28 360.09 352.94 360.56C354.2 361.47 356.36 362.68 358.82 362.63C361.82 362.56 362.81 360.21 363.11 359.13C363.21 358.78 363.15 358.42 362.95 358.12C362.04 356.74 358.86 353.15 352.85 358.56Z" fill="#000072"/>
<path d="M340.34 331.32C339.87 331.99 340.12 332.94 340.87 333.25C342.3 333.86 344.68 334.56 347.07 333.96C349.98 333.23 350.43 330.72 350.48 329.59C350.5 329.23 350.36 328.89 350.1 328.64C348.91 327.5 345.01 324.7 340.35 331.31L340.34 331.32Z" fill="#000072"/>
<path d="M317.34 389.3C316.89 389.48 316.71 390.03 316.98 390.43C317.5 391.19 318.45 392.3 319.82 392.77C321.5 393.34 322.52 392.24 322.91 391.7C323.03 391.53 323.08 391.31 323.03 391.11C322.81 390.16 321.77 387.53 317.34 389.31V389.3Z" fill="#000072"/>
<path d="M318.89 372.5C318.46 372.72 318.33 373.28 318.63 373.66C319.21 374.37 320.25 375.4 321.66 375.75C323.38 376.18 324.31 374.99 324.65 374.42C324.76 374.24 324.78 374.02 324.72 373.82C324.42 372.89 323.16 370.36 318.9 372.51L318.89 372.5Z" fill="#000072"/>
<path d="M315.97 355.05C315.6 355.36 315.59 355.94 315.97 356.23C316.69 356.8 317.94 357.57 319.39 357.6C321.16 357.64 321.8 356.27 322.01 355.64C322.07 355.44 322.05 355.22 321.94 355.04C321.44 354.2 319.65 352.01 315.97 355.05Z" fill="#000072"/>
<g opacity="0.6">
<path d="M195.26 494.64L204.1 483.04L341.9 301.98L350.73 290.38L357.84 281.04C379.98 297.54 397.07 320.43 406.4 346.98C398.37 315.4 379.63 288.1 354.26 269.19L347.15 278.53L338.32 290.13L200.52 471.19L191.68 482.79L184.57 492.11C187.2 494.18 189.92 496.12 192.7 497.98L195.25 494.63L195.26 494.64Z" fill="white"/>
</g>
<g opacity="0.35">
<path d="M319.41 369.95C315.24 374.77 307.65 368.76 310.87 363.26C326.01 337.39 347.88 304.17 356.19 310.65C361.72 314.96 351.92 332.36 319.41 369.94V369.95Z" fill="white"/>
</g>
<g opacity="0.35">
<path d="M302.94 389.73C299.83 390.81 296.64 388.35 296.84 385.06C297.04 381.9 298.21 377.64 302.72 375.28C310.48 371.21 311.6 379 309.34 384.13C308.16 386.81 305.53 388.83 302.94 389.72V389.73Z" fill="white"/>
</g>
<path d="M270.62 524.96C238.38 524.96 207.93 514.51 182.56 494.73C181.63 494.01 181.16 492.84 181.33 491.68C181.42 491.07 181.67 490.5 182.06 490.04L351.65 267.2C352.74 265.77 354.78 265.48 356.23 266.56C392.95 293.92 414.01 335.85 414.01 381.59C414.01 460.64 349.69 524.96 270.64 524.96H270.62ZM189.17 491.52C212.85 509.11 240.94 518.39 270.61 518.39C346.04 518.39 407.41 457.02 407.41 381.59C407.41 339.03 388.3 299.93 354.86 273.8L189.16 491.52H189.17Z" fill="#000072"/>
</svg>
